<svg version="1.1" xmlns="http://www.w3.org/2000/svg" style="display: block;" viewBox="406.667 121.333 1230.667 1729.333" width="1230.667" height="1729.333" preserveAspectRatio="none">
<path transform="translate(0,0)" fill="rgb(0,0,0)" d="M 1020.94 155.28 C 1026.97 154.954 1033.07 155.731 1037.9 159.522 C 1056.17 173.869 1073.18 193.472 1089.03 210.415 C 1128.32 252.467 1165.94 296.05 1201.8 341.062 C 1385.24 568.47 1595.58 902.316 1603.55 1201.32 C 1607.7 1357 1546.83 1525.77 1437.38 1637.53 C 1321.12 1756.23 1188.27 1812.92 1023.42 1816.39 C 903.132 1815.24 790.27 1781.4 691.757 1711.59 C 561.244 1618.97 473.416 1477.8 448.003 1319.79 C 398.162 1023.63 589.363 692.096 755.776 458.393 C 819.834 368.925 889.589 283.676 964.607 203.175 C 977.988 188.964 994.064 171.012 1009.6 159.129 C 1012.77 156.707 1017.07 155.933 1020.94 155.28 z M 787.4 1716.44 C 794.766 1683.5 802.682 1650.69 811.144 1618.01 C 816.67 1596.3 823.491 1568.76 830.468 1547.46 L 829.568 1546.56 C 825.886 1542.93 820.434 1539.55 816.334 1535.89 C 741.376 1468.95 699.686 1368.78 698.933 1268 C 697.27 997.799 950.769 833.269 1180.52 758.436 C 1202.37 751.321 1228.12 740.505 1250.78 737.7 C 1271.81 735.096 1277 757.955 1280.45 773.424 C 1289.43 813.638 1300.19 854.032 1307.75 894.629 C 1342.99 1069.09 1364.35 1255.09 1260.45 1411.69 C 1204.75 1495.43 1118.13 1553.66 1019.56 1573.63 C 969.527 1583.57 917.941 1582.62 868.306 1570.86 C 863.119 1594.15 856.042 1619.32 850.111 1642.62 C 842.404 1673.37 834.911 1704.17 827.631 1735.03 C 964.459 1785.57 1108.81 1785.84 1242.43 1724.32 C 1373.27 1663.11 1474.6 1552.66 1524.34 1417.04 C 1599.64 1211.71 1545.19 1010.65 1456.29 819.342 C 1425.2 753.755 1390.26 690.07 1351.63 628.62 C 1262.42 484.181 1143.31 326.858 1023.3 206.07 C 951.03 276.642 880.594 362.498 819.463 444.926 C 581.676 765.554 303.019 1256.94 641.324 1609.85 C 677.452 1647.54 739.044 1695.49 787.4 1716.44 z M 843.577 1500.09 C 879.436 1387.75 919.967 1283.48 976.678 1179.68 C 985.289 1163.92 1006.45 1124.6 1017.34 1111.18 C 1035.75 1098.01 1059.72 1110.14 1054.28 1130.79 C 1050.93 1143.5 1034.03 1167.81 1026.65 1180.87 C 1015.55 1200.28 1004.95 1219.97 994.869 1239.93 C 962.83 1304.02 934.661 1369.97 910.512 1437.44 C 901.398 1462.55 887.685 1501.71 881.003 1527.49 C 919.66 1538.79 967.262 1538.14 1006.59 1530.61 C 1138.78 1505.23 1237.89 1407.29 1273.9 1278.85 C 1313.16 1138.81 1284.23 994.664 1254.48 855.791 C 1252.65 847.278 1239.66 788.679 1237.16 785.163 C 1063.62 840.998 874.362 929.64 784.623 1098.27 C 714.301 1230.42 734.046 1395.29 843.577 1500.09 z"/>
</svg>