<svg version="1.1" xmlns="http://www.w3.org/2000/svg" style="display: block;" viewBox="621.333 197.333 838.667 1572" width="838.667" height="1572" preserveAspectRatio="none">
<path transform="translate(0,0)" fill="rgb(0,0,0)" d="M 757.276 229.279 C 771.39 228.542 788.99 229.001 803.288 229 L 883.364 229.006 L 1127 228.979 L 1259.02 228.973 C 1281.92 228.975 1310.45 227.618 1332.79 230.993 C 1337.64 231.725 1347.26 241.96 1348.36 245.892 C 1356.26 274.177 1361.77 314.936 1366.82 343.462 L 1397.86 521.988 C 1409.78 590.747 1424.8 662.654 1427.97 732.272 C 1435.62 900.163 1351.79 1041.56 1192.49 1101.9 C 1180.84 1106.44 1168.93 1110.28 1156.82 1113.38 C 1144.76 1116.5 1117.27 1121.63 1108.65 1128.45 C 1068.38 1160.29 1074.81 1222.07 1074.84 1267.8 L 1074.91 1372.38 L 1074.88 1455.54 C 1074.87 1464.68 1074.86 1474.08 1074.89 1483.2 C 1074.84 1501.97 1075.4 1520.93 1084.6 1537.82 C 1092.4 1552.15 1103.23 1564.49 1119.02 1570.09 C 1130.06 1574.01 1141.47 1576.44 1152.84 1578.85 C 1195.44 1587.89 1238.52 1594.96 1280.2 1607.87 C 1302.13 1614.66 1327.1 1623.87 1338.14 1645.77 C 1344.59 1658.6 1346.16 1675.27 1341.31 1688.86 C 1334.91 1706.15 1321.77 1713.98 1306.29 1721.42 C 1304.47 1722.15 1302.64 1722.83 1300.79 1723.46 C 1254.69 1739.22 1195.76 1737.36 1147.03 1737.41 L 1027.89 1737.32 L 924.452 1737.32 C 896.895 1737.31 869.008 1737.98 840.503 1735.07 C 807.394 1731.68 752.118 1725.43 738.604 1688.11 C 734.151 1675.81 736.334 1656.35 742.578 1645.06 C 756.565 1619.76 786.894 1611.73 812.747 1604.29 C 859.837 1590.79 908.864 1584.36 956.214 1572.02 C 973.67 1567.47 987.38 1555.24 995.517 1539.37 C 1008.64 1514.12 1005.86 1483.33 1005.8 1455.51 L 1005.76 1375.57 L 1005.87 1267.9 C 1005.91 1227.18 1011.86 1154.02 970.182 1126.71 C 962.447 1121.64 923.055 1112.93 910.542 1109.04 C 887.243 1102.03 864.663 1092.81 843.108 1081.52 C 756.653 1035.85 698.586 965.61 669.518 872.102 C 637.175 768.057 659.509 675.376 677.983 571.498 L 710.328 389.459 L 722.082 322.981 C 725.009 305.727 727.729 288.372 730.597 271.105 C 733.761 252.056 735.741 235.122 757.276 229.279 z M 707.202 672.833 C 793.765 643.211 872.867 636.556 962.705 657.552 C 1076.33 684.106 1151.18 728.361 1271.59 704.442 C 1312.82 694.418 1335.12 686.382 1374.42 669.119 C 1353.3 538.674 1327.44 407.404 1307.32 277.343 C 1285.35 276.556 1261.56 277.155 1239.39 277.215 L 1132.33 277.227 L 776.187 277.115 C 769.104 313.501 763.124 351.83 756.698 388.479 L 729.996 538.44 L 715.878 618.428 C 712.769 635.848 708.815 655.434 707.202 672.833 z M 1025.26 1123.35 C 1031.84 1135.47 1035.45 1143.6 1041.11 1156.29 L 1046.98 1142.34 C 1050.22 1135.16 1052.64 1130.17 1056.51 1123.34 C 1049.06 1123.62 1032.61 1123.91 1025.26 1123.35 z M 1040.4 1556.69 C 1024.04 1591.03 1014.54 1601.16 979.951 1615.54 C 949.459 1628.21 797.988 1650.61 786.192 1669.39 C 786.382 1671.59 786.338 1672.05 788.134 1673.56 C 812.683 1694.29 998.703 1688.72 1041.5 1688.66 L 1126.42 1688.62 C 1156.2 1688.6 1271.72 1691.44 1292.99 1672.44 C 1293.55 1670.79 1294.34 1669.82 1293.46 1668.73 C 1284.75 1657.75 1241.41 1648.69 1228.45 1645.81 L 1154.88 1629.77 C 1110.17 1619.87 1068.5 1613.6 1047.89 1569.99 C 1046.72 1567.53 1042.03 1558.37 1040.4 1556.69 z M 837.87 695.43 C 789.094 699.023 748.276 709.762 702.294 726.046 C 701.481 749.255 700.9 768.503 702.862 791.654 C 707.976 859.75 735.793 924.161 781.859 974.571 C 842.525 1039.9 941.215 1078.49 1030.18 1083.15 C 1089.76 1086.27 1177.48 1060.88 1229.81 1030.49 C 1345.79 958.812 1386.62 852.905 1379.65 720.863 C 1361 728.394 1342.92 736.017 1323.66 742.068 C 1242.42 767.598 1158.53 764.869 1077.24 741.446 C 1004.5 720.49 914.783 687.43 837.87 695.43 z"/>
</svg>