<svg version="1.1" xmlns="http://www.w3.org/2000/svg" style="display: block;" viewBox="285.333 294.667 1493.333 1436" width="1493.333" height="1436" preserveAspectRatio="none">
<path transform="translate(0,0)" fill="rgb(0,0,0)" d="M 358.677 325.434 C 386.204 323.759 427.292 330.39 454.534 336.91 C 550.205 359.804 643.881 408.67 710.113 482.417 C 727.979 502.31 740.466 521.046 754.503 543.425 C 782.013 527.881 823.116 511.15 852.983 501.853 C 1005.25 453.593 1170.53 468.471 1311.73 543.152 C 1320.13 526.58 1335.89 505.202 1347.96 490.819 C 1429.36 393.849 1557.15 335.466 1682.32 325.795 C 1703.92 324.127 1734.19 323.855 1745.21 346.197 C 1756.4 368.854 1740.59 396.154 1733.76 419.263 C 1729.52 433.894 1726.44 448.835 1724.55 463.948 C 1713.52 553.478 1747.77 636.809 1715.59 727.85 C 1692.41 793.446 1656.68 838.04 1594.83 870.123 C 1603.51 899.286 1612.57 920.725 1620.52 952.316 C 1651.78 1072.5 1647.91 1199.14 1609.35 1317.19 C 1606.06 1326.68 1602.6 1336.1 1598.96 1345.45 C 1546.33 1480.34 1441.78 1588.46 1308.74 1645.58 C 1146.22 1717.15 940.747 1717.55 775.281 1653.8 C 452.755 1529.55 349.824 1178.83 470.865 870.433 C 454.462 861.896 441.222 854.569 426.61 842.877 C 399.955 821.133 378.139 794.058 362.562 763.388 C 309.989 660.967 347.022 582.429 341.179 482.469 C 339.864 459.274 335.854 436.312 329.228 414.045 C 324.777 399.576 317.056 382.972 315.557 368.048 C 312.836 340.951 334.078 327.479 358.677 325.434 z M 1059.25 1650.97 C 1375.34 1643.01 1601.64 1421.95 1592.97 1101.79 C 1589.74 937.549 1521.3 781.334 1402.77 667.598 C 1294.42 565.207 1159.56 518.883 1011.68 523.258 C 1009.82 523.302 1007.97 523.38 1006.13 523.492 C 899.351 530.668 811.428 558.425 723.066 619.244 C 442.364 812.452 368.377 1277.81 635.573 1513.8 C 752.891 1617.42 905.779 1654.84 1059.25 1650.97 z M 1683.37 371.383 C 1574.73 381.234 1453.9 438.477 1383.54 523.096 C 1371.87 537.103 1361.31 551.998 1351.95 567.645 C 1386.02 590.627 1406.62 606.505 1436.98 634.005 C 1462.92 586.176 1494.52 543.704 1538.75 511.074 C 1545.19 506.325 1551.58 501.205 1559.17 498.403 C 1569.35 494.642 1576.19 508.967 1570.42 514.917 C 1564.07 521.462 1553.87 527.612 1546.43 533.512 C 1536.68 541.292 1527.44 549.684 1518.76 558.635 C 1492.37 585.918 1470.58 617.298 1454.24 651.556 C 1501.1 698.534 1548.41 766.623 1575.35 827.462 C 1588.27 819.037 1601.55 810.774 1613.2 800.677 C 1647.63 770.848 1669.3 731.908 1678.61 687.643 C 1688.55 640.34 1682.56 597.636 1678.17 550.502 C 1672.87 493.619 1677.84 424.166 1700.86 371.091 C 1694.85 371.026 1689.37 370.892 1683.37 371.383 z M 540.392 550.868 C 526.29 537.711 512.127 527.6 497.028 515.912 C 490.073 510.529 496.62 496.945 505.703 499.318 C 514.421 500.976 522.615 507.55 529.47 512.741 C 556.337 532.759 579.83 556.945 599.059 584.382 C 610.054 600.242 619.794 616.937 628.19 634.313 C 654.58 610.079 682.819 586.978 713.157 567.829 C 698.682 545.589 686.403 527.059 667.775 507.547 C 604.36 441.124 516.15 397.402 426.913 378.339 C 406.363 373.948 384.568 370.693 363.794 371.187 C 380.53 419.404 386.639 453.557 386.804 505.139 C 386.926 542.881 382.149 577.593 380.105 615.122 C 376.234 686.223 394.879 751.162 449.49 799.524 C 461.712 810.347 475.562 818.991 489.405 827.745 C 511.919 774.541 568.745 692.135 610.505 652.063 C 592.108 613.541 572.476 580.378 540.392 550.868 z"/>
<path transform="translate(0,0)" fill="rgb(0,0,0)" d="M 955.523 1095.43 L 1058.54 1095.36 C 1078.64 1095.36 1104.02 1094.79 1123.8 1096.32 C 1174.55 1099.77 1222.62 1120.35 1260.14 1154.7 C 1300.66 1192.14 1324.54 1244.21 1326.48 1299.34 C 1327.97 1352.71 1308.14 1404.48 1271.39 1443.21 C 1226.79 1489.96 1173 1505.99 1110.32 1507.3 L 1005.73 1507.41 C 971.71 1507.46 935.328 1509.26 902.004 1502.54 C 866.402 1495.36 830.307 1479.23 802.716 1455.26 C 763.345 1421.73 739.133 1373.75 735.543 1322.16 C 731.995 1266.34 750.964 1211.43 788.208 1169.71 C 832.777 1119.52 889.979 1099.16 955.523 1095.43 z M 1109.17 1459.57 C 1159.9 1458.36 1201.27 1448.12 1237.68 1409.82 C 1265.58 1380.87 1280.49 1341.82 1278.98 1301.64 C 1277.57 1257.49 1259.62 1220.19 1227.55 1189.75 C 1187 1151.25 1137.66 1141.7 1083.54 1143.14 C 1042.3 1144.23 999.956 1141.82 958.703 1143.32 C 957.746 1143.35 956.789 1143.39 955.833 1143.44 C 904.31 1146.15 858.053 1163.33 823.042 1202.33 C 794.548 1233.68 780.104 1275.31 783.059 1317.57 C 785.36 1355.78 802.771 1391.49 831.448 1416.84 C 885.319 1464.23 943.301 1459.49 1009.02 1459.58 L 1109.17 1459.57 z"/>
<path transform="translate(0,0)" fill="rgb(0,0,0)" d="M 923.723 1240.19 C 944.606 1237.98 961.179 1248.28 967.603 1268.26 C 978.033 1300.7 976.621 1350.47 939.468 1364.24 C 918.094 1365.94 902.527 1357.08 895.013 1336.66 C 882.733 1303.29 886.416 1254.79 923.723 1240.19 z"/>
<path transform="translate(0,0)" fill="rgb(0,0,0)" d="M 1122.14 1240.3 C 1184.63 1232.13 1188.83 1350.31 1137.22 1363.97 C 1118.58 1366.21 1101.61 1357.01 1095.15 1339.43 C 1082.74 1305.67 1084.85 1256.08 1122.14 1240.3 z"/>
<path transform="translate(0,0)" fill="rgb(0,0,0)" d="M 766.972 902.387 C 799.225 898.525 828.53 921.468 832.522 953.705 C 836.514 985.943 813.69 1015.34 781.468 1019.46 C 749.063 1023.61 719.461 1000.62 715.446 968.202 C 711.432 935.78 734.534 906.271 766.972 902.387 z"/>
<path transform="translate(0,0)" fill="rgb(0,0,0)" d="M 1284.64 902.503 C 1316.93 899.214 1345.77 922.736 1349.03 955.028 C 1352.3 987.32 1328.76 1016.14 1296.46 1019.38 C 1264.2 1022.62 1235.42 999.111 1232.15 966.851 C 1228.89 934.591 1252.38 905.789 1284.64 902.503 z"/>
</svg>