<svg version="1.1" xmlns="http://www.w3.org/2000/svg" style="display: block;" viewBox="398.667 186.667 1273.333 1701.333" width="1273.333" height="1701.333" preserveAspectRatio="none">
<path transform="translate(0,0)" fill="rgb(0,0,0)" d="M 1023.88 221.252 C 1029.41 221.144 1033.88 221.844 1038.52 225.143 C 1043.02 228.337 1046.05 233.202 1046.94 238.649 C 1050.11 257.673 1032.88 263.307 1020.97 271.509 C 1017.62 273.816 1012.19 280.422 1009.74 284.039 C 998.788 300.012 994.712 319.713 998.425 338.72 C 1002.58 359.857 1014.04 377.862 1032.11 390.024 C 1055.19 405.565 1088.47 408.29 1112.76 394.032 C 1120.51 389.486 1129.71 380.115 1138.22 378.359 C 1143.92 377.337 1149.95 378.351 1154.51 381.96 C 1171.87 395.698 1156.73 417.8 1146.47 431.013 C 1125.61 457.862 1092.98 477.24 1059.05 481.26 L 1058.98 556.841 C 1088.11 598.445 1123.04 638.12 1163.51 668.8 C 1251.86 735.776 1351.26 778.339 1430.55 858.457 C 1506.6 935.297 1557.59 1030.74 1558.12 1140.79 C 1558.71 1237.87 1520.91 1331.25 1452.94 1400.57 L 1454.77 1400.47 C 1486.33 1398.95 1521.84 1400.76 1553.95 1400.1 C 1573.42 1401.25 1595.9 1398.06 1614.94 1401.22 C 1637.97 1405.04 1636.96 1429.4 1637.04 1445.16 L 1637.11 1709.15 L 1637.16 1788.57 C 1637.23 1813.87 1644.26 1853.17 1608.8 1853.79 C 1590.86 1854.1 1573.13 1854.19 1555.17 1854.19 L 1451.28 1854.18 L 1127.5 1854.02 L 673.435 1853.26 L 536.775 1852.86 C 511.892 1852.86 487.036 1853.08 462.156 1852.57 C 441.787 1852.16 432.488 1842.47 432.242 1821.92 C 431.921 1795.17 432.071 1768.39 432.09 1741.63 L 432.165 1586.84 L 432.172 1483.72 C 432.153 1464.6 431.778 1445.38 432.927 1426.31 C 433.594 1415.23 444.291 1402.31 455.488 1401.11 C 473.064 1399.22 491.828 1399.99 509.587 1400.01 L 616.306 1400.16 C 563.315 1346.83 528.548 1278.1 516.979 1203.82 C 491.684 1037.2 579.363 896.276 709.33 799.846 C 756.618 764.76 807.667 736.331 857.17 704.65 C 923.075 662.473 968.896 618.94 1015.04 556.205 L 1015.13 481.251 C 996.007 475.731 985.022 471.916 968.608 460.611 C 904.873 416.712 901.03 334.728 944.673 274.803 C 963.812 248.524 991.231 226.827 1023.88 221.252 z M 683.982 1400.07 L 1035.5 1400.09 L 1387.96 1400.18 C 1464.73 1331.5 1505.29 1264.35 1511.26 1158.94 C 1516.72 1062.67 1475.23 976.943 1412.21 906.503 C 1333.69 818.731 1229.55 776.866 1138.02 707.153 C 1109.97 685.721 1084.18 661.474 1061.07 634.791 C 1054.37 627.196 1041.99 610.303 1036.42 604.68 C 1000.88 650.787 958.463 691.16 910.662 724.387 C 851.879 765.373 789.786 797.315 731.75 841.16 C 621.194 924.684 543.45 1044.63 561.712 1188.01 C 573.2 1278.21 615.049 1342.87 683.982 1400.07 z M 476.726 1807.96 L 612.068 1807.9 L 612.041 1725.82 C 612.026 1703.51 610.508 1670.22 616.072 1649.37 C 620.637 1632.26 629.596 1616.63 642.06 1604.04 C 681.195 1564.53 744.458 1565.45 783.028 1605.43 C 794.559 1617.47 802.805 1632.27 806.976 1648.4 C 811.447 1665.92 810.216 1696.82 810.208 1715.88 L 810.282 1807.9 L 934.519 1807.82 C 934.206 1793.49 933.801 1776.17 934.728 1761.93 C 938.316 1706.79 921.568 1649.79 964 1605.49 C 982.427 1586.2 1007.86 1575.18 1034.54 1574.91 C 1089.43 1574.31 1132.03 1617.62 1133.58 1672.05 C 1134.87 1717.27 1133.31 1762.75 1134.06 1807.98 L 1261.88 1807.75 L 1261.9 1708.75 C 1261.77 1668.04 1258.88 1636.38 1290.47 1604.18 C 1308.81 1585.53 1333.86 1575.01 1360.01 1574.96 C 1386.28 1574.89 1411.46 1585.41 1429.88 1604.15 C 1442.17 1616.69 1451 1632.21 1455.51 1649.19 C 1460.39 1668.08 1459.05 1700.68 1459.05 1721.04 L 1459.04 1807.95 L 1593.73 1807.85 C 1592.25 1688.45 1593.19 1564.58 1593.67 1445.01 C 1511.26 1443.72 1425.83 1444.81 1343.27 1444.93 L 937.471 1444.97 L 629.841 1444.76 C 581.831 1444.76 523.865 1443.31 476.322 1445.02 L 476.48 1678.53 L 476.363 1760.51 C 476.346 1774.46 475.777 1794.38 476.726 1807.96 z M 977.764 1807.92 L 1036.5 1807.84 C 1054.05 1807.83 1072.34 1807.55 1089.82 1807.85 L 1090.23 1719.28 C 1090.29 1704.5 1091.43 1674.83 1088.32 1661.55 C 1086.06 1651.53 1081.08 1642.32 1073.95 1634.93 C 1063.06 1623.7 1048.24 1618.69 1032.78 1619.32 C 973.919 1628.34 977.878 1674.24 977.792 1720.66 L 977.764 1807.92 z M 961.003 357.601 C 958.874 401.653 992.819 438.251 1036.72 440.539 C 1042.93 440.831 1049.16 440.542 1055.32 439.675 C 1048.61 436.851 1039.04 436.277 1031.6 433.778 C 1004.37 424.633 982.717 406.005 969.938 380.281 C 967.478 375.421 963.176 360.615 961.003 357.601 z M 1350.85 1620.25 C 1297.49 1633.33 1304.82 1680.63 1305.01 1723.1 L 1305.25 1807.9 L 1370.5 1807.84 L 1414.96 1807.95 L 1414.96 1717.77 C 1414.97 1696.15 1417.84 1669.98 1408.55 1650.15 C 1397.43 1626.4 1375.87 1617.87 1350.85 1620.25 z M 702.906 1620.2 C 646.083 1635 656.083 1684.77 655.954 1730.56 C 655.882 1755.8 655.08 1782.98 656.28 1807.96 C 678.001 1807.71 699.724 1807.64 721.446 1807.76 L 766.505 1807.86 L 766.573 1719.8 C 766.661 1691.34 771.652 1655.6 749.121 1634.26 C 738.661 1624.35 723.817 1619.01 709.425 1619.68 C 707.248 1619.79 705.074 1619.97 702.906 1620.2 z"/>
</svg>