<svg version="1.1" xmlns="http://www.w3.org/2000/svg" style="display: block;" viewBox="310.667 276 1432 1433.333" width="1432" height="1433.333" preserveAspectRatio="none">
<path transform="translate(0,0)" fill="rgb(0,0,0)" d="M 1015.61 305.26 C 1395.48 299.461 1708.05 602.88 1713.53 982.76 C 1719 1362.64 1415.32 1674.95 1035.44 1680.1 C 656.006 1685.25 344.154 1382.01 338.683 1002.59 C 333.211 623.161 636.189 311.053 1015.61 305.26 z M 1035.45 1635.96 C 1390.79 1630.74 1674.58 1338.38 1669.23 983.047 C 1663.88 627.711 1371.42 344.027 1016.09 349.505 C 660.94 354.98 377.435 647.256 382.78 1002.41 C 388.125 1357.56 680.298 1641.17 1035.45 1635.96 z"/>
<path transform="translate(0,0)" fill="rgb(0,0,0)" d="M 1021.02 586.116 L 1022.46 586.054 C 1055.62 584.894 1048.07 617.724 1047.95 641.09 L 1047.9 703.767 C 1047.9 781.144 1047.08 860.085 1048.1 937.317 L 1049.46 937.881 C 1065.43 944.607 1077.1 955.136 1083.59 971.403 C 1089.63 986.557 1089.39 1003.49 1082.94 1018.47 L 1222.41 1157.92 L 1263.95 1199.31 C 1276.3 1211.62 1307.43 1234.65 1287.91 1254.84 C 1274.92 1268.27 1261.25 1261.01 1249.86 1249.72 C 1227.96 1229.16 1204.82 1205.12 1183.42 1183.71 L 1051.6 1051.17 C 1035.42 1057.42 1019.67 1058.15 1003.44 1051.41 C 988.253 1045.04 976.243 1032.85 970.096 1017.57 C 963.934 1002.16 964.175 984.923 970.766 969.687 C 977.68 954.127 989.438 943.79 1005.12 937.611 L 1005.19 695.168 C 1005.2 673.519 1004.73 651.726 1005.02 630.097 C 1005.29 610.307 1000.34 595.79 1021.02 586.116 z"/>
<path transform="translate(0,0)" fill="rgb(0,0,0)" d="M 1524.02 971.405 C 1541.04 971.25 1587.38 967.335 1599.56 977.23 C 1604.03 980.861 1605.97 985.431 1606.46 991.068 C 1607.06 997.9 1605.48 1003.3 1600.91 1008.46 C 1596.25 1013.73 1590.85 1015.04 1584.07 1015.55 C 1568.23 1015.24 1527.14 1018.59 1514 1011.94 C 1497.65 1003.66 1499.51 975.125 1524.02 971.405 z"/>
<path transform="translate(0,0)" fill="rgb(0,0,0)" d="M 468.171 971.41 C 484.13 971.333 528.062 968.214 539.846 976.282 C 544.481 979.456 547.382 984.14 548.209 989.692 C 549.107 995.716 548.011 1002.44 544.134 1007.28 C 540.013 1012.43 534.561 1014.73 528.179 1015.54 C 510.183 1015.44 466.722 1018.89 453.901 1010.2 C 439.211 1000.25 443.983 974.103 468.171 971.41 z"/>
<path transform="translate(0,0)" fill="rgb(0,0,0)" d="M 1023.05 1478.26 C 1033.71 1477.98 1046.46 1482.89 1047.14 1493.71 C 1048.67 1517.79 1050.21 1545.71 1046.28 1569.38 C 1045.34 1575.04 1034.98 1579.83 1031.1 1581.26 C 995.161 1581.37 1006.49 1547.02 1004.96 1521.85 C 1003.82 1503.09 1002.72 1484.71 1023.05 1478.26 z"/>
<path transform="translate(0,0)" fill="rgb(0,0,0)" d="M 1019.1 404.232 C 1057.66 399.343 1047.23 435.344 1048.02 460.45 C 1048.68 481.103 1053.14 493.355 1033.6 504.617 C 1003.41 508.5 1003.33 483.314 1005.27 460.979 C 1007.23 438.374 996.806 417.654 1019.1 404.232 z"/>
</svg>