<svg version="1.1" xmlns="http://www.w3.org/2000/svg" style="display: block;" viewBox="234.667 198.667 1600 1653.333" width="1600" height="1653.333" preserveAspectRatio="none">
<path transform="translate(0,0)" fill="rgb(0,0,0)" d="M 425.029 232.406 C 430.352 231.796 438.938 231.517 444.473 231.52 C 520.482 231.558 596.543 231.597 672.547 231.619 L 1136.46 231.704 L 1339.55 231.613 C 1373.1 231.569 1419.68 229.242 1451.73 233.899 C 1512.64 242.749 1568.88 297.556 1584 356.396 C 1591.53 385.71 1590.02 413.55 1590.01 443.042 L 1590.01 536.071 L 1590.02 899.397 C 1621.08 902.991 1643.69 916.099 1659.06 944.545 C 1664.07 953.819 1667.32 965.891 1675.02 973.455 C 1682.77 981.059 1696.18 986.055 1705.88 991.087 C 1742.16 1009.91 1758.38 1039.43 1758.77 1079.95 C 1758.88 1091.48 1759.71 1109.88 1763.57 1120.88 C 1766.79 1130.07 1773.65 1138.32 1779.06 1146.58 C 1787.2 1158.93 1793.53 1172.38 1797.86 1186.53 C 1807.58 1218.97 1802.33 1253.38 1783.71 1281.36 C 1768.86 1303.68 1759.34 1313.48 1761.7 1342.6 C 1764.66 1379.07 1752.28 1417.09 1717.46 1434.43 C 1700.2 1443.03 1674.89 1448.6 1669.97 1471.82 C 1667.33 1492.6 1668.86 1517.13 1668.79 1538.27 L 1668.05 1711.14 C 1668 1733.34 1667.93 1755.41 1668.3 1777.88 C 1668.58 1794.64 1669.29 1813.7 1648.47 1818.77 C 1644.6 1819.6 1638.05 1819.63 1634.43 1817.72 C 1616.23 1808.17 1598.06 1795.76 1580.76 1784.71 L 1462.6 1708.9 C 1443.18 1721.53 1423.66 1734.91 1404.39 1747.85 L 1335.32 1794.57 C 1319.99 1804.81 1276.5 1841.59 1263.24 1800.47 C 1260.71 1792.63 1261.98 1766.65 1261.99 1757.14 L 1261.89 1685.14 C 1188.53 1684.26 1114.07 1684.85 1040.66 1684.83 L 653.655 1684.64 L 498.825 1684.44 C 472.698 1684.39 428.885 1685.75 404.916 1681.5 C 372.287 1675.44 342.264 1659.63 318.809 1636.15 C 263.174 1581.48 243.246 1487.35 303.161 1428.06 C 317.601 1413.81 335.616 1403.71 355.311 1398.83 C 377.06 1393.45 420.048 1395.12 444.732 1395.16 L 549.563 1395.2 L 549.425 521.455 C 537.213 520.577 518 521.2 505.176 521.207 L 420.407 521.217 C 401.694 521.208 379.917 522.096 361.857 518.105 C 344.714 514.401 328.706 506.648 315.173 495.492 C 239.441 432.946 270.722 312.086 344.006 261.989 C 370.929 243.584 392.687 235.496 425.029 232.406 z M 532.062 1640.36 L 1261.81 1640.19 L 1261.71 1503.05 C 1252.98 1494.63 1248.38 1489.68 1242.04 1479.22 C 1237.06 1471.03 1231.59 1457.06 1224.8 1450.75 C 1218.55 1444.94 1203.74 1440.92 1195.67 1436.96 C 1163.51 1421.17 1147.42 1389.82 1146.73 1355.29 C 1146.62 1347.58 1146.57 1339.87 1146.57 1332.17 C 1146.37 1327.21 1146.26 1320.74 1144.96 1316.1 C 1141.8 1305.16 1134.28 1295.06 1127.37 1286.06 C 1107.27 1259.9 1102.48 1233.85 1105.86 1201.82 C 1109.78 1164.67 1136.34 1146.45 1145.43 1113.07 C 1147.6 1105.12 1146.2 1092.27 1146.72 1083.97 C 1145.41 1055.42 1152.16 1033.11 1171.51 1011.66 C 1180.2 1002.03 1191.11 995.173 1202.74 989.431 C 1209.51 986.087 1219.35 981.981 1224.75 976.9 C 1231.59 970.46 1236.31 956.956 1240.69 948.211 C 1256.49 916.703 1286.07 900.191 1320.89 899.285 C 1332.74 898.976 1350.03 900.984 1361.43 898.049 C 1371.59 894.45 1380.71 885.396 1389.61 879.761 C 1419.48 860.813 1456.04 853.471 1489.92 865.766 C 1505.95 871.58 1518.69 881.002 1531.99 891.302 C 1536.86 895.081 1540.43 896.581 1545.96 899.057 L 1546.05 540.772 L 1546.04 443.688 C 1546.04 426.439 1546.94 397.328 1544.03 381.524 C 1539.57 355.939 1527.4 332.329 1509.14 313.859 C 1479.64 283.9 1450.4 277.598 1410.61 277.511 L 822.912 277.515 L 633.322 277.358 C 602.161 277.297 566.984 278.077 536.303 276.993 C 602.423 334.618 593.794 389.755 593.754 469.341 L 593.67 615.473 L 593.501 1063.84 L 593.712 1380.04 L 593.846 1469.6 C 593.945 1543.43 592.578 1588.51 532.062 1640.36 z M 421.828 277.373 C 399.664 280.114 384.227 286.616 366.089 300.082 C 317.699 336.009 292.181 420.27 345.973 462.95 C 364.889 477.958 384.137 477.423 407.041 477.394 L 445.5 477.276 L 549.66 477.365 L 549.756 424.229 C 549.774 386.675 549.261 358.625 525.802 326.829 C 502.504 295.251 462.211 271.517 421.828 277.373 z M 376.661 1440.39 C 332.121 1444.96 307.091 1484.78 312.481 1527.33 C 322.315 1604.95 400.786 1664.56 476.313 1628.5 C 557.296 1586.05 550.654 1519.08 549.315 1440.64 C 522.431 1439.1 485.978 1440.04 458.535 1440.08 C 434.55 1440.11 399.986 1439 376.661 1440.39 z M 1624.03 1516.17 C 1606.74 1523.97 1589.08 1527.29 1570.29 1526.19 C 1542.9 1524.59 1534.63 1532.92 1514.07 1548.1 C 1488.07 1567.31 1447.75 1570.99 1417.5 1559.75 C 1408.17 1556.24 1399.34 1551.5 1391.26 1545.66 C 1385.23 1541.31 1372.81 1530.65 1366.47 1529.09 C 1346.27 1524.15 1329.1 1528.83 1307.13 1524.7 L 1307.18 1760.28 L 1342.56 1736.3 C 1365.95 1720.45 1389.24 1704.45 1412.42 1688.29 C 1424.26 1680.09 1437.37 1668.92 1450.54 1663.28 C 1455.58 1661.12 1463.5 1660.23 1468.89 1661.47 C 1479.87 1663.99 1604.61 1747.24 1624.33 1760.58 L 1624.88 1578.13 C 1624.91 1569.62 1625.78 1520.65 1624.44 1516.52 L 1624.03 1516.17 z M 1459.47 1522.15 C 1491.36 1517.83 1496.99 1500.07 1524.54 1487.57 C 1556.67 1473 1597.11 1495.88 1620.91 1462.69 C 1633.52 1445.11 1635.86 1434.14 1652.89 1418.54 C 1669.93 1402.92 1697.33 1400.33 1708.92 1383.4 C 1722.86 1363.06 1713.7 1334.48 1719.67 1308.97 C 1728.5 1271.28 1764.28 1249.55 1757.62 1210.38 C 1751.66 1175.33 1727.44 1163.95 1717.98 1126.68 C 1709.32 1092.56 1723.81 1057.66 1693.28 1036.78 C 1675.25 1024.44 1660.07 1021.7 1643.28 1005.24 C 1626.81 989.099 1622.72 962.361 1605.99 950.754 C 1586.25 937.067 1558.94 947.485 1533.46 941.422 C 1496.56 932.64 1489.04 902.936 1450.69 904.352 C 1414.42 908.938 1409.77 925.608 1377.08 939.278 C 1347.6 951.602 1307.3 931.984 1287.72 958.361 C 1275.28 975.125 1275.32 990.619 1257.96 1008 C 1237.51 1028.46 1214.02 1027.3 1198.71 1050.92 C 1188.61 1066.5 1193 1085.16 1192.26 1102.6 C 1191.87 1111.86 1190.4 1119.1 1188.49 1128.13 C 1179.87 1169 1143.8 1183.27 1150.38 1228.96 C 1154.38 1256.72 1173.66 1267.03 1184.55 1291.78 C 1190.72 1305.81 1191.54 1312.84 1193.03 1327.48 C 1195.24 1349.29 1188.65 1378.7 1210.1 1392.63 C 1226.58 1403.32 1239.68 1402.86 1256.12 1417.32 C 1274.74 1433.7 1278.58 1461.57 1297.12 1473.78 C 1319.24 1488.34 1353 1477.75 1377.32 1484.87 C 1414.49 1495.74 1415.02 1523.27 1459.47 1522.15 z"/>
<path transform="translate(0,0)" fill="rgb(0,0,0)" d="M 803.202 530.47 L 1130.9 530.393 L 1237.61 530.309 C 1257.26 530.25 1276.2 530.291 1296.66 530.422 C 1319.11 530.566 1330.69 551.716 1316.94 570.015 C 1313.29 574.884 1306.41 576.914 1300.25 577.246 L 968.332 577.577 L 857.521 577.472 C 837.912 577.445 818.151 577.692 798.555 576.997 C 793.399 576.797 789.482 575.728 785.409 572.509 C 775.125 564.383 774.216 547.432 783.265 538.005 C 789.855 531.139 794.401 531.05 803.202 530.47 z"/>
<path transform="translate(0,0)" fill="rgb(0,0,0)" d="M 795.98 757.33 C 811.28 756.467 833.498 757.118 849.216 757.113 L 950.428 757.098 L 1095.82 757.089 C 1121.09 757.092 1146.29 757.054 1171.63 757.214 C 1181.44 756.479 1192.16 761.521 1195.34 771.745 C 1200.21 787.355 1192.65 798.423 1178.05 802.678 C 1157.96 803.477 1134.12 802.907 1113.74 802.894 L 997.341 802.879 L 870.052 803.003 C 847.708 803.032 825.861 802.867 802.886 802.936 C 783.096 802.996 771.514 788.357 779.776 769 C 782.478 762.668 789.413 759.261 795.98 757.33 z"/>
<path transform="translate(0,0)" fill="rgb(0,0,0)" d="M 796.112 982.238 C 829.118 980.757 862.777 982.047 895.856 982.015 C 915.401 981.996 1001.37 979.669 1014.34 983.792 C 1019.44 985.412 1023.76 989.794 1026.02 994.55 C 1028.71 1000.22 1029.69 1009.31 1027.1 1015.16 C 1024.33 1021.42 1017.89 1025.43 1011.91 1028.05 C 997.894 1028.65 982.945 1028.28 968.872 1028.23 C 912.592 1028.04 856.287 1028.63 800.015 1028.1 C 789.467 1028 781.672 1023.68 778.13 1013.32 C 775.99 1007.03 776.482 1000.15 779.494 994.226 C 783.057 987.324 789.019 984.265 796.112 982.238 z"/>
<path transform="translate(0,0)" fill="rgb(0,0,0)" d="M 1358.51 1070.17 C 1371.55 1069.6 1382.89 1073.98 1384.4 1088.58 C 1385.81 1102.15 1385.22 1116.34 1385.22 1130.03 L 1385.2 1210.41 C 1415.64 1180.8 1447.17 1151.73 1477.98 1122.39 C 1495.3 1106.57 1511.74 1089.4 1530.15 1074.85 C 1539.12 1067.76 1552.03 1069.26 1559.87 1077.14 C 1564.11 1081.42 1566.36 1087.28 1566.08 1093.29 C 1565.96 1096.37 1564.64 1101.95 1562.69 1104.24 C 1553.41 1115.13 1540.49 1126.17 1529.95 1135.95 L 1461.61 1199.64 C 1485.91 1229.83 1516.11 1264.57 1541.89 1293.69 C 1551.97 1305.59 1573.47 1324.74 1573.67 1340.87 C 1573.86 1356.34 1550.19 1368.96 1538.54 1356.96 C 1500.07 1317.36 1465.52 1273.15 1428.62 1232.05 C 1414.75 1244.57 1399.39 1258.59 1385.06 1270.44 C 1385.08 1286.82 1387.69 1332 1383.99 1345.19 C 1382.35 1351.05 1378.75 1356.7 1373.33 1359.69 C 1367.58 1362.85 1359.87 1362.67 1353.81 1360.5 C 1348.84 1358.73 1343.77 1353.7 1341.77 1348.82 C 1338.41 1340.61 1339.06 1120.01 1340.23 1094.61 C 1340.42 1090.36 1340.6 1086.37 1342.45 1082.45 C 1345.79 1075.38 1351.4 1072.58 1358.51 1070.17 z"/>
</svg>