<svg version="1.1" xmlns="http://www.w3.org/2000/svg" style="display: block;" viewBox="368 398.667 1313.333 1154.667" width="1313.333" height="1154.667" preserveAspectRatio="none">
<path transform="translate(0,0)" fill="rgb(0,0,0)" d="M 1192.67 425.34 C 1221.74 421.649 1244.35 442.46 1252.63 468.686 C 1280.74 557.748 1238.47 658.03 1199.76 737.513 C 1217.99 751.097 1229.82 762.094 1243.48 780.058 C 1273.89 820.063 1283.95 880.153 1274.62 929.228 C 1250.16 1057.89 1150.95 1209.84 1064.18 1303.47 C 1027.07 1343.58 986.082 1379.91 941.804 1411.92 C 822.499 1498.34 685.775 1545.32 537.744 1521.64 C 499.146 1516.03 425.845 1495.45 402.427 1463.55 C 394.658 1453.31 391.77 1440.67 393.951 1428.1 C 400.1 1390.29 445.015 1382.93 476.512 1378.14 C 576.533 1362.93 655.025 1307.39 714.416 1226.71 C 785.082 1130.72 825.279 1017.7 854.329 902.885 C 871.968 835.129 892.199 764.766 953.515 723.046 C 1001.57 690.347 1046.29 682.694 1102.48 692.437 C 1123.25 648.532 1151.42 594.606 1148.98 545.283 C 1148.62 529.406 1143.98 514.154 1141.56 498.536 C 1135.59 460.037 1152.95 430.819 1192.67 425.34 z M 717.807 1479.74 C 905.048 1433.51 1057.24 1284.18 1154.11 1123.06 C 1193.56 1057.44 1238 969.341 1241 891.883 C 1225.49 882.838 1199.57 864.359 1182.34 869.304 C 1161.49 875.288 1141.64 899.83 1116.88 887.509 C 1106.05 882.117 1102.08 861.794 1096.33 851.245 C 1090.16 839.937 1085.63 832.352 1076.7 822.865 C 1052.52 797.158 1024.52 799.006 995.007 782.047 C 988.099 778.078 967.309 760.364 966.038 759.763 C 911.022 802.253 899.768 879.804 881.479 942.647 C 870.644 981.44 859.624 1019.81 845.113 1057.43 C 789.757 1200.96 699.256 1347.57 545.142 1397.78 C 528.464 1403.46 510.965 1406.63 493.865 1410.56 C 477.692 1414.27 458.971 1415.33 443.665 1421.46 C 420.384 1430.78 429.721 1446.93 446.761 1455.8 C 529.726 1499.01 628.343 1499.95 717.807 1479.74 z M 996.527 739.113 C 1017.68 759.439 1029.92 759.676 1056.47 769.146 C 1088.78 780.675 1112.25 804.694 1128.49 834.368 L 1137.08 853.466 C 1173.01 828.463 1197.82 827.209 1236.05 848.274 C 1230.85 827.727 1221.02 808.639 1207.31 792.471 C 1199.37 783.2 1190.44 774.835 1180.66 767.527 C 1175.35 763.494 1158.54 752.699 1158.72 746.163 C 1159.77 734.16 1168.19 719.051 1173.15 708.036 C 1202.3 643.314 1235.04 572.22 1222.62 499.372 C 1219.66 481.999 1215.57 458.78 1193.34 460.187 C 1186.93 462.916 1181.1 466.164 1178.49 473.037 C 1173.31 486.714 1181.14 508.31 1183.34 522.588 C 1185 533.423 1186.49 544.971 1185.97 555.955 C 1185.24 571.668 1182.53 587.655 1178.48 602.842 C 1172.13 626.657 1139.27 716.264 1119.81 725.33 C 1106.84 731.37 1075.45 722.239 1058.53 722.808 C 1036.47 723.549 1016.43 730.048 996.527 739.113 z"/>
<path transform="translate(0,0)" fill="rgb(0,0,0)" d="M 1430.38 1200.8 C 1434.7 1190.17 1440.25 1175.49 1446.51 1165.34 C 1467.56 1131.12 1486.05 1097.51 1487.9 1056.21 C 1488.29 1047.73 1494.42 1038.05 1505.27 1041.73 C 1525.65 1054.91 1541.92 1092.29 1550.15 1113.88 C 1561.28 1143.73 1569.19 1174.68 1573.75 1206.2 C 1577.75 1197.36 1583.58 1181.91 1592.98 1178.65 C 1615.78 1171.3 1617.51 1205.76 1624.62 1218.94 C 1633.54 1235.45 1640.74 1249.43 1646.85 1266.92 C 1673.98 1344.54 1638.28 1426.04 1557.39 1449.38 C 1554.68 1450.16 1550.12 1451.48 1547.55 1452.6 C 1537.52 1465.74 1486.44 1457.92 1472.67 1452.09 C 1440.03 1447.46 1406.92 1427.09 1387.16 1400.85 C 1365.42 1371.99 1358.37 1339.55 1363.5 1304.12 C 1364.92 1294.3 1367.15 1284.6 1370.18 1275.15 C 1377.63 1251.6 1388.04 1229.76 1399.09 1207.74 C 1405.72 1194.52 1417.87 1181.15 1429.25 1198.95 C 1429.63 1199.56 1430.01 1200.18 1430.38 1200.8 z"/>
<path transform="translate(0,0)" fill="rgb(254,254,254)" d="M 1506.25 1316.48 C 1512.75 1334.87 1512.06 1346.43 1533.68 1347.04 C 1554.54 1367.52 1551.47 1397.49 1540.36 1422.21 C 1534.18 1435.95 1527.33 1448.9 1547.55 1452.6 C 1537.52 1465.74 1486.44 1457.92 1472.67 1452.09 C 1477.13 1449.53 1480.74 1447.37 1482.19 1442.15 C 1487.26 1423.96 1458.94 1398.43 1471.83 1364.12 C 1478.6 1346.1 1496.63 1337.53 1506.25 1316.48 z"/>
<path transform="translate(0,0)" fill="rgb(254,254,254)" d="M 1509.46 1086.73 C 1513.86 1091.92 1520.15 1105.02 1522.89 1111.44 C 1532.24 1133.9 1539.31 1157.24 1544.01 1181.11 C 1547.14 1196.83 1550.32 1236.33 1564.72 1244.89 C 1582.23 1255.29 1591.1 1231.06 1597.19 1218.83 C 1617.78 1262.7 1637.93 1297.56 1625.32 1349.42 C 1617.17 1382.98 1598 1400.11 1569.5 1416.89 C 1570.26 1414.22 1570.9 1411.51 1571.44 1408.78 C 1577.27 1378.45 1571.89 1328.62 1534.77 1321.66 C 1529.81 1305.91 1520.63 1280.39 1506.29 1270.71 C 1479.77 1266.46 1489.9 1308.03 1477.76 1317.52 C 1442.72 1344.92 1437.25 1373.88 1449.87 1419.14 C 1423.38 1405.44 1404.16 1387.3 1393.47 1358.8 C 1377.27 1315.6 1395.67 1273.79 1413.89 1234.75 C 1415.79 1245.86 1420.88 1266.58 1436.5 1258.44 C 1443.91 1254.96 1445.6 1242.42 1446.66 1234.94 C 1452.89 1190.91 1483.53 1158.18 1499.76 1118.08 C 1504.05 1107.48 1506.74 1097.93 1509.46 1086.73 z"/>
</svg>