<svg version="1.1" xmlns="http://www.w3.org/2000/svg" style="display: block;" viewBox="290.667 493.333 1262.667 1024" width="1262.667" height="1024" preserveAspectRatio="none">
<path transform="translate(0,0)" fill="rgb(0,0,0)" d="M 1015.85 518.178 C 1045.78 515.803 1063.66 529.334 1072.77 557.434 C 1098.31 636.261 1059.71 720.968 1026.4 791.249 C 1042.21 806.057 1052.72 814.827 1065.4 833.006 C 1120.99 912.718 1086.41 1011.95 1047.47 1090.5 C 969.669 1247.44 846.318 1386.19 682.249 1454.51 C 606.493 1486.11 519.757 1501.84 438.173 1486.81 C 401.223 1480.91 344.967 1464.46 321.533 1435.01 C 307.688 1417.61 316.833 1384.04 336.578 1376.65 C 357.793 1368.71 381.892 1366.99 404.152 1359.68 C 485.729 1333.73 556.886 1282.4 607.257 1213.18 C 641.749 1166.56 670.425 1108.07 689.707 1053.4 C 700.675 1021.75 710.404 989.681 718.87 957.273 C 736.431 892.339 752.68 813.476 813.281 776.728 C 856.413 750.574 892.077 742.593 940.553 752.925 C 959.251 715.842 975.079 681.681 981.122 639.508 C 986.255 603.681 962.089 575.412 980.681 542.66 C 988.745 528.455 1000.88 522.119 1015.85 518.178 z M 602.753 1447.66 C 774.777 1402.17 906.898 1275 994.019 1124.12 C 1025.17 1070.17 1062.51 992.413 1062.33 929.501 C 1045.34 919.695 1029.37 903 1008.68 908.007 C 989.343 912.688 975.011 936.004 953.482 924.618 C 943.231 919.134 938.371 897.365 931.974 886.717 C 923.573 872.73 919.824 868.335 907.09 858.252 C 890.293 844.954 874.246 845.957 856.387 837.075 C 845.609 831.715 830.593 816.738 818.682 813.648 C 773.96 850.753 760.953 922.964 745.821 977.937 C 737.738 1008.37 728.321 1038.43 717.599 1068.03 C 658.692 1228.67 562.494 1353.08 394.268 1394.87 C 381.27 1398.1 366.954 1399.47 354.318 1404.18 C 334.366 1413.85 364.286 1429.39 372.566 1433.05 C 445.518 1465.3 526.347 1466.57 602.753 1447.66 z M 847.224 793.227 C 872.495 811.778 872.591 812.169 902.416 820.159 C 923.156 825.716 951.329 857.36 962.136 876.496 C 964.755 882.356 967.624 888.499 970.074 894.394 C 1001.63 871.845 1024.28 872.846 1057.54 890.295 C 1053.19 873.326 1045.27 857.484 1034.29 843.833 C 1028.83 837.029 1022.82 830.69 1016.31 824.883 C 1009.62 818.897 989.675 806.292 989.849 798.644 C 991.171 787.08 999.431 772.865 1004.26 762.407 C 1029.55 707.703 1057.59 646.584 1046.41 584.869 C 1043.37 568.062 1039.65 547.409 1018.15 550.137 C 999.183 562.44 1006.34 579.231 1010.42 597.69 C 1021.93 649.761 998.121 705.296 976.661 751.962 C 970.026 766.391 957.741 791.297 938.764 784.58 C 905.979 775.392 878.228 779.598 847.224 793.227 z"/>
<path transform="translate(0,0)" fill="rgb(0,0,0)" d="M 1349.45 946.009 C 1362.09 945.859 1371.23 960.827 1377.3 970.423 C 1410.21 1022.46 1423.61 1085.85 1434.99 1145.51 C 1439.25 1133.12 1442.12 1117.28 1451.05 1107.42 C 1456.31 1101.61 1467.79 1101.41 1472.44 1108.01 C 1479.79 1118.45 1483.71 1132.4 1489.63 1143.75 C 1514.69 1191.83 1535.9 1244.26 1527.59 1299.61 C 1522.19 1338.73 1504.18 1374.34 1471.55 1398.23 C 1455 1410.34 1419.81 1427.1 1397.78 1424.67 C 1395.09 1424.37 1392.28 1422.51 1390.81 1420.12 C 1383.88 1408.81 1396.09 1398.13 1400.61 1388.06 C 1404.09 1380.32 1406.24 1374.68 1407.73 1366.47 C 1411.74 1344.27 1405.98 1323.19 1393.5 1304.77 C 1375.11 1306.4 1370.93 1303.19 1363.71 1286.2 C 1361.01 1276.93 1358.14 1267.71 1355.1 1258.54 C 1350.66 1270.58 1346.57 1280.19 1338.25 1290.05 C 1328.18 1301.98 1318.19 1307.55 1312.15 1322.81 C 1301.23 1349.01 1309.85 1376.13 1321.61 1400.23 C 1325.26 1407.7 1326.66 1421.44 1316.53 1424.15 C 1302.61 1427.88 1278.66 1417.08 1266.79 1411 C 1231.24 1392.79 1201.79 1361.09 1190.09 1322.58 C 1167.03 1254.44 1201.61 1191.99 1232.57 1133.27 C 1236.76 1125.33 1245.47 1112.45 1256.72 1119.32 C 1262.7 1122.98 1264.38 1126.97 1265.98 1133.64 L 1266.3 1135.03 C 1283.81 1080.68 1321.28 1038.92 1333.26 983.001 C 1336.5 967.914 1333.72 952.51 1349.45 946.009 z M 1246.7 1166.53 C 1223.26 1212.16 1199.5 1259.91 1216.63 1311.66 C 1229.63 1350.91 1256.26 1377.75 1293.99 1393.69 C 1281.72 1364.17 1279.64 1340.03 1291.01 1309.5 C 1299.98 1285.42 1318.94 1280.16 1329.26 1257.03 C 1336.44 1240.93 1332.97 1203.15 1359.59 1215.55 C 1373.11 1228.5 1382.73 1258.51 1388.78 1276.56 C 1423.32 1279.86 1435.62 1330.72 1432.28 1359.68 C 1430.82 1372.31 1426.77 1383.19 1421.74 1394.78 C 1505.66 1360.61 1518.13 1272.37 1484.2 1196.82 C 1476.94 1180.65 1469.67 1164.67 1461.67 1148.82 C 1456.76 1161.73 1452.72 1174.23 1439.35 1181 C 1426.67 1187.42 1416.53 1174.77 1413.3 1163.59 C 1407.72 1144.26 1404.33 1123.72 1400.23 1103.9 C 1394.19 1074.44 1385.01 1045.7 1372.83 1018.2 C 1370.7 1013.33 1361.74 994.498 1358.53 990.759 C 1343.3 1050.22 1307.95 1088.71 1288.66 1145.54 C 1284.04 1159.17 1281.87 1176 1276.77 1188.27 C 1271.73 1200.36 1253.92 1198.64 1249.97 1185.05 C 1247.64 1177.07 1247.25 1174.44 1246.7 1166.53 z"/>
</svg>