<svg version="1.1" xmlns="http://www.w3.org/2000/svg" style="display: block;" viewBox="305.333 216 1436 1465.333" width="1436" height="1465.333" preserveAspectRatio="none">
<path transform="translate(0,0)" fill="rgb(0,0,0)" d="M 885.142 366.2 C 907.866 365.406 914.391 375.066 916.582 396.378 C 929.015 517.317 964.01 632.319 1035.38 731.977 C 1108.38 835.069 1214.46 910.082 1335.99 944.555 C 1365.17 952.521 1396.26 958.121 1426.47 961.275 C 1455.45 964.299 1459.28 1000.26 1433.49 1010.02 C 1427.84 1012.16 1413.85 1012.92 1407.16 1013.89 C 1395.55 1015.64 1384.01 1017.83 1372.57 1020.46 C 1307.43 1034.84 1245.6 1061.38 1190.3 1098.68 C 1061.12 1187.01 968.549 1319.37 929.896 1471.01 C 923.899 1493.77 919.458 1516.9 916.605 1540.26 C 914.891 1553.49 913.855 1567.08 911.797 1580.21 C 910.655 1587.49 905.854 1591.65 899.82 1595.5 C 874.487 1599.29 868.587 1589.48 866.483 1565.83 C 865.564 1555.49 863.954 1543.08 862.304 1532.82 C 859.546 1516.36 856.387 1499.98 852.83 1483.67 C 841.105 1432.57 823.264 1383.06 799.693 1336.22 C 713.72 1165.48 557.844 1035.44 365.988 1012.28 C 353.977 1010.83 341.364 1008.7 335.824 996.012 C 330.171 984.177 337.632 966.432 350.946 963.42 C 367.01 959.785 384.946 958.317 401.557 955.133 C 439.523 948.05 476.607 936.865 512.158 921.775 C 682.016 849.836 796.172 697.508 841.939 521.505 C 848.245 497.317 853.465 472.859 857.586 448.205 C 859.936 433.915 861.509 419.289 863.644 404.96 C 866.421 386.316 865.621 373.871 885.142 366.2 z M 462.917 986.829 C 615.907 1030.31 744.115 1143.55 820.773 1281.22 C 845.696 1325.52 865.906 1372.31 881.07 1420.83 C 882.406 1425.03 888.905 1449.95 890.903 1451.12 C 949.859 1240.89 1104.44 1049.36 1319.17 987.015 C 1291.85 978.482 1267.29 970.446 1241.11 958.642 C 1117.46 901.811 1016.32 805.326 953.74 684.487 C 928.343 636.032 908.811 583.661 894.915 530.827 C 893.285 524.629 892.084 518.671 890.035 512.564 C 846.491 685.394 753.059 836.565 597.753 929.362 C 558.137 953.033 508.003 975.853 462.917 986.829 z"/>
<path transform="translate(0,0)" fill="rgb(0,0,0)" d="M 1517.03 1258.27 C 1526.83 1258.05 1540.73 1260.82 1543.69 1270.68 C 1550.85 1294.58 1554.57 1317.21 1563.62 1340.92 C 1581.27 1387.09 1616.7 1411.16 1662.69 1425.45 C 1674.47 1429.11 1687.37 1430.47 1698.86 1434.91 C 1711.38 1440.37 1715.93 1456.51 1709.32 1467.92 C 1701.66 1481.12 1686.84 1480.55 1674.07 1483.78 C 1609.53 1500.07 1568.98 1536.09 1552.63 1601.43 C 1548.86 1614.34 1547.58 1630.92 1542.61 1641.63 C 1539.87 1647.53 1531.8 1651.57 1525.21 1653.05 C 1496.08 1653.67 1498.49 1629.47 1492.71 1607.67 C 1488.69 1592.37 1483.19 1577.51 1476.29 1563.28 C 1453.3 1516.72 1423.04 1501.33 1374.26 1485.01 C 1365.61 1482.02 1356.3 1481.88 1347.69 1478.75 C 1333.53 1473.6 1327.44 1459.52 1333.73 1445.82 C 1340.4 1431.27 1357.8 1432.17 1370.97 1428.65 C 1378.17 1426.72 1385.38 1424.42 1392.36 1421.75 C 1451.7 1399.47 1474.62 1368.51 1491.01 1308.19 C 1494.31 1296.06 1495.65 1282.13 1500.03 1271.01 C 1502.65 1264.38 1510.6 1260.65 1517.03 1258.27 z M 1423.44 1456.37 C 1461.19 1473.19 1487.76 1491.28 1508.99 1529.09 C 1511.52 1533.59 1519.75 1553.77 1522.05 1556.17 C 1541.92 1509.2 1565.79 1478.81 1614.78 1458.98 C 1616.74 1458.19 1618.7 1457.41 1620.67 1456.64 C 1583.05 1440.34 1556.19 1421.6 1534.87 1384.62 C 1532.43 1380.38 1523.66 1359.71 1521.71 1357.71 C 1502.39 1403.37 1476.19 1434.91 1429.02 1454.15 C 1427.17 1454.9 1425.31 1455.65 1423.44 1456.37 z"/>
<path transform="translate(0,0)" fill="rgb(0,0,0)" d="M 1378.15 245.248 C 1407.39 243.444 1405.29 267.475 1410.35 287.144 C 1427.03 351.94 1460.82 389.701 1525.65 408.233 C 1539.21 412.108 1560.95 413.998 1567.22 428.438 C 1569.86 434.665 1569.88 441.687 1567.3 447.934 C 1560.28 464.441 1543.65 462.725 1528.77 467.3 C 1520.78 469.758 1513.47 472.573 1505.73 475.604 C 1450.78 497.131 1430.41 526.861 1412.83 582.127 C 1408.94 594.359 1408.01 607.822 1403.25 619.534 C 1400.56 626.127 1393.75 629.229 1387.41 631.49 C 1383.01 631.8 1378.19 631.589 1374.02 630.096 C 1368.67 628.128 1364.21 624.291 1361.47 619.294 C 1357.94 612.813 1356.66 598.77 1354.48 590.6 C 1350.83 577.121 1346.16 563.942 1340.5 551.177 C 1313.48 491.45 1271.9 476.217 1211.43 460.587 C 1198.03 457.124 1193.06 438.551 1198.84 427.386 C 1205.6 414.323 1235.59 409.66 1249.22 405.188 C 1306.69 386.607 1335.9 351.248 1352.04 293.934 C 1357.84 273.319 1355.95 252.517 1378.15 245.248 z M 1283.19 438.55 C 1337.46 462.287 1358.55 484.692 1382.68 538.235 C 1403.06 489.196 1428.23 460.357 1478.47 439.829 C 1479.62 439.354 1480.78 438.907 1481.95 438.488 C 1437.72 419.112 1407.54 393.875 1388.15 349.156 C 1386.64 345.695 1384.16 339.701 1382.39 336.686 C 1361.31 387.876 1334.1 416.172 1283.19 438.55 z"/>
</svg>