<svg version="1.1" xmlns="http://www.w3.org/2000/svg" style="display: block;" viewBox="142.667 500 1776 1024" width="1776" height="1024" preserveAspectRatio="none">
<path transform="translate(0,0)" fill="rgb(0,0,0)" d="M 909.687 535.34 C 941.595 535.352 969.429 560.825 997.598 574.986 C 1047.99 600.318 1101.31 613.48 1153.24 634.288 C 1159.56 637.793 1166.11 645.733 1168.56 652.178 C 1179.12 679.983 1153.34 711.629 1139 733.435 C 1169.12 743.952 1195.29 752.012 1225.71 764.113 C 1325.29 804.001 1419.34 856.503 1505.56 920.332 C 1564.89 828.235 1657.04 736.243 1763.41 701.809 C 1790.6 693.008 1838.19 680.222 1864.62 694.503 C 1873.21 699.141 1879.15 706.74 1881.68 716.154 C 1897.52 775.119 1790.28 972.932 1756.84 1031.42 C 1770.4 1054.21 1785.07 1076.23 1797.98 1099.44 C 1822.53 1143.59 1886.08 1271.31 1882.36 1317.48 C 1881.49 1328.24 1876.8 1337.72 1868.35 1344.53 C 1851.2 1358.36 1823.97 1357.76 1803.33 1355.31 C 1706.95 1343.84 1616.51 1272.47 1553.15 1203.16 C 1536.33 1184.77 1521.08 1165.09 1505.72 1145.49 C 1486.79 1158.38 1467.7 1171.03 1448.46 1183.45 C 1317.34 1265.79 1213.51 1319.71 1060.73 1355.93 C 1058.31 1391.98 1038.65 1445.77 1012.87 1471.9 C 997.133 1487.85 977.998 1489.46 956.665 1489.26 C 890.219 1488.66 801.762 1425.57 756.982 1379.33 C 594.79 1363.7 446.624 1322.24 313.416 1223.24 C 268.882 1190.14 191.264 1116.55 178.422 1059.07 C 171.117 1026.36 210.506 971.382 231.481 944.951 C 353.486 791.205 545.459 718.514 734.631 695.065 C 762.106 651.749 808.094 607.517 844.514 571.472 C 862.017 554.149 884.555 538.165 909.687 535.34 z M 606.214 762.859 C 720.885 948.407 727.386 1129.45 601.623 1310.49 C 657.158 1324.42 713.858 1333.21 771.005 1336.75 C 993.68 1351.62 1189.92 1288.73 1379.84 1176.76 C 1404.27 1162.36 1428.36 1147.37 1452.06 1131.79 C 1461.49 1125.53 1472.9 1118.32 1481.96 1111.78 C 1513.92 1088.73 1519.41 1093.65 1541.93 1124.25 C 1583.51 1180.73 1637.77 1235.34 1698.54 1271.87 C 1738.48 1295 1795.6 1320.2 1842.43 1311.84 C 1828.7 1245.93 1783.54 1159.78 1750.07 1100.66 C 1738.64 1080.49 1722.54 1058.25 1713.38 1037.32 C 1711.44 1032.89 1714.94 1023.44 1717.22 1018.87 C 1726.07 1001.11 1738.07 981.85 1747.05 964.405 C 1777.19 905.851 1834.85 795.738 1843.73 731.207 C 1733.74 725.109 1617.31 832.915 1557.32 915.832 C 1551.51 923.803 1545.94 931.948 1540.63 940.257 C 1530.15 956.772 1519.56 981.343 1495.09 965.263 C 1484.02 957.986 1473.63 948.857 1462.84 940.997 C 1443.89 927.375 1424.45 914.441 1404.57 902.22 C 1248.5 805.388 1076.62 740.887 891.791 732.296 C 870.103 731.288 847.464 730.346 825.788 731.555 C 751.619 733.303 677.917 743.81 606.214 762.859 z M 1015.68 1365.37 C 946.575 1376.31 890.632 1383.64 819.667 1381.79 C 834.874 1392.73 846.258 1400.78 862.5 1410.26 C 897.088 1431.25 941.791 1454.05 983.19 1442.61 C 993.376 1432.4 1025.72 1374.67 1018.42 1365.13 L 1015.68 1365.37 z M 909.585 578.024 C 872.155 592.444 812.714 660.113 785.289 690.456 C 874.007 686.28 937.593 689.604 1025.74 705.609 C 1050.91 710.317 1072.89 715.403 1097.74 721.625 C 1109.22 704.726 1121.64 686.59 1132.1 669.126 C 1087.09 653.577 1041.11 640.581 997.273 621.154 C 983.125 614.81 969.389 607.583 956.149 599.513 C 943.993 592.172 923.505 576.891 909.585 578.024 z M 559.456 1298.85 C 628.969 1203.24 666.381 1097.45 647.191 978.632 C 636.097 909.941 605.682 833.047 565.165 776.57 C 562.964 775.738 563.941 775.659 561.979 776.02 C 430.04 819.853 295.378 902.806 227.817 1028.69 C 214.644 1053.23 225.093 1064.84 239.014 1085.81 C 276.907 1142.87 330.593 1185.97 388.228 1221.89 C 444.636 1255.31 497.458 1277.35 559.456 1298.85 z"/>
<path transform="translate(0,0)" fill="rgb(0,0,0)" d="M 871.037 986.428 C 957.877 981.887 978.275 1025.37 933.533 1095.71 C 918.66 1119.09 867.256 1170.44 837.526 1166.54 C 832.231 1165.87 827.438 1163.07 824.263 1158.78 C 820.824 1153.96 819.614 1147.9 820.939 1142.13 C 824.511 1126.83 842.412 1125.12 855.512 1116.73 C 882.759 1100.64 910.708 1061.98 917.527 1031.15 C 887.583 1021.67 844.875 1028.67 814.256 1038.01 C 800.401 1042.24 775.471 1059.51 767.44 1029.52 C 764.483 1018.47 776.132 1009.02 785.907 1004.8 C 812.71 993.229 841.868 988.543 871.037 986.428 z"/>
<path transform="translate(0,0)" fill="rgb(0,0,0)" d="M 442.43 938.861 C 465.784 934.85 487.946 950.599 491.838 973.973 C 495.731 997.347 479.869 1019.43 456.475 1023.2 C 433.249 1026.95 411.36 1011.23 407.496 988.018 C 403.631 964.812 419.243 942.843 442.43 938.861 z"/>
</svg>