<svg version="1.1" xmlns="http://www.w3.org/2000/svg" style="display: block;" viewBox="394.667 380 1248 1212" width="1248" height="1212" preserveAspectRatio="none">
<path transform="translate(0,0)" fill="rgb(0,0,0)" d="M 1010.81 405.206 C 1054.36 399.831 1065.42 431.668 1079.99 463.391 L 1102.78 512.618 L 1185.96 693.3 C 1196.47 715.926 1207.44 741.675 1218.47 763.621 C 1245.27 765.37 1279.86 770.487 1307.19 773.852 L 1456.96 792.65 L 1533.07 802.474 C 1555.33 805.32 1586.28 805.899 1602.88 822.384 C 1612.73 832.179 1618.15 845.578 1617.88 859.47 C 1617.13 886.491 1597.9 899.144 1580.04 916.305 C 1561.4 934.203 1542.65 951.978 1523.78 969.63 L 1339.4 1144.32 C 1343.45 1169.19 1348.91 1195.73 1353.57 1220.67 L 1389.22 1409.97 L 1400.75 1472.19 C 1404.87 1494.5 1412.17 1519.38 1400.95 1540.57 C 1394.51 1552.79 1383.27 1561.77 1369.94 1565.37 C 1342.65 1572.71 1320.75 1554.42 1298.26 1540.99 L 1233.81 1502.8 C 1163.61 1461.83 1093.21 1421.22 1022.6 1380.96 C 1020.21 1379.79 1019.35 1378.69 1017.02 1379.95 C 1009.63 1383.98 1001.73 1388.56 994.486 1392.71 L 940.023 1424.23 L 764.978 1526.05 C 752.628 1533.29 740.43 1540.86 728.048 1548.04 C 709.186 1558.99 693.894 1570.79 670.635 1566.31 C 656.94 1563.67 644.946 1555.48 637.488 1543.7 C 631.86 1534.94 629 1524.69 629.281 1514.28 C 629.626 1503.65 634.063 1482.21 636.11 1471.29 L 649.543 1399.69 L 675.255 1265.16 C 682.798 1225.09 689.961 1183.92 698.487 1144.14 L 510.416 967.752 L 460.085 920.508 C 443.35 904.801 422.784 890.329 419.476 866.476 C 417.491 852.732 421.25 838.778 429.868 827.891 C 446.646 806.946 475.469 806.867 500.151 803.748 L 570.727 794.738 C 653.49 783.798 736.332 773.455 819.245 763.711 C 831.08 740.299 843.101 712.378 854.408 688.175 L 927.387 530.866 C 937.354 508.934 947.45 487.06 957.674 465.247 C 970.74 437.264 977.126 412.928 1010.81 405.206 z M 1019.98 1331.48 C 1034.33 1335.5 1077.27 1362.4 1092.67 1371.28 C 1150.99 1404.2 1209 1437.63 1266.71 1471.58 C 1284.03 1481.7 1301.28 1491.93 1318.46 1502.27 C 1328.01 1508.03 1350.48 1524.15 1360.1 1522.36 C 1362.45 1520.67 1365.24 1518.14 1364.89 1515.09 C 1362.88 1497.76 1357.74 1473.88 1354.66 1457.15 L 1312.57 1233.17 L 1300.22 1168.94 C 1298.16 1157.94 1294.82 1142.37 1294.27 1131.63 C 1299.47 1119.95 1316.88 1105.63 1326.54 1096.52 L 1371.71 1053.64 L 1526.16 907.357 C 1540.7 893.622 1560.56 875.931 1573.95 860.868 C 1575.84 858.739 1574.64 857.017 1573.81 854.708 C 1568.38 849.136 1545.66 848.061 1536.83 846.975 L 1474.83 839.239 L 1272.04 813.734 C 1262.13 812.524 1192.03 804.914 1189.94 801.866 C 1174.61 779.496 1156.61 736.095 1144.75 710.649 C 1114.9 646.381 1085.42 581.948 1056.29 517.351 L 1036.05 472.814 C 1032.93 465.981 1029.55 457.947 1025.64 451.498 C 1023.64 448.212 1019.18 448.025 1015.53 447.92 C 1009.56 453.521 986.324 506.469 981.317 517.289 L 889.69 715.539 C 882.531 730.631 875.464 745.767 868.488 760.944 C 864.322 770.126 852.367 800.545 845.138 802.441 C 820.165 808.991 779.972 812.502 754.681 815.598 L 567.362 839.323 L 507.238 846.876 C 496.409 848.216 484.91 849.472 474.142 851.168 C 467.876 852.154 462.904 853.654 462.178 860.047 C 466.207 871.39 513.258 911.435 525.272 922.611 L 665.174 1053.38 C 688.488 1075.3 712.206 1097.52 735.219 1119.78 C 737.609 1122.09 743.442 1129 743.178 1131.84 C 741.476 1150.07 736.116 1174.96 732.799 1192.39 L 692.211 1403.12 L 679.385 1471.3 C 677.126 1483.39 674.651 1495.76 672.792 1507.89 C 672.171 1513.76 671.262 1519.87 677.408 1523.26 C 679.826 1524.6 680.957 1523.8 683.297 1522.59 C 706.234 1510.71 729.178 1496 751.378 1482.86 C 808.564 1449.11 866.012 1415.81 923.717 1382.96 C 950.648 1367.51 977.559 1351.74 1004.67 1336.6 C 1009.92 1333.67 1013.98 1332.05 1019.98 1331.48 z"/>
</svg>