<svg version="1.1" xmlns="http://www.w3.org/2000/svg" style="display: block;" viewBox="288 246.667 1514.667 1522.667" width="1514.667" height="1522.667" preserveAspectRatio="none">
<path transform="translate(0,0)" fill="rgb(0,0,0)" d="M 1503.2 587.411 C 1506.71 587.149 1510.23 587.047 1513.75 587.104 C 1591.29 587.681 1659.69 641.613 1672.32 719.8 C 1675.74 740.979 1674.55 767.872 1674.55 789.683 L 1674.53 902.038 L 1674.52 1159.24 C 1674.48 1198.45 1675.14 1238.81 1674.44 1277.89 C 1677.64 1280.28 1680.77 1282.77 1683.84 1285.34 C 1734.74 1327.92 1766.47 1389.11 1771.93 1455.24 C 1778.4 1523.7 1757.34 1591.91 1713.41 1644.8 C 1665.32 1702.49 1601.03 1732.05 1527.24 1738.68 C 1513.25 1739.35 1499.23 1738.92 1485.3 1737.4 C 1416.48 1729.56 1350.12 1694.62 1307.19 1639.91 C 1264.14 1586.01 1244.58 1517.07 1252.93 1448.6 C 1261.5 1379.23 1296.6 1320.54 1351.32 1277.76 L 1351.26 898.538 L 1351.22 792.775 C 1351.22 771.415 1350.34 740.044 1353.71 720.107 C 1358.36 692.233 1370.52 666.156 1388.9 644.686 C 1418.74 609.768 1457.71 590.981 1503.2 587.411 z M 1523.24 1686.68 C 1583.12 1682.05 1633.36 1658.79 1672.81 1612.64 C 1708.33 1571.05 1725.81 1517.02 1721.37 1462.5 C 1717.08 1408.31 1691.01 1358.17 1649.12 1323.52 C 1640.08 1316.04 1623.97 1308.56 1623.74 1298.15 C 1623.39 1282.73 1623.5 1266.67 1623.5 1251.22 L 1623.52 1156.35 L 1623.59 861.765 L 1623.62 788.73 C 1623.64 739.235 1627.65 702.235 1586.81 666.274 C 1564.79 646.954 1535.96 637.235 1506.74 639.279 C 1506.38 639.312 1506.03 639.346 1505.68 639.38 C 1473.11 642.846 1447.3 654.512 1426.23 680.373 C 1414.51 694.865 1406.67 712.102 1403.44 730.461 C 1400.93 745.13 1401.73 769.84 1401.75 785.598 L 1401.85 869.603 L 1401.81 1190.32 L 1401.84 1265.02 C 1401.85 1275.22 1402.18 1288.58 1401.41 1298.62 C 1400.75 1307.08 1385.38 1315.14 1379.46 1319.98 C 1374.49 1324.04 1369.56 1328.52 1364.71 1333.2 C 1319.12 1376.43 1296.48 1438.56 1303.56 1500.99 C 1309.38 1555.71 1336.98 1605.79 1380.13 1639.93 C 1420.38 1672.74 1471.39 1689.4 1523.24 1686.68 z"/>
<path transform="translate(0,0)" fill="rgb(0,0,0)" d="M 1504.95 956.226 C 1543.61 953.244 1536.63 987.184 1536.65 1014.11 L 1536.71 1080.37 L 1536.66 1269.84 C 1536.62 1298.81 1535.47 1333.69 1536.38 1362.14 C 1555.46 1366.26 1570.22 1372.3 1586.04 1384.05 C 1611.51 1402.71 1628.28 1430.96 1632.47 1462.26 C 1637.22 1494.44 1628.88 1527.17 1609.32 1553.15 C 1586.93 1582.57 1559 1596.26 1523.12 1601.02 C 1497.28 1601.92 1476.67 1598.48 1453.66 1585.74 C 1425.17 1570.07 1404.18 1543.61 1395.4 1512.31 C 1386.73 1481.05 1390.92 1447.62 1407.06 1419.47 C 1424.63 1389.13 1452.69 1371.38 1485.99 1362.58 C 1485.14 1284.07 1485.95 1203.96 1485.94 1125.32 L 1485.84 1034.89 C 1485.8 1018.27 1485.64 1001.64 1485.86 985.031 C 1486.06 969.4 1490.89 962.427 1504.95 956.226 z"/>
<path transform="translate(0,0)" fill="rgb(0,0,0)" d="M 914.339 276.134 C 926.327 275.914 940.602 282.373 941.559 295.817 C 942.971 315.671 942.285 336.415 942.26 356.39 L 942.305 483.17 C 977.891 451.967 1012.26 419.425 1047.95 387.97 C 1062.82 374.867 1080.39 353.2 1101.58 373.396 C 1109.49 380.934 1110.71 398.201 1102.56 406.194 C 1085.84 422.598 1067.72 438.184 1050.23 453.957 L 942.225 551.637 C 941.41 594.717 942.226 640.966 942.214 684.231 L 942.322 894.936 L 1141.22 778.356 L 1193 748.376 C 1211.08 737.875 1239.16 715.449 1254.78 741.213 C 1271.35 768.547 1234.86 783.371 1217.49 793.422 L 1164.65 824.098 L 970.688 937.84 C 989.662 947.189 1010.91 959.862 1029.46 970.38 L 1121.94 1022.41 C 1151.57 1038.54 1181 1055.03 1210.23 1071.87 C 1223.49 1079.38 1249.66 1089.71 1255.74 1103.99 C 1261.1 1118.39 1254.72 1133.24 1240 1137.88 C 1224.67 1142.71 1207.45 1129.04 1193.87 1121.39 L 1139 1090.46 C 1073.62 1053.33 1007.98 1016.68 942.081 980.501 C 942.711 1018.95 942.196 1058.89 942.204 1097.43 L 942.067 1323.42 C 954.03 1335.7 973.042 1351.81 986.202 1363.61 L 1062.91 1432.6 C 1075.88 1444.25 1090.22 1455.85 1102.22 1468.04 C 1117.23 1483.29 1106.37 1510.01 1085.12 1511.47 C 1072.49 1512.83 1063.2 1502.23 1054.21 1494.36 C 1016.6 1461.41 980.098 1426.57 942.106 1394.08 L 942.206 1519.26 C 942.253 1540.47 943.284 1563.4 941.588 1584.37 C 939.515 1609.98 896.018 1610.57 893.365 1583.92 C 891.565 1565.84 892.852 1545.42 892.863 1527.04 L 892.79 1395.06 C 865.037 1420.41 836.325 1445.11 808.318 1470.3 C 793.903 1482.11 778.566 1498.53 763.538 1509.14 C 747.837 1520.21 722.54 1504.93 725.379 1485.42 C 726.007 1481.1 726.829 1475.96 729.811 1472.81 C 746.946 1454.69 766.819 1439.04 785.04 1422.01 C 821.23 1390.19 856.654 1356.81 892.866 1325.29 C 892.113 1287.14 892.794 1246.27 892.788 1207.89 L 892.793 982.785 C 824.726 1020.13 755.381 1061.88 687.852 1100.5 L 612.76 1143.49 C 602.04 1149.68 590.509 1156.24 579.889 1162.76 C 577.143 1164.45 577.541 1165.44 577.063 1168.23 L 553.318 1299.18 C 549.293 1322 546.28 1345.18 541.009 1367.7 C 537.958 1380.73 525.373 1387.86 512.49 1385.91 C 505.468 1384.9 499.158 1381.08 495.012 1375.32 C 492.632 1371.95 490.435 1366.73 490.749 1362.62 C 492.138 1344.41 496.714 1323.94 499.985 1305.8 C 506.189 1270 512.58 1234.22 519.158 1198.48 L 406.71 1261.89 C 389.062 1271.88 371.148 1282.6 353.175 1291.68 C 341.847 1297.41 328.261 1290.69 321.911 1280.77 C 316.031 1271.58 317.726 1255.7 326.551 1249.68 C 344.79 1237.23 365.159 1226.52 384.401 1215.64 L 493.994 1152.97 C 446.816 1130.51 394.177 1112.81 347.035 1089.8 C 323.574 1078.36 340.017 1035.66 366.402 1043.41 C 388.579 1049.92 411.636 1061.03 433.231 1070.19 L 551.864 1120.17 C 656.821 1058.94 762.115 998.278 867.741 938.202 C 856.996 930.76 838.929 921.118 827.063 914.455 L 765.182 879.463 L 552.653 759.096 C 540.973 762.925 521.628 771.48 509.674 776.319 C 478.021 789.18 446.459 802.263 414.989 815.565 C 398.858 822.373 382.639 830.149 366.085 835.746 C 354.391 839.7 340.569 833.952 335.668 822.31 C 332.909 815.888 332.821 808.631 335.424 802.143 C 340.111 790.729 351.887 786.675 362.605 782.332 C 406.884 764.388 450.688 744.567 494.992 726.783 C 480.854 717.607 460.803 706.982 445.796 698.56 L 370.312 655.892 C 357.019 648.415 342.521 642.148 329.924 633.69 C 312.16 621.526 317.366 595.646 336.981 589.021 C 352.492 583.782 371.734 598.742 385.413 606.191 C 429.991 630.465 473.814 656.984 518.615 680.811 L 500.39 570.842 C 497.407 552.848 493.402 532.342 492.067 514.194 C 491.764 510.081 493.901 504.536 496.232 501.098 C 500.083 495.322 506.148 491.392 512.993 490.236 C 520.072 489.047 527.329 490.821 533.063 495.141 C 543.167 502.694 543.83 514.586 545.578 526.129 C 547.596 539.453 549.556 552.715 551.809 566.007 L 576.392 714.171 C 680.294 775.119 788.924 832.051 892.988 893.616 L 893.001 549.464 L 782.237 452.684 C 765.163 437.84 746.679 422.796 730.55 407.063 C 712.131 389.095 740.115 354.732 761.75 369.01 C 776.664 378.854 792 393.586 805.711 405.455 L 892.958 481.467 L 892.905 364.584 C 892.903 343.856 892.634 323.076 893.259 302.366 C 893.707 287.508 900.385 280.296 914.339 276.134 z"/>
</svg>