<svg version="1.1" xmlns="http://www.w3.org/2000/svg" style="display: block;" viewBox="354.667 224 1342.667 1468" width="1342.667" height="1468" preserveAspectRatio="none">
<path transform="translate(0,0)" fill="rgb(0,0,0)" d="M 1017.28 252.098 C 1030.73 251.519 1046.28 256.073 1048.3 271.673 C 1050.6 289.421 1048.82 308.392 1049.29 326.369 C 1050.51 372.518 1047.48 420.281 1049.77 466.267 L 1140.08 385.73 C 1154.78 372.62 1171.06 357.14 1187.01 345.616 C 1190.84 342.849 1196.75 341.806 1201.49 341.9 C 1208.57 342.054 1215.31 345.018 1220.21 350.139 C 1229.02 359.407 1230.15 376.465 1221.33 386.081 C 1214.58 393.425 1206.15 400.295 1198.6 406.949 L 1158.97 441.843 C 1122.4 474.07 1086.06 507.616 1049.3 539.372 C 1049.18 661.104 1047.78 786.16 1049.44 907.631 C 1115.47 867.668 1183.51 828.233 1250.22 789.288 C 1296.65 761.804 1343.28 734.658 1390.11 707.85 C 1396.29 659.044 1404.57 607.963 1411.79 559.1 L 1418.58 512.675 C 1419.93 503.295 1421.28 494.421 1423.11 485.064 C 1428.58 456.996 1474.4 461.494 1474.38 487.723 C 1474.36 507.176 1469.48 532.504 1466.63 552.297 L 1448.66 675.007 C 1464.22 667.109 1484.82 654.254 1500.01 645.198 L 1584.06 594.908 C 1599.78 585.451 1615.07 575.297 1631.32 566.835 C 1650.91 556.842 1670.53 572.102 1668.3 593.536 C 1666.16 614.126 1651.22 619.295 1635.24 628.642 L 1595.17 652.032 C 1558.01 673.78 1515.89 699.846 1478.33 720.206 C 1490.68 725.818 1507.49 731.803 1520.43 736.857 L 1598.36 767.444 C 1612.04 772.826 1629.88 778.971 1642.01 785.421 C 1659.39 794.665 1658.11 827.632 1638.53 834.661 C 1634.15 836.233 1630.06 837.61 1625.59 836.227 C 1604.36 829.657 1584.1 819.67 1563.26 811.845 C 1514.98 793.115 1466.81 772.956 1418.3 754.957 C 1380.75 775.476 1341.6 799.406 1304.46 821.17 L 1077.34 954.126 C 1108.42 970.786 1144.7 993.282 1175.75 1011.43 L 1335.72 1104.43 C 1365.12 1121.8 1394.68 1138.92 1424.37 1155.79 L 1556.35 1094.13 C 1578.73 1083.62 1601.82 1072.02 1624.79 1063 C 1635.58 1058.76 1650.4 1066.61 1655.34 1077.05 C 1658.67 1084.25 1658.97 1092.49 1656.18 1099.92 C 1654.68 1103.88 1651.31 1109.4 1647.68 1111.54 C 1631.23 1121.25 1611.29 1129.8 1593.86 1137.92 L 1481.98 1189.68 C 1491.35 1194.03 1507 1203.71 1516.41 1209.15 L 1575.66 1243.01 L 1626.7 1271.78 C 1638.93 1278.63 1659.58 1287.16 1664.28 1300.46 C 1666.89 1307.91 1666.31 1316.1 1662.69 1323.11 C 1659.14 1329.83 1652.93 1334.74 1645.58 1336.65 C 1641.7 1337.65 1634.55 1337.95 1631.05 1336.31 C 1613.21 1327.94 1593.48 1315.94 1576.31 1306.24 L 1456.69 1238.74 C 1463.93 1296.07 1480.18 1354.37 1486.48 1411.93 C 1489.82 1442.48 1442.1 1447.42 1435.16 1422.44 C 1429.83 1403.26 1426.46 1377.38 1422.81 1357.11 L 1395.62 1203.01 C 1376.6 1190.82 1352.77 1177.71 1332.92 1166.12 L 1212.99 1096.26 L 1109.99 1035.96 C 1090.79 1024.72 1069.02 1011.41 1049.41 1001.22 L 1049.24 1369.92 C 1092.32 1407.14 1135.1 1444.7 1177.58 1482.6 C 1191.73 1495.29 1207.3 1507.33 1220.57 1520.42 C 1235.54 1536.37 1225.57 1564.61 1203 1566.14 C 1188.49 1567.83 1179.32 1557.2 1169 1548.3 C 1129.08 1513.92 1089.88 1478.27 1049.39 1444.53 L 1049.19 1580.52 C 1049.22 1601.06 1049.93 1623.44 1048.8 1643.93 C 1048.56 1648.2 1045.43 1652.1 1042.83 1655.41 C 1027.09 1668.01 999.102 1664.82 997.068 1642.57 C 995.178 1621.9 996.227 1598.6 996.217 1577.6 L 996.127 1446.12 C 951.243 1484.4 907.056 1525.17 861.685 1562.95 C 858.769 1565.38 851.292 1566.56 847.496 1566.52 C 839.774 1566.49 832.424 1563.2 827.272 1557.45 C 805.849 1533.48 837.757 1511.11 854.186 1497.11 C 901.927 1456.42 947.786 1410.18 996.428 1370.85 L 996.056 1002.88 C 942.343 1032.92 887.176 1066.11 834.166 1097.52 L 659.404 1200.17 C 655.743 1216.07 652.341 1238.23 649.285 1254.74 L 630.089 1358.91 C 627.673 1372.36 622.051 1409.3 618.281 1420.62 C 616.716 1425.39 613.8 1429.6 609.887 1432.75 C 593.047 1446.2 564.891 1433.71 566.053 1413.79 C 567.084 1396.1 572.466 1372.3 575.708 1354.7 L 597.934 1233.98 C 558.803 1256.07 519.808 1278.39 480.948 1300.95 C 460.927 1312.62 440.911 1324.91 420.496 1335.76 C 410.173 1341.25 393.624 1336.09 387.186 1326.18 C 383.076 1319.74 381.787 1311.9 383.621 1304.49 C 384.9 1299.15 388.437 1292.39 392.925 1289.4 C 411.705 1276.9 434.214 1264.83 453.786 1253.51 L 572.607 1183.92 C 560.685 1177.48 540.89 1169.51 527.938 1163.89 L 450.127 1130.25 C 433.796 1123.23 409.782 1117.14 400.494 1101.84 C 389.309 1083.42 411.271 1055.91 429.985 1063.16 C 498.744 1089.77 565.829 1122.05 634.206 1149.7 L 970.984 953.915 C 964.698 949.008 944.846 937.993 937.074 933.428 L 869.67 893.871 L 633.089 755.87 L 499.575 809.297 C 484.747 815.271 443.574 832.881 431.081 836.08 C 425.638 837.47 419.896 837.125 414.659 835.092 C 407.945 832.481 402.849 827.741 400.046 821.071 C 396.981 813.946 396.953 805.879 399.969 798.732 C 401.761 794.53 406.035 788.504 410.132 786.63 C 426.145 779.305 444.223 772.643 460.579 766.146 C 498.011 751.565 535.276 736.56 572.368 721.136 C 531.74 696.705 490.951 672.543 450.003 648.651 C 431.002 637.51 409.721 626.139 392.234 613.63 C 377.227 602.895 380.312 569.388 400.186 564.829 C 405.545 563.599 412.35 563.033 417.266 565.746 C 478.431 599.5 537.457 639.356 598.909 672.547 C 588.626 613.88 578.307 549.93 569.969 490.65 C 567.666 474.278 591.4 459.527 607.813 468.098 C 623.546 476.315 623.103 487.118 626.052 503.42 C 637.747 571.263 647.292 640.105 659.488 707.799 L 996.385 904.466 L 996.163 538.435 C 983.061 525.75 966.364 511.766 952.468 499.429 L 875.739 431.336 C 859.476 417.038 842.092 402.603 826.906 387.246 C 818.311 378.553 817.822 361.724 826.118 352.695 C 831.575 346.755 837.334 342.292 845.784 341.848 C 858.235 340.837 866.578 349.774 875.249 357.35 C 884.4 365.345 893.542 373.587 902.676 381.7 L 996.126 465.027 C 997.265 434.584 993.053 280.522 998.49 267.759 C 1002.2 259.058 1008.95 255.42 1017.28 252.098 z"/>
</svg>