<svg version="1.1" xmlns="http://www.w3.org/2000/svg" style="display: block;" viewBox="317.333 593.333 1466.667 780" width="1466.667" height="780" preserveAspectRatio="none">
<path transform="translate(0,0)" fill="rgb(0,0,0)" d="M 1009.55 623.385 C 1043.1 619.814 1080.84 624.532 1113.8 633.35 C 1218.03 661.228 1272.84 760.341 1243.24 863.805 C 1230.06 909.885 1197.71 939.856 1155.52 962.034 C 1180.85 972.11 1199.6 981.999 1220.01 1000.59 C 1295.58 1069.39 1291.87 1199.99 1223.21 1272.18 C 1179.61 1318.02 1114.4 1341.64 1051.99 1343.29 C 1004.8 1347.25 955.037 1338.64 910.431 1320.06 C 807.276 1277.09 760.169 1158.29 804.811 1056.02 C 824.6 1010.68 864.172 980.491 910.813 963.285 C 896.437 956.129 884.755 949.82 871.893 939.786 C 798.527 882.554 793.625 767.045 851.42 697.062 C 891.837 648.122 947.549 629.032 1009.55 623.385 z M 1042.64 1245.81 C 1080.19 1242.78 1114 1232.58 1139.24 1203.07 C 1152.91 1187.08 1160.28 1169.9 1163.52 1149.41 C 1175.02 1076.8 1120.1 1018.4 1049.16 1012.99 C 1041.24 1012.38 1033.79 1011.69 1025.81 1012.43 C 953.843 1017.02 897.457 1062.62 901.634 1139.22 C 903.266 1169.17 916.037 1195.69 938.809 1215.25 C 969.697 1241.48 1003.7 1246.36 1042.64 1245.81 z M 1040.75 916.259 C 1103.65 912.955 1144.79 873.161 1141.84 808.874 C 1140.63 782.472 1130.87 757.782 1111.17 739.831 C 1089.79 720.109 1048.76 708.315 1020.11 713.391 C 875.086 729.18 894.338 929.01 1040.75 916.259 z"/>
<path transform="translate(0,0)" fill="rgb(0,0,0)" d="M 537.327 633.107 C 551.839 631.839 567.333 632.736 581.717 632.463 C 626.453 631.614 626.894 635.94 626.857 675.376 L 626.785 724.741 L 626.731 880.088 L 626.741 1165.73 C 626.749 1211.54 626.902 1257.52 626.88 1303.34 C 626.877 1308.74 626.562 1320.13 622.975 1323.99 C 616.469 1331.01 607.786 1333.7 598.131 1333.55 C 577.96 1333.1 557.144 1334.51 537.087 1332.74 C 525.506 1330.86 519.688 1323.32 518.81 1311.8 C 517.642 1296.45 518.15 1280.43 518.15 1264.99 L 518.164 1168.5 L 518.134 758.031 L 427.91 814.886 C 404.669 829.467 365.379 864.658 348.274 823.102 C 345.566 816.523 345.606 757.812 350.234 753.895 C 381.571 727.368 423.054 705.042 457.78 682.047 C 472.012 672.622 523.876 637.265 537.327 633.107 z"/>
<path transform="translate(0,0)" fill="rgb(0,0,0)" d="M 1551.02 797.21 C 1555.65 797.008 1561.25 797.264 1565.75 796.966 C 1623.39 793.157 1616.18 806.968 1616.07 857.466 L 1616.06 937.72 C 1648.92 937.301 1683.8 938.483 1715.86 937.874 C 1757.55 935.965 1755.74 947.789 1755.17 984.402 C 1754.99 996.04 1757.2 1015.38 1739.06 1018.49 C 1726.67 1020.62 1707.92 1019.44 1695.12 1019.4 L 1616.05 1019.31 L 1616.08 1101.59 C 1616.11 1115.15 1616.8 1131.51 1615.08 1144.8 C 1614.25 1151.25 1607.78 1155.54 1602.65 1158.84 C 1599.7 1159.61 1597.48 1159.83 1594.38 1159.93 C 1528.67 1162.03 1533.91 1161.15 1533.98 1099.34 L 1534.03 1019.39 C 1506.86 1018.2 1479.24 1020.04 1451.85 1019.23 C 1435.25 1018.37 1398.08 1025.37 1399.07 998.215 C 1399.57 984.162 1395.93 955.595 1404.51 944.925 C 1412.96 934.402 1436.37 938.164 1449.16 937.842 C 1477.12 937.139 1506.14 939.288 1534.09 937.406 C 1534.1 917.653 1531.24 818.463 1536.38 807.897 C 1539.36 801.79 1544.82 799.105 1551.02 797.21 z"/>
</svg>