<svg version="1.1" xmlns="http://www.w3.org/2000/svg" style="display: block;" viewBox="456 637.333 1130.667 850.667" width="1130.667" height="850.667" preserveAspectRatio="none">
<path transform="translate(0,0)" fill="rgb(0,0,0)" d="M 582.281 659.471 C 738.116 657.935 884.148 718.881 953.5 866.411 C 981.445 925.857 1002.6 1021.47 979.725 1084.6 C 999.073 1112.08 1011.45 1131.65 1027.89 1160.54 C 1037.92 1139.79 1048.54 1121.6 1060.8 1102.16 C 1059.84 1099.78 1058.99 1097.35 1058.25 1094.89 C 1037.62 1026.57 1060.88 920.425 1095.25 858.037 C 1146.06 765.787 1222 711.187 1321.46 681.939 C 1384.42 663.792 1450.15 657.266 1515.44 662.679 C 1527.87 663.585 1544.18 664.021 1555.28 669.746 C 1568.23 676.419 1564.87 694.083 1563.62 706.243 C 1553.96 799.971 1529.1 892.847 1475.5 971.42 C 1455.74 1000.75 1432.05 1027.22 1405.08 1050.09 C 1313.53 1126.5 1206.83 1141.16 1091.99 1130.72 C 1076.6 1153.85 1058.07 1187.4 1050.59 1214.03 C 1047.97 1223.35 1048.78 1255.15 1048.77 1265.83 L 1048.79 1387.73 C 1048.86 1407.23 1049.73 1429 1048.42 1448.23 C 1046.85 1471.03 1008.45 1472.78 1008.37 1444.38 C 1008.32 1425.12 1008.3 1404.84 1008.33 1385.52 L 1008.51 1261.76 C 1008.51 1254.47 1009.06 1219.64 1007.36 1214.82 C 995.021 1179.7 970.145 1144.37 949.318 1114.28 C 936.549 1116.23 923.719 1117.74 910.847 1118.82 C 809.813 1126.66 708.71 1099.69 630.904 1033.01 C 535.779 951.495 487.383 823.428 478.7 700.738 C 478.102 692.286 477.861 681.295 484.047 674.677 C 496.715 661.123 562.884 660.34 582.281 659.471 z M 1091.35 1058.68 C 1145.5 986.108 1211.53 924.758 1285.68 873.053 C 1294.75 866.729 1316.13 850.619 1326.19 848.803 C 1332.12 847.709 1338.24 849.23 1342.97 852.975 C 1352.19 860.313 1354.38 873.725 1346.03 882.588 C 1339.76 889.239 1330.15 893.693 1322.47 898.654 C 1244.21 951.682 1174.66 1013.46 1119.51 1090.83 C 1221 1096.04 1310.99 1077.73 1389.22 1008.26 C 1459.1 946.22 1495.19 859.879 1513.74 770.043 C 1517.15 753.367 1522.42 723.5 1523.21 706.838 C 1523.25 706.004 1523.28 705.169 1523.29 704.334 C 1498.87 701.253 1474.22 700.281 1449.63 701.43 C 1345.19 707.806 1243.89 738.421 1171.55 818.574 C 1116.96 879.061 1086.07 973.081 1091.04 1054.25 C 1091.13 1055.73 1091.23 1057.2 1091.35 1058.68 z M 520.815 705.28 C 521.851 728.034 526.959 756.739 532.124 778.904 C 550.672 858.512 587.488 936.407 648.548 992.187 C 717.05 1054.77 803.817 1082.09 895.732 1077.68 C 904.581 1077.2 913.421 1076.56 922.246 1075.75 C 870.466 1011.3 818.187 955.124 749.59 907.769 C 739.059 900.499 718.728 886.102 707.594 880.419 C 700.264 876.438 695.524 873.943 692.839 865.257 C 691.033 859.442 691.646 853.145 694.539 847.788 C 706.324 825.697 732.574 846.976 745.604 855.153 C 825.019 904.989 890.504 969.726 948.771 1042.69 C 950.514 952.853 923.095 867.19 859.544 801.145 C 792.987 731.974 698.713 702.119 604.48 699.81 C 597.893 699.649 575.772 699.572 569.986 700.42 C 554.285 701.491 536.364 702.707 520.815 705.28 z"/>
</svg>