<svg version="1.1" xmlns="http://www.w3.org/2000/svg" style="display: block;" viewBox="661.333 476 848 1070.667" width="848" height="1070.667" preserveAspectRatio="none">
<path transform="translate(0,0)" fill="rgb(4,4,4)" d="M 1457.01 497.211 C 1462.35 496.964 1463.85 496.989 1468.74 498.648 C 1472.38 499.596 1479.75 506.144 1480.18 509.977 C 1511.51 791.786 1469.14 1171.55 1183.39 1298.01 C 1087.65 1339.91 981.055 1350.23 879.058 1327.48 C 847.635 1320.45 821.651 1311.37 791.863 1299.87 C 786.456 1317.15 778.462 1336.9 772.542 1354.66 C 759.114 1394.57 748.307 1435.32 740.189 1476.64 C 738.048 1488.12 736.955 1500.43 733.686 1511.55 C 728.541 1529.07 704.913 1532.14 695.717 1516.19 C 694.186 1513.57 693.344 1510.61 693.268 1507.58 C 693.022 1499.35 696.611 1482.95 698.342 1474.28 C 704.872 1441.22 712.921 1408.49 722.462 1376.17 C 789.937 1142.88 930.279 913.204 1147.22 791.355 C 1161.11 784.444 1173.14 774.511 1189.41 778.424 C 1202.18 781.496 1205.17 804.728 1196.93 810.943 C 1176.7 826.19 1152.15 836.927 1130.31 851.236 C 1105.3 867.682 1081.28 885.58 1058.37 904.835 C 947.23 997.798 863.036 1127.59 807.432 1260.34 C 863.299 1283.54 917.263 1293.07 977.167 1295.71 C 986.877 1295.79 996.588 1295.59 1006.29 1295.12 C 1049.56 1292.81 1089.59 1285.01 1130.48 1271.44 C 1393.14 1184.28 1454.63 876.412 1447.22 632.902 C 1446.32 603.331 1444.39 573.976 1442.77 544.307 C 1345.07 569.759 1245.5 584.625 1147.7 608.351 C 989.14 646.816 839.143 723.941 767.094 877.96 C 716.753 985.574 707.642 1107.34 759.164 1216.93 C 761.058 1220.96 759.456 1225.98 757.485 1229.68 C 754.639 1235 749.734 1238.91 743.918 1240.5 C 731.695 1243.87 721.662 1235.69 716.78 1225.05 C 647.196 1073.37 686.863 886.893 791.562 761.476 C 878.246 657.638 1000.31 601.99 1128.84 569.317 C 1221.54 545.753 1315.63 533.21 1408.36 510.291 C 1424.61 506.286 1440.75 501.391 1457.01 497.211 z"/>
</svg>