<svg version="1.1" xmlns="http://www.w3.org/2000/svg" style="display: block;" viewBox="181.333 106.667 1712 1752" width="1712" height="1752" preserveAspectRatio="none">
<path transform="translate(0,0)" fill="rgb(254,231,177)" d="M 1005.68 141.39 C 1010.06 139.733 1027.26 141.455 1032.63 141.27 C 1066.53 140.101 1097.95 142.785 1131.55 145.949 C 1325.2 165.048 1505.49 253.225 1639.46 394.349 C 1763.75 527.957 1839.88 699.247 1855.74 881.042 C 1856.63 890.927 1855.9 901.782 1856.92 911.201 C 1862.32 961.386 1859.15 1010.94 1854.38 1061.01 C 1853.66 1068.56 1853.73 1076.32 1852.77 1084.03 C 1829.13 1288.38 1734.7 1478 1585.86 1620 C 1563.82 1640.73 1537.09 1661.35 1512.38 1678.66 C 1407.58 1751.8 1286.78 1798.79 1160.1 1815.68 C 1135.31 1819.22 1098.9 1824.56 1074.5 1823.82 C 1053.52 1823.89 1025.46 1824.77 1004.97 1823.68 C 856.801 1817.04 713.157 1770.61 589.126 1689.29 C 402.587 1562.86 274.286 1367.16 232.746 1145.67 C 189.552 926.665 226.883 686.305 352.444 499.523 C 469.731 324.487 651.092 202.541 857.443 159.965 C 875.793 156.017 894.628 153.888 913.147 150.465 C 936.089 146.224 959.796 144.541 983.049 142.909 C 990.759 142.368 998.027 143.127 1005.68 141.39 z"/>
<path transform="translate(0,0)" fill="rgb(21,30,39)" d="M 656.45 794.892 C 703.896 681.042 788.605 538.129 908.559 489.14 C 968.955 464.502 1036.7 465.084 1096.67 490.757 C 1181.8 527.179 1241.38 606.797 1279.26 688.639 C 1301.25 736.158 1318.52 782.314 1349.15 825.535 C 1370.26 855.331 1392.18 875.497 1417.95 901.018 C 1457.79 940.474 1488.59 984.694 1509.26 1037.07 C 1548.52 1136.54 1542.16 1252.69 1499.83 1350.12 C 1456.52 1450.02 1374.87 1528.31 1273.25 1567.4 C 1153.72 1614.2 1006.15 1611.31 888.579 1559.66 C 844.374 1540.19 803.284 1514.29 766.636 1482.82 C 690.193 1485.35 611.229 1456.87 550.583 1410.91 C 476.391 1355.38 427.574 1272.4 415.066 1180.57 C 402.279 1082.62 428.718 983.592 488.623 905.051 C 528.347 852.818 590.11 803.862 656.45 794.892 z"/>
<path transform="translate(0,0)" fill="rgb(251,207,111)" d="M 656.45 794.892 C 589.471 965.884 571.341 1145.31 645.205 1318.34 C 672.76 1382.89 714.192 1436.55 766.636 1482.82 C 690.193 1485.35 611.229 1456.87 550.583 1410.91 C 476.391 1355.38 427.574 1272.4 415.066 1180.57 C 402.279 1082.62 428.718 983.592 488.623 905.051 C 528.347 852.818 590.11 803.862 656.45 794.892 z"/>
<path transform="translate(0,0)" fill="rgb(253,248,235)" d="M 793.307 622.803 C 881.273 509.474 1014.05 459.302 1138.48 554.501 C 1233.95 627.547 1252.36 731.208 1310.67 828.465 C 1332.55 864.969 1365.19 895.509 1395.3 924.994 C 1453.36 983.353 1490.33 1051.8 1500.21 1134.34 C 1512.33 1235.94 1483.89 1338.21 1421.06 1418.97 C 1356.41 1500.71 1273.5 1541.87 1172.63 1560.39 C 1164.95 1561.57 1157.24 1562.62 1149.52 1563.53 C 879.82 1594.27 660.03 1414.73 633.57 1147.34 C 615.582 965.554 680.173 764.35 793.307 622.803 z"/>
<path transform="translate(0,0)" fill="rgb(254,231,177)" d="M 1172.63 1560.39 C 1164.95 1561.57 1157.24 1562.62 1149.52 1563.53 C 879.82 1594.27 660.03 1414.73 633.57 1147.34 C 615.582 965.554 680.173 764.35 793.307 622.803 C 802.566 651.748 768.276 716.607 756.028 745.207 C 751.561 755.817 747.657 766.654 744.331 777.674 C 732.763 814.944 723.752 857.168 715.464 895.453 C 681.671 1051.56 683.07 1205.17 775.787 1342.04 C 811.07 1394.29 857.711 1437.89 912.221 1469.58 C 960.723 1497.36 1013.13 1515.11 1067.7 1526.42 C 1091.13 1531.29 1161.23 1537.67 1172.63 1560.39 z"/>
<path transform="translate(0,0)" fill="rgb(21,30,39)" d="M 1061.97 845.418 C 1125.24 838.025 1197.81 864.008 1245.06 905.121 C 1424.16 1060.98 1351.36 1375.52 1100.23 1397.85 C 951.996 1403.65 833.595 1294.23 819.382 1148.35 C 811.504 1073.24 834.114 998.102 882.137 939.807 C 926.903 885.386 991.749 851.349 1061.97 845.418 z"/>
<path transform="translate(0,0)" fill="rgb(249,167,28)" d="M 1072.36 878.417 C 1200.84 871.309 1302.41 980.98 1310.76 1104.51 C 1318.26 1215.45 1257.57 1322.31 1148.21 1355.45 C 1129.32 1361.18 1112.96 1363.26 1093.58 1364.81 C 1033.88 1365.46 980.34 1347.33 934.94 1307.99 C 885.522 1264.6 855.5 1203.25 851.556 1137.61 C 842.575 1003.27 936.149 887.426 1072.36 878.417 z"/>
<path transform="translate(0,0)" fill="rgb(237,143,5)" d="M 1224.49 1166.82 C 1235.38 1167.21 1244.67 1176.1 1245.85 1186.92 C 1249.59 1221.27 1229.19 1254.13 1204.81 1276.41 C 1172.48 1305.96 1141.88 1318.61 1098.49 1316.99 C 1093.9 1316.27 1081.99 1314.64 1079.12 1311.93 C 1066.45 1300.05 1091.06 1292.23 1099.51 1289.89 C 1151.04 1275.65 1190.53 1238.3 1210.49 1188.95 C 1213.83 1180.7 1217.39 1172.62 1224.49 1166.82 z"/>
<path transform="translate(0,0)" fill="rgb(251,207,111)" d="M 1002.81 954.041 C 1006.81 954.153 1010.01 954.641 1013.69 956.298 C 1019.27 958.772 1023.62 963.391 1025.75 969.11 C 1032.39 987.272 1013 998.768 1001.7 1008.48 C 986.127 1021.87 974.819 1037.18 967.936 1056.47 C 963.508 1068.88 961.938 1081.01 957.544 1093.21 C 954.905 1100.53 949.649 1103.71 942.61 1106.2 C 878.757 1106.42 945.989 970.745 1002.81 954.041 z"/>
<path transform="translate(0,0)" fill="rgb(254,231,177)" d="M 893.068 630.103 C 902.884 629.311 915.086 630.572 919.893 640.982 C 930.574 664.109 905.029 676.525 892.135 690.227 C 856.057 728.585 833.906 777.243 814.349 825.475 C 808.679 839.461 807.693 849.036 793.837 856.447 C 764.066 860.395 762.067 838.148 770.379 816.015 C 789.258 765.747 843.363 653.31 893.068 630.103 z"/>
<path transform="translate(0,0)" fill="rgb(249,167,28)" d="M 1379.94 599.528 C 1394.79 597.294 1408.66 607.453 1411.01 622.284 C 1413.36 637.115 1403.32 651.067 1388.5 653.537 C 1373.53 656.034 1359.38 645.847 1357 630.849 C 1354.62 615.85 1364.92 601.787 1379.94 599.528 z"/>
<path transform="translate(0,0)" fill="rgb(249,167,28)" d="M 1483.93 726.655 C 1498.42 723.725 1512.54 733.104 1515.46 747.596 C 1518.38 762.089 1508.99 776.202 1494.49 779.109 C 1480.02 782.013 1465.92 772.637 1463.01 758.16 C 1460.09 743.683 1469.46 729.582 1483.93 726.655 z"/>
</svg>