<svg version="1.1" xmlns="http://www.w3.org/2000/svg" style="display: block;" viewBox="166.667 136 1736 1780" width="1736" height="1780" preserveAspectRatio="none">
<path transform="translate(0,0)" fill="rgb(211,227,240)" d="M 1014.75 171.466 C 1014.81 171.462 1014.87 171.459 1014.92 171.456 C 1234.8 165.043 1448.11 246.796 1607.38 398.516 C 1806.82 588.437 1897.54 863.964 1858.02 1135.51 C 1831.61 1322.07 1747.17 1495.58 1616.66 1631.48 C 1462.96 1791.52 1278.56 1876.03 1055.75 1880.39 C 841.602 1881.83 631.082 1791.94 475.7 1646.13 C 307.368 1490.62 208.659 1273.93 201.794 1044.87 C 194.818 815.426 270.566 597.774 428.988 429.918 C 581.963 269.101 792.84 176.057 1014.75 171.466 z"/>
<path transform="translate(0,0)" fill="rgb(6,21,37)" d="M 1112.98 703.392 C 1124.12 702.358 1141.13 704.773 1152.08 706.894 C 1232.16 722.405 1295.76 763.716 1351.72 821.439 C 1438.6 840.011 1519.05 881.156 1584.97 940.729 C 1621.52 973.988 1648.82 1008.1 1675.16 1049.76 C 1701.86 1091.97 1707.15 1103.69 1679.64 1148.27 C 1643.89 1206.19 1598.21 1254.43 1542.79 1293.82 C 1448.55 1360.84 1338.42 1388.97 1223.63 1390.2 C 1198.67 1418.33 1168.23 1441.05 1134.17 1456.99 C 1104.41 1470.73 1053.42 1485.33 1020.96 1472.82 C 974.595 1454.95 995.815 1393.77 1009.53 1360.2 C 934.325 1336.63 884.964 1313.03 818.804 1270.34 C 770.933 1237.62 737.07 1208.65 696.872 1167.22 C 651.036 1221.7 589.678 1280.27 526.125 1313.24 C 501.169 1325.04 465.958 1343.22 437.626 1336.52 C 423.219 1333.11 417.81 1316.72 420.211 1303.4 C 424.026 1282.23 430.855 1261.15 437.202 1240.39 C 451.307 1194.43 466.292 1148.75 482.147 1103.36 C 466.887 1062.2 419.076 936.574 420.764 900.424 C 421.166 891.813 424.354 883.337 431.066 877.687 C 438.579 871.364 448.4 870.015 457.886 871.054 C 471.237 872.516 485.243 877.577 497.689 882.411 C 573.008 911.669 645.102 977.179 695.403 1039.1 C 718.285 1013.34 746.844 987.841 773.547 966.045 C 865.704 890.823 963.041 846.346 1078.66 820.793 C 1065.45 776.696 1044.86 710.325 1112.98 703.392 z"/>
<path transform="translate(0,0)" fill="rgb(117,178,228)" d="M 693.977 1089.09 C 704.382 1078.85 714.663 1066.68 724.957 1055.97 C 744.061 1036.09 764.186 1017.22 785.25 999.431 C 908.209 895.476 1064.21 838.772 1225.22 839.506 C 1263.33 839.837 1301.29 844.201 1338.47 852.525 C 1271.18 964.424 1246.99 1082.4 1277.76 1211.38 C 1288.04 1254.46 1312.24 1309.64 1338.39 1345.74 C 1162.78 1378.04 981.505 1340.11 833.586 1240.1 C 798.734 1215.99 766.008 1188.95 735.767 1159.26 C 724.024 1147.65 706.1 1126.67 695.294 1117.15 C 692.36 1113.18 693.584 1094.81 693.977 1089.09 z"/>
<path transform="translate(0,0)" fill="rgb(172,207,237)" d="M 1371.48 860.576 C 1475.79 892.432 1558.92 946.027 1624.33 1034.33 C 1633.57 1046.8 1667.26 1092.6 1664.56 1106.5 C 1662.83 1115.46 1654.37 1126.28 1649.56 1133.99 C 1615.95 1187.88 1572.56 1230.76 1521.51 1268.06 C 1476.51 1299.75 1426.2 1323.12 1372.95 1337.05 C 1343.07 1297.43 1318.63 1244.72 1307.86 1196.47 C 1280.51 1073.87 1307 965.267 1371.48 860.576 z"/>
<path transform="translate(0,0)" fill="rgb(6,21,37)" d="M 1456.6 1016.92 C 1480.26 1015.26 1500.79 1033.12 1502.41 1056.79 C 1504.04 1080.46 1486.15 1100.96 1462.47 1102.55 C 1438.85 1104.14 1418.4 1086.29 1416.78 1062.67 C 1415.16 1039.05 1432.98 1018.57 1456.6 1016.92 z"/>
<path transform="translate(0,0)" fill="rgb(73,140,204)" d="M 452.738 903.965 C 540.225 922.09 614.927 997.506 672.001 1062.41 C 679.192 1070.59 687.826 1080.18 693.977 1089.09 C 693.584 1094.81 692.36 1113.18 695.294 1117.15 C 633.379 1194.92 551.554 1280.22 452.427 1305.68 C 463.663 1265.02 475.922 1224.65 489.194 1184.61 C 492.477 1174.64 516.626 1106.77 514.839 1101.14 C 493.823 1034.89 468.036 972.364 452.738 903.965 z"/>
<path transform="translate(0,0)" fill="rgb(73,140,204)" d="M 1108.71 737.267 C 1170.19 733.336 1246.35 771.959 1293.13 811.145 C 1287.54 810.18 1280.95 809.757 1275.24 809.232 C 1220.46 804.356 1165.29 806.449 1111.04 815.462 C 1106.32 799.344 1093.3 760.361 1099.21 744.642 C 1100.8 740.403 1104.8 738.826 1108.71 737.267 z"/>
<path transform="translate(0,0)" fill="rgb(73,140,204)" d="M 1041.89 1368.69 C 1089.15 1381.95 1129.52 1384.08 1177.15 1389.29 C 1164.31 1401.28 1151.02 1410.04 1136.05 1418.89 C 1110.61 1432.89 1063.49 1450.65 1034.27 1442.57 C 1011.79 1436.35 1036.15 1381.57 1041.89 1368.69 z"/>
<path transform="translate(0,0)" fill="rgb(117,178,228)" d="M 978.552 510.398 C 1068.71 498.204 1105.73 573.446 1186 581.531 C 1202.04 583.247 1218.26 582.264 1233.98 578.624 C 1243.21 576.508 1252.26 573.708 1261.07 570.247 C 1271.42 566.067 1283.65 557.73 1294.81 562.264 C 1299.79 564.243 1303.73 568.21 1305.67 573.211 C 1314.33 595.741 1285.58 602.225 1270.84 608.01 C 1216.7 629.257 1153.97 623.932 1103.87 594.427 C 1083.36 582.346 1065.56 568.886 1043.67 559.016 C 968.06 526.779 928.102 576.135 859.137 590.316 C 809.649 600.492 756.418 582.295 715.072 555.974 C 698.044 545.134 708.03 518.658 727.88 520.979 C 736.029 522.082 748.569 531.789 756.421 535.022 C 775.819 544.846 795.682 552.211 817.544 553.974 C 881.652 559.853 913.109 516.647 978.552 510.398 z"/>
<path transform="translate(0,0)" fill="rgb(117,178,228)" d="M 1383.37 1544.39 C 1401.89 1541.46 1467.52 1546.51 1464.62 1574.54 C 1463.98 1580.27 1460.93 1585.46 1456.23 1588.81 C 1445.05 1596.75 1428.1 1586.73 1413.86 1584.53 C 1402.16 1582.64 1390.24 1582.54 1378.52 1584.24 C 1359.24 1587.21 1340.38 1595.81 1323.78 1605.78 C 1276.79 1634.01 1245.59 1645.42 1190.82 1635.05 C 1171.57 1629.9 1147.69 1621.14 1130.27 1611.11 C 1120.01 1605.19 1116.86 1591.95 1125.13 1582.51 C 1137.24 1568.69 1150.79 1577.88 1164.31 1583.65 C 1185.18 1593.64 1206.23 1600.77 1229.56 1600.01 C 1266.72 1598.78 1293.45 1576.84 1325.07 1560.74 C 1343.37 1551.43 1362.75 1546.38 1383.37 1544.39 z"/>
<path transform="translate(0,0)" fill="rgb(117,178,228)" d="M 776.943 733.286 C 791.708 732.574 806.347 737.769 810.195 753.526 C 812.101 761.527 810.69 769.959 806.283 776.904 C 799.323 788.022 789.534 792.329 777.427 794.967 C 769.033 795.38 762.561 795.458 754.864 791.123 C 748.721 787.713 744.28 781.894 742.611 775.069 C 736.964 752.241 756.699 737.223 776.943 733.286 z"/>
<path transform="translate(0,0)" fill="rgb(117,178,228)" d="M 764.81 1492.86 C 775.814 1490.19 787.398 1493.68 795.106 1501.97 C 802.813 1510.26 805.442 1522.07 801.98 1532.85 C 798.519 1543.63 789.507 1551.7 778.413 1553.96 C 761.692 1557.36 745.329 1546.74 741.621 1530.08 C 737.913 1513.43 748.227 1496.87 764.81 1492.86 z"/>
<path transform="translate(0,0)" fill="rgb(117,178,228)" d="M 543.777 691.26 C 584.776 689.53 585.824 741.613 543.767 750.517 C 501.056 751.976 501.331 700.574 543.777 691.26 z"/>
<path transform="translate(0,0)" fill="rgb(172,207,237)" d="M 661.876 1406.87 C 674.427 1404.3 686.673 1412.43 689.168 1425 C 691.663 1437.56 683.453 1449.76 670.871 1452.17 C 658.4 1454.57 646.335 1446.45 643.862 1433.99 C 641.389 1421.53 649.436 1409.42 661.876 1406.87 z"/>
</svg>