<svg version="1.1" xmlns="http://www.w3.org/2000/svg" style="display: block;" viewBox="145.333 73.333 1798.667 1917.333" width="1798.667" height="1917.333" preserveAspectRatio="none">
<path transform="translate(0,0)" fill="rgb(235,235,213)" d="M 1022.13 112.564 C 1024.25 112.305 1026.37 112.132 1028.5 112.048 C 1051.79 111.067 1088.57 113.777 1112.11 115.642 C 1298.79 130.454 1474.91 208.234 1611.59 336.237 C 1796.64 508.028 1895.92 747.434 1905.26 997.886 C 1907.42 1069.75 1901.02 1141.61 1886.18 1211.95 C 1849.82 1391.96 1763.94 1558.25 1638.21 1692.1 C 1489.78 1850.29 1285.02 1943.67 1068.25 1952.02 C 661.586 1964.59 316.859 1656.76 215.596 1274.13 C 196.337 1199.88 185.512 1123.7 183.327 1047.03 C 182.057 1009.88 184.59 969.456 188.205 932.52 C 207.676 724.087 295.864 528.035 438.905 375.186 C 590.741 213.691 800.567 119.208 1022.13 112.564 z"/>
<path transform="translate(0,0)" fill="rgb(18,35,54)" d="M 1205.11 543.573 C 1211.22 525.81 1217.76 511.76 1227.69 495.982 C 1252.35 456.786 1309.95 410.736 1359.35 429.287 C 1421.88 452.773 1414.39 545.171 1395.63 594.783 C 1392.36 603.321 1388.64 611.677 1384.47 619.817 C 1441.77 654.023 1430.5 725.823 1400.2 775.007 C 1394.1 784.884 1387.2 794.243 1379.57 802.99 C 1425.99 850.611 1398.76 921.938 1356.68 962.252 L 1355.44 963.443 C 1378.27 1017.11 1357.36 1067.59 1311.91 1100.75 C 1316.41 1118 1316.48 1124.78 1314.75 1142.63 C 1337.34 1146.03 1360 1147.35 1382.26 1151.99 C 1433.79 1163.25 1479.5 1192.81 1510.91 1235.19 C 1541.74 1277.22 1558.14 1329.77 1558.08 1382 C 1557.95 1490.72 1494.69 1591.74 1407.65 1654.39 C 1237.83 1776.62 1014.26 1741.59 833.891 1663.56 C 829.941 1661.85 823.966 1659.57 820.697 1656.97 L 793.378 1713.85 C 789.361 1722.21 783.514 1736.09 778.219 1743.26 C 760.98 1766.59 719.586 1754.72 710.303 1729.07 C 708.137 1723.01 707.877 1716.44 709.555 1710.23 C 711.625 1702.52 719.26 1688.52 723.118 1680.58 C 731.976 1662.36 741.376 1644.44 749.877 1626.01 C 718.537 1609.61 693.942 1600.29 661.002 1581.14 C 547.986 1515.94 455.514 1422.15 420.524 1293.21 C 383.992 1158.59 441.823 991.245 587.694 952.167 C 683.714 926.444 751.26 971.213 829.395 1017.55 L 831.672 1016.91 C 839.015 976.09 855.699 937.909 890.915 913.575 C 895.433 910.455 900.229 907.756 905.241 905.514 C 902.489 869.679 906.702 836.295 930.938 807.806 C 943.158 793.37 959.295 782.78 977.401 777.313 C 977.263 765.922 977.433 756.703 979.624 745.499 C 987.884 703.254 1020.77 664.204 1066.05 663.233 C 1066.82 656.374 1067.61 649.902 1068.83 643.104 C 1079.61 582.967 1137.73 509.051 1205.11 543.573 z"/>
<path transform="translate(0,0)" fill="rgb(206,217,179)" d="M 1314.75 1142.63 C 1337.34 1146.03 1360 1147.35 1382.26 1151.99 C 1433.79 1163.25 1479.5 1192.81 1510.91 1235.19 C 1541.74 1277.22 1558.14 1329.77 1558.08 1382 C 1557.95 1490.72 1494.69 1591.74 1407.65 1654.39 C 1237.83 1776.62 1014.26 1741.59 833.891 1663.56 C 829.941 1661.85 823.966 1659.57 820.697 1656.97 C 823.575 1649.95 829.708 1638.2 833.157 1631.06 L 860.6 1574.7 C 901.748 1612.75 964.986 1617.25 1016.5 1600.39 C 1083.63 1578.43 1155.69 1505.96 1130.63 1429.73 C 1148.42 1421.25 1171.29 1406.13 1185.07 1392.02 C 1201.49 1375.21 1206.09 1363.96 1206.01 1340.88 C 1230.86 1308.73 1243.39 1276.36 1240.01 1235.57 C 1281.2 1216.23 1306.42 1187.82 1314.75 1142.63 z"/>
<path transform="translate(0,0)" fill="rgb(206,217,179)" d="M 749.877 1626.01 C 718.537 1609.61 693.942 1600.29 661.002 1581.14 C 547.986 1515.94 455.514 1422.15 420.524 1293.21 C 383.992 1158.59 441.823 991.245 587.694 952.167 C 683.714 926.444 751.26 971.213 829.395 1017.55 L 831.672 1016.91 C 828.581 1045.75 829.115 1056.95 831.223 1085.23 C 765.237 1076.83 728.309 1143.28 722.081 1200.08 C 718.481 1232.91 721.901 1261.27 731.777 1292.53 C 617.371 1326.71 659.074 1549.09 780.807 1562.61 L 749.877 1626.01 z"/>
<path transform="translate(0,0)" fill="rgb(235,235,213)" d="M 1098.62 1184.42 C 1103.89 1184.24 1109.16 1184.11 1114.43 1184.04 C 1154.83 1183.7 1208.22 1200.2 1207.47 1249.59 C 1206.95 1283.78 1187.07 1315.44 1163.43 1338.78 C 1142.46 1359.48 1100.69 1381.87 1070.71 1381.52 C 1046.54 1375.87 1020.11 1373.55 995.773 1368.61 C 989.738 1366.34 983.586 1361.4 978.774 1357.64 C 938.014 1325.82 964.91 1267.62 991.848 1235.93 C 1017.2 1206.1 1058.82 1187.25 1098.62 1184.42 z"/>
<path transform="translate(0,0)" fill="rgb(235,235,213)" d="M 984.545 1402.36 C 992.627 1401.68 1019.86 1409.16 1030.04 1410.38 C 1044.21 1412.08 1071.49 1413.68 1082.4 1421.45 C 1112.82 1443.1 1104.2 1483.03 1085.41 1509.26 C 1061.03 1543.28 1024.43 1566.29 983.234 1573.8 C 953.351 1578.64 918.457 1575.08 892.786 1557.42 C 854.171 1530.87 862.58 1489.41 887.798 1456.7 C 911.946 1425.38 945.325 1407.64 984.545 1402.36 z"/>
<path transform="translate(0,0)" fill="rgb(235,235,213)" d="M 815.842 1118.25 C 850.4 1115.54 858.902 1146.25 878.803 1166.71 C 883.464 1171.51 906.462 1191.21 908.002 1194.34 C 933.74 1246.63 932.198 1344.87 864.021 1363.91 C 855.408 1364.86 842.488 1365.37 835.03 1359.07 C 814.16 1341.42 789.047 1317.89 770.958 1297.58 C 764.498 1286.83 759.729 1270.1 757.337 1258.53 C 747.689 1211.87 758.421 1129.08 815.842 1118.25 z"/>
<path transform="translate(0,0)" fill="rgb(235,235,213)" d="M 935.857 931.292 C 946.084 931.079 957.183 934.7 965.583 940.646 C 993.374 960.319 1012.79 991.912 1019.74 1025 C 1027.18 1046.79 1017.79 1066.65 1016.74 1086.63 C 1015.35 1113.33 1017.8 1122.79 1001.07 1146.63 C 986.848 1166.89 975.92 1174.51 951.523 1179.2 C 949.833 1179.22 947.63 1179.09 946.016 1179.19 C 933.046 1179.96 918.415 1155.35 911.078 1145.4 C 906.01 1138.64 900.68 1132.08 895.1 1125.73 C 885.613 1115.03 879.626 1110.23 868.191 1101.73 C 867.2 1097.46 866.323 1093.16 865.562 1088.83 C 856.398 1034.26 868.276 941.608 935.857 931.292 z"/>
<path transform="translate(0,0)" fill="rgb(235,235,213)" d="M 1173.84 961.339 C 1190.86 959.306 1214.4 962.637 1225.53 976.755 C 1258.77 1018.93 1223.29 1094.18 1188.64 1125.13 C 1175.7 1136.7 1157.48 1147.76 1140.01 1150.39 C 1136.97 1150.82 1120.47 1149.07 1116.38 1148.86 C 1103.41 1148.71 1093.63 1149.69 1080.79 1151.41 C 1050.64 1140.09 1049.51 1123.46 1050.5 1094.83 C 1052.77 1029.27 1108.73 971.382 1173.84 961.339 z"/>
<path transform="translate(0,0)" fill="rgb(235,235,213)" d="M 1106.85 747.232 C 1142.75 743.843 1159.48 777.142 1166.53 807.115 C 1176.31 848.727 1164.12 900.935 1137.7 934.458 C 1117.36 941.658 1098.46 952.395 1081.85 966.174 C 1076.49 970.245 1057.46 963.37 1052.65 959.695 C 1002.02 920.993 1017 839.478 1049.14 793.91 C 1065.72 770.395 1078.98 753.184 1106.85 747.232 z"/>
<path transform="translate(0,0)" fill="rgb(235,235,213)" d="M 739.885 1325.17 C 742.819 1325.21 749.012 1325.5 750.989 1327.31 C 758.51 1334.17 764.812 1344.57 771.632 1352.25 C 787.559 1370.19 803.284 1379.62 823.576 1391.07 C 829.77 1403.5 834.01 1416.82 836.146 1430.55 C 840.712 1459.13 836.391 1502.8 810.453 1521.01 C 805.33 1524.61 800.596 1525.04 794.61 1525.96 C 751.375 1541.62 709.72 1474.05 702.108 1439.36 C 693.987 1402.34 693.412 1336.01 739.885 1325.17 z"/>
<path transform="translate(0,0)" fill="rgb(235,235,213)" d="M 1307.3 814.393 C 1313.26 813.297 1322.36 813.617 1328.3 814.751 C 1393.91 827.278 1372.1 897.969 1339.22 932.154 C 1316.48 955.786 1294.4 967.2 1261.4 968.578 C 1259.75 965.571 1257.2 961.933 1255.27 959.01 C 1235.81 935.126 1211.38 928.438 1181.78 927.918 C 1194.78 902.024 1198 886.149 1203.69 858.812 C 1236.27 827.579 1263.73 818.801 1307.3 814.393 z"/>
<path transform="translate(0,0)" fill="rgb(235,235,213)" d="M 1330.44 459.175 C 1389.4 456.18 1378.95 548.283 1364.8 581.908 C 1360.03 593.239 1356.34 601.141 1350.08 611.843 C 1318.94 611.458 1301.75 618.967 1275.06 634.795 C 1270.23 638.24 1266.69 641.023 1260.88 642.108 C 1258.36 641.319 1258.12 641.916 1257.39 639.133 C 1255.8 633.061 1255.15 626.341 1253.77 620.175 C 1249.79 603.092 1242.91 586.817 1233.43 572.055 C 1238.54 523.664 1281.15 468.304 1330.44 459.175 z"/>
<path transform="translate(0,0)" fill="rgb(235,235,213)" d="M 1337.7 646.278 C 1373.11 644.506 1393.69 658.608 1391.92 697.193 C 1390.39 730.864 1373.15 761.99 1348.69 784.808 C 1323.83 777.696 1308.91 777.523 1283.09 781.279 C 1269.57 783.368 1257.04 787.528 1244.44 792.69 C 1216.81 765.978 1234.75 726.215 1253.5 699.712 C 1272.11 673.404 1305.46 651.041 1337.7 646.278 z"/>
<path transform="translate(0,0)" fill="rgb(235,235,213)" d="M 1165.75 568.18 C 1211.43 565.548 1233.06 646.269 1222.25 680.302 C 1215.29 702.231 1203.52 719.424 1197.44 743.621 C 1190.76 749.027 1188.08 750.224 1180.2 752.732 C 1177.24 748.264 1173.98 743.97 1170.79 739.654 C 1153.96 718.604 1134.31 712.718 1108.32 713.149 C 1106.14 707.947 1104.21 703.094 1102.73 697.639 C 1089.88 650.194 1115.35 582.007 1165.75 568.18 z"/>
<path transform="translate(0,0)" fill="rgb(235,235,213)" d="M 1246.89 1104.94 C 1258.23 1110.52 1264.79 1111.5 1276.67 1114.57 C 1279.77 1115.36 1282.99 1116.46 1283.87 1120.17 C 1291.96 1154.13 1255.91 1193.49 1230.1 1204.62 C 1219.7 1186.56 1206.95 1176.3 1189.07 1166.49 C 1216.06 1149.48 1230.34 1131.28 1246.89 1104.94 z"/>
<path transform="translate(0,0)" fill="rgb(235,235,213)" d="M 1326.6 982.958 L 1328.04 983.259 C 1328.79 984.194 1329.32 984.75 1329.81 985.967 C 1342.5 1017.93 1319.6 1062.14 1288.85 1075.29 C 1283.81 1074.63 1278.16 1073.6 1273.08 1072.78 L 1262.19 1070.44 C 1272.04 1043.6 1272.77 1028.77 1271.86 1001.05 C 1294.47 998.312 1306.57 993.338 1326.6 982.958 z"/>
<path transform="translate(0,0)" fill="rgb(235,235,213)" d="M 982.678 810.156 C 989.209 809.975 993.006 816.356 997.692 820.941 C 985.924 854.09 984.004 883.26 990.646 917.635 C 983.089 912.605 977.732 908.914 969.49 904.945 C 958.361 899.856 948.769 898.824 936.783 898.055 C 933.129 863.166 944.554 820.325 982.678 810.156 z"/>
<path transform="translate(0,0)" fill="rgb(96,128,77)" d="M 836.804 1542.01 C 838.347 1544.44 839.827 1548.11 841.035 1550.84 C 823.204 1586.43 805.612 1622.14 788.259 1657.97 C 784.12 1666.48 759.791 1719.22 755.371 1723.5 C 751.515 1724.94 748.458 1724.22 744.299 1723.83 C 740.716 1720.53 736.64 1717.32 739.061 1712.13 C 747.889 1693.18 757.159 1674.4 766.215 1655.56 L 813.139 1556.85 C 823.815 1552.7 827.848 1549.13 836.804 1542.01 z"/>
<path transform="translate(0,0)" fill="rgb(235,235,213)" d="M 1058.94 697.237 C 1061.02 697.289 1062.98 697.655 1065.05 697.954 C 1069.89 701.084 1073.99 716.32 1076.88 723.367 C 1051.28 736.179 1036.78 754.762 1020.76 777.298 C 1018.35 781.291 1018.28 782.46 1013.53 781.971 C 1000.13 771.346 1014.02 734.125 1022.55 722.671 C 1032.66 709.094 1041.84 700.694 1058.94 697.237 z"/>
<path transform="translate(0,0)" fill="rgb(77,104,64)" d="M 914.727 1374.36 C 913.318 1383.41 908.028 1384.83 909.663 1394.11 C 898.306 1400.52 885.001 1412.51 874.826 1421.1 C 878.862 1411.33 883.064 1401.64 887.429 1392.01 C 898.976 1386.11 904.528 1382.41 914.727 1374.36 z"/>
<path transform="translate(0,0)" fill="rgb(54,97,63)" d="M 914.727 1374.36 C 921.756 1367.54 926.867 1362.02 933.381 1354.78 C 933.653 1359.81 918.667 1385.35 915.261 1391 C 914.687 1391.95 910.999 1393.53 909.663 1394.11 C 908.028 1384.83 913.318 1383.41 914.727 1374.36 z"/>
<path transform="translate(0,0)" fill="rgb(77,104,64)" d="M 1201.28 784.669 C 1201.52 784.878 1213.81 803.83 1215.41 806.142 C 1214.64 808.631 1214.08 808.334 1211.52 810.273 L 1202.4 817.06 C 1199.76 802.39 1200.04 799.903 1201.28 784.669 z"/>
<path transform="translate(0,0)" fill="rgb(81,89,73)" d="M 1033.39 1157.62 C 1035.74 1159.84 1036.45 1160.19 1037.88 1163.1 C 1035.97 1165.94 1034.08 1165.89 1030.23 1167.47 L 1028.35 1168.29 L 1027.55 1167.75 C 1029.38 1163.83 1031.09 1161.26 1033.39 1157.62 z"/>
<path transform="translate(0,0)" fill="rgb(81,89,73)" d="M 1128.93 1400.27 L 1129.01 1400.31 C 1128.37 1402.15 1119.91 1407.44 1117.57 1409.07 C 1116.83 1407.35 1117 1407.61 1116.69 1405.73 C 1119.59 1402.88 1124.88 1401.63 1128.93 1400.27 z"/>
<path transform="translate(0,0)" fill="rgb(140,164,109)" d="M 723.994 757.311 C 748.529 756.53 769.097 775.693 770.051 800.222 C 771.005 824.751 751.987 845.454 727.465 846.581 C 702.698 847.719 681.742 828.469 680.778 803.694 C 679.815 778.919 699.213 758.1 723.994 757.311 z"/>
<path transform="translate(0,0)" fill="rgb(140,164,109)" d="M 1537.23 1049.83 C 1554.99 1047.11 1571.61 1059.25 1574.41 1077 C 1577.21 1094.74 1565.14 1111.41 1547.4 1114.29 C 1529.56 1117.17 1512.78 1105.01 1509.96 1087.16 C 1507.14 1069.31 1519.37 1052.58 1537.23 1049.83 z"/>
<path transform="translate(0,0)" fill="rgb(140,164,109)" d="M 843.622 649.773 C 853.113 647.835 862.911 651.168 869.25 658.491 C 875.59 665.815 877.485 675.989 874.207 685.104 C 870.929 694.218 862.989 700.856 853.437 702.464 C 839.018 704.892 825.314 695.316 822.636 680.941 C 819.959 666.567 829.296 652.699 843.622 649.773 z"/>
</svg>