<svg version="1.1" xmlns="http://www.w3.org/2000/svg" style="display: block;" viewBox="149.333 162.667 1768 1808" width="1768" height="1808" preserveAspectRatio="none">
<defs>
	<linearGradient id="Gradient1" gradientUnits="userSpaceOnUse" x1="1139.89" y1="1679.06" x2="717.256" y2="832.337">
		<stop class="stop0" offset="0" stop-opacity="1" stop-color="rgb(254,236,202)"/>
		<stop class="stop1" offset="1" stop-opacity="1" stop-color="rgb(255,251,243)"/>
	</linearGradient>
</defs>
<path transform="translate(0,0)" fill="rgb(199,225,238)" d="M 1010.75 198.532 C 1013.17 198.442 1015.58 198.39 1018 198.376 C 1253.12 197.163 1459.45 274.149 1628.95 439.995 C 1796.42 603.86 1881.28 822.157 1881.49 1055.84 C 1881.45 1291.4 1795.08 1518.02 1630.25 1687.16 C 1481.1 1840.21 1272.07 1934.49 1057.25 1935.07 C 1002.14 1935.4 959.206 1933.49 903.807 1924.84 C 741.892 1898.67 591.055 1826.06 469.612 1715.83 C 343.606 1602.68 249.755 1436.06 209.835 1272.03 C 195.352 1212.52 189.092 1157.69 185.899 1096.83 C 175.122 906 228.266 717.019 336.928 559.773 C 355.435 533.045 378.59 502.408 400.356 478.282 C 524.826 337.961 693.259 244.07 878.065 211.987 C 924.317 203.911 964.167 200.933 1010.75 198.532 z"/>
<path transform="translate(0,0)" fill="rgb(13,27,41)" d="M 783.802 582.516 C 770.492 578.505 760.363 573.609 753.429 560.415 C 751.253 556.225 749.853 551.675 749.298 546.986 C 747.595 532.832 747.994 488.747 751.487 475.661 C 761.094 439.675 808.873 446.03 838.135 446.044 L 918.655 446.053 L 1028.84 446.039 C 1048.99 446.027 1069.31 445.507 1089.45 446.163 C 1095.82 446.37 1103.23 446.449 1109.32 448.443 C 1120.29 452.034 1130.14 460.539 1135.1 470.957 C 1141.14 483.642 1140.9 543.373 1136.05 556.687 C 1132.39 566.753 1125.12 574.328 1115.37 578.693 C 1111.46 580.442 1107.13 581.382 1102.94 582.234 C 1102.82 612.521 1102.54 637.839 1108.59 667.987 C 1117.33 711.5 1137.95 751.744 1157.71 791.218 C 1181.21 838.169 1203.16 881.998 1217.51 932.79 C 1231.24 981.383 1231.33 1019.72 1231.09 1069.32 L 1455.75 1069.29 L 1521.51 1069.2 C 1532.94 1069.18 1547.35 1068.56 1558.49 1069.95 C 1590.32 1073.9 1578.56 1118.17 1576.23 1139.6 L 1568.39 1211.52 L 1543.79 1435.59 L 1525.65 1600.98 C 1522.58 1630.28 1520.04 1661.01 1515.55 1690.17 C 1514.02 1700.08 1505.92 1712.55 1498.4 1719.31 C 1491.08 1725.99 1481.99 1730.41 1472.21 1732.06 C 1460.51 1733.92 1440.24 1733.31 1427.64 1733.3 L 1355.05 1733.25 L 1273.05 1733.26 C 1233.85 1733.37 1195.96 1740.51 1175.89 1698.12 C 1140.22 1727.93 1113.85 1723.3 1070.13 1723.29 L 970.137 1723.27 L 830.494 1723.3 C 806.99 1723.28 776.558 1723.94 753.722 1722.38 C 728.409 1720.64 696.986 1701.23 681.178 1681.29 C 653.755 1646.7 654.059 1622.82 654.122 1581.81 L 654.261 1529.16 C 642.769 1526.82 630.317 1525.98 618.821 1523.54 C 598.171 1519.16 575.982 1512.3 556.619 1504.09 C 477.469 1470.84 414.81 1407.45 382.48 1327.92 C 346.34 1238.53 348.837 1128.5 386.597 1039.98 C 425.251 949.611 498.461 878.465 589.901 842.41 C 603.643 837.115 617.657 832.555 631.884 828.751 C 646.285 825.042 703.544 814.612 715.817 819.963 C 761.005 731.681 784.357 684.213 783.802 582.516 z"/>
<path transform="translate(0,0)" fill="rgb(245,248,248)" d="M 654.261 1529.16 C 642.769 1526.82 630.317 1525.98 618.821 1523.54 C 598.171 1519.16 575.982 1512.3 556.619 1504.09 C 477.469 1470.84 414.81 1407.45 382.48 1327.92 C 346.34 1238.53 348.837 1128.5 386.597 1039.98 C 425.251 949.611 498.461 878.465 589.901 842.41 C 603.643 837.115 617.657 832.555 631.884 828.751 C 646.285 825.042 703.544 814.612 715.817 819.963 C 692.07 869.998 671.578 917.495 661.186 972.504 C 653.392 1013.77 654.144 1049.48 654.155 1091.15 L 654.2 1190.17 L 654.261 1529.16 z"/>
<path transform="translate(0,0)" fill="url(#Gradient1)" d="M 815.866 581.741 L 1071.35 581.721 C 1069.91 682.081 1084.81 720.016 1130.75 808.759 C 1160.14 868.696 1191.1 930.017 1196.96 997.592 C 1198.92 1020.12 1198.37 1046.33 1198.14 1069.21 C 1181.2 1069.24 1164.21 1069.25 1147.31 1069.03 C 1135.29 1068.87 1123.21 1068.84 1114.36 1078.24 C 1109.1 1083.83 1107.47 1091.31 1108.18 1098.86 C 1109.5 1115.23 1111.56 1131.78 1113.41 1148.11 L 1122.45 1229.59 L 1153.2 1506.77 L 1164.17 1606.87 C 1165.79 1621.95 1168.45 1641.48 1169.39 1656.39 C 1153.5 1677.8 1136.73 1688.39 1109.58 1688.94 C 1091.92 1689.3 1074.18 1689.07 1056.53 1689.05 L 935.115 1688.95 L 819.632 1688.97 C 786.625 1689.03 749.51 1694.6 722.109 1673.38 C 698.466 1655.08 688.628 1632.44 688.952 1602.91 C 689.185 1581.71 689.034 1560.16 689.04 1538.93 L 689.047 1374.11 L 689.026 1133.9 C 689.02 1086.26 686.569 1023.14 693.996 977.376 C 702.813 923.04 731.463 858.971 756.689 809.996 C 801.26 717.53 816.083 685.694 815.866 581.741 z"/>
<path transform="translate(0,0)" fill="rgb(199,225,238)" d="M 815.866 581.741 L 1071.35 581.721 C 1069.91 682.081 1084.81 720.016 1130.75 808.759 C 1105.2 808.695 1064.14 809.551 1039.87 806.24 C 999.794 800.773 974.021 793.434 932.516 793.554 C 893.156 793.667 869.816 799.881 832.046 805.054 C 807.092 808.645 781.898 810.297 756.689 809.996 C 801.26 717.53 816.083 685.694 815.866 581.741 z"/>
<path transform="translate(0,0)" fill="rgb(245,248,248)" d="M 791.188 1137.38 L 800.879 1137.59 C 811.445 1144.36 815.08 1147.64 815.344 1161.09 C 815.835 1186.1 815.506 1211.12 815.516 1236.14 L 815.686 1383.81 L 815.738 1479.15 C 815.738 1493.34 816.487 1521.46 814.274 1534.71 C 808.523 1541.73 807.059 1543.18 798.727 1546.65 C 791.169 1547.08 774.977 1542.89 774.474 1533.97 C 771.756 1485.75 773.126 1436.33 773.157 1387.85 L 773.232 1161.28 C 773.352 1148.82 778.779 1140.42 791.188 1137.38 z"/>
<path transform="translate(0,0)" fill="rgb(245,248,248)" d="M 1156.69 1249.06 L 1532.91 1249.02 L 1488.22 1656.63 C 1487.18 1666.6 1486.79 1685.03 1480.42 1692.31 C 1468.92 1705.47 1437.43 1702.18 1421.21 1702.15 L 1348.01 1702.01 L 1271.34 1702.14 C 1258.38 1702.16 1244.57 1702.37 1231.72 1701.89 C 1226.07 1701.67 1217.03 1699.64 1213 1695.55 C 1208.89 1691.36 1205.1 1687.21 1204.26 1681.16 C 1201.65 1662.45 1199.73 1642.98 1197.68 1624.24 L 1184.87 1506.6 L 1166.59 1341.27 C 1163.39 1312.55 1158.55 1277.57 1156.69 1249.06 z"/>
<path transform="translate(0,0)" fill="rgb(199,225,238)" d="M 1139.83 1100.91 C 1185.09 1100.23 1231.94 1100.88 1277.4 1100.87 L 1549.04 1100.87 L 1537.69 1205.24 L 1536.32 1217.94 L 1153.04 1218 C 1151.13 1206.73 1149.75 1189.67 1148.45 1177.86 L 1139.83 1100.91 z"/>
<path transform="translate(0,0)" fill="rgb(199,225,238)" d="M 792.554 477.285 L 986.443 477.267 C 1019.74 477.243 1052.99 477.113 1086.33 477.395 C 1103.64 477.542 1106.92 481.292 1107.33 499.329 C 1107.46 504.832 1107.95 512.247 1107.42 517.564 C 1105.97 532.119 1112.99 548.28 1093.96 550.54 L 881.921 550.568 C 851.196 550.591 818.428 551.829 787.855 548.92 C 776.086 547.801 781.571 495.308 781.988 485.961 C 782.167 481.93 789.107 478.625 792.554 477.285 z"/>
<path transform="translate(0,0)" fill="rgb(117,177,215)" d="M 1311.51 730.5 C 1321.38 728.009 1331.82 731.022 1338.84 738.385 C 1345.87 745.748 1348.38 756.321 1345.43 766.058 C 1342.47 775.795 1334.5 783.187 1324.57 785.405 C 1309.51 788.77 1294.54 779.409 1290.97 764.394 C 1287.39 749.379 1296.55 734.279 1311.51 730.5 z"/>
<path transform="translate(0,0)" fill="rgb(117,177,215)" d="M 1421.84 851.472 C 1437.18 849.833 1450.92 860.978 1452.49 876.324 C 1454.06 891.669 1442.85 905.365 1427.5 906.865 C 1412.25 908.355 1398.66 897.235 1397.1 881.988 C 1395.54 866.74 1406.6 853.099 1421.84 851.472 z"/>
</svg>