<svg version="1.1" xmlns="http://www.w3.org/2000/svg" style="display: block;" viewBox="193.333 130.667 1660 1704" width="1660" height="1704" preserveAspectRatio="none">
<defs>
	<linearGradient id="Gradient1" gradientUnits="userSpaceOnUse" x1="960.753" y1="521.739" x2="892.695" y2="1572.72">
		<stop class="stop0" offset="0" stop-opacity="1" stop-color="rgb(200,224,245)"/>
		<stop class="stop1" offset="1" stop-opacity="1" stop-color="rgb(244,239,235)"/>
	</linearGradient>
</defs>
<path transform="translate(0,0)" fill="rgb(205,226,243)" d="M 1013.15 164.427 C 1015.88 164.089 1021.16 164.101 1023.97 164.104 C 1236.1 164.342 1432.59 240.426 1582.82 391.648 C 1737.63 549.402 1822.95 762.495 1819.8 983.498 C 1819.55 1152.42 1768.51 1317.37 1673.3 1456.91 C 1630.59 1519.63 1577.66 1579.43 1518.19 1626.9 C 1399.78 1721.34 1256.9 1780.08 1106.3 1796.22 C 1084.61 1798.5 1055.91 1800.88 1034.28 1800.78 C 832.72 1802.35 638.054 1727.48 489.491 1591.26 C 365.027 1475.25 279.833 1323.32 245.77 1156.62 C 226.144 1065.16 222.691 967.041 233.317 874.103 C 253.885 699.09 329.868 535.237 450.167 406.472 C 600.391 245.351 795.917 172.239 1013.15 164.427 z"/>
<path transform="translate(0,0)" fill="rgb(1,17,37)" d="M 778.375 525.227 C 735.575 507.315 749.813 476.148 747.407 439.098 C 747.092 434.237 749.729 424.661 751.74 420.281 C 756.728 409.649 765.852 401.523 776.988 397.793 C 789.724 393.434 826.313 395.063 840.954 395.057 L 934.015 395.048 L 1018.58 395.086 C 1034.42 395.098 1050.93 395.422 1066.16 395.468 C 1082.94 395.517 1103.47 408.534 1106.51 424.799 C 1109.4 440.227 1110.78 475.51 1108.42 490.627 C 1107.71 495.482 1106.17 500.179 1103.87 504.515 C 1097.8 515.848 1089.22 520.563 1077.94 525.315 C 1077.87 553.3 1076.73 581.926 1080.72 609.565 C 1087.74 658.072 1109.65 698.796 1130.15 742.419 C 1148.06 780.532 1166.39 820.253 1178.19 860.767 C 1186.01 887.112 1190.97 914.222 1192.99 941.628 C 1193.78 953.304 1193.36 968.034 1194.34 978.59 C 1219.76 979.405 1247.77 978.824 1273.35 978.797 L 1413.57 978.715 L 1465.56 978.681 C 1475.93 978.646 1486.66 978.329 1496.92 979.317 C 1501.61 979.768 1509.3 984.453 1512.27 987.824 C 1523.79 1000.89 1515.69 1036.06 1513.69 1052.62 L 1504.51 1128.27 L 1480.22 1337.68 L 1463.38 1488.35 C 1462.01 1500.85 1460.82 1513.46 1459.25 1525.94 C 1456.11 1551.02 1457.65 1573.63 1436.97 1591.75 C 1429.47 1598.27 1420.29 1602.57 1410.47 1604.14 C 1401.52 1605.63 1381.29 1605.1 1371.44 1605.09 L 1302.79 1605.01 L 1230.66 1605.1 C 1193.69 1605.27 1164.11 1610.99 1143.16 1573.1 C 1103.98 1603.94 1075.55 1598.14 1028.51 1598.14 L 907.807 1598.17 L 804.072 1598.17 C 787.419 1598.16 769.605 1598.7 753.038 1597.79 C 726.544 1596.33 699.371 1579.63 683.706 1558.85 C 674.746 1546.89 668.517 1533.12 665.458 1518.5 C 661.876 1501.64 663.072 1483.34 662.922 1466.08 C 662.701 1440.65 663.405 1414.92 662.875 1389.51 C 661.707 1398.19 662.013 1406.93 662.073 1415.68 C 642.018 1414.19 616.781 1407.7 598.018 1400.39 C 518.759 1369.54 458.062 1309.16 423.051 1232.48 C 384.306 1148.18 380.997 1051.85 413.867 965.09 C 450.284 867.841 528.291 788.875 628.279 757.206 C 650.519 750.162 703.862 738.75 725.788 746.976 C 767.833 659.778 782.861 625.888 778.375 525.227 z"/>
<path transform="translate(0,0)" fill="rgb(247,249,249)" d="M 662.073 1415.68 C 642.018 1414.19 616.781 1407.7 598.018 1400.39 C 518.759 1369.54 458.062 1309.16 423.051 1232.48 C 384.306 1148.18 380.997 1051.85 413.867 965.09 C 450.284 867.841 528.291 788.875 628.279 757.206 C 650.519 750.162 703.862 738.75 725.788 746.976 C 692.651 816.07 663.865 883.82 663.061 961.617 C 662.722 994.468 662.954 1027.39 662.971 1060.24 L 662.985 1278.06 L 663.022 1350.4 C 663.028 1362.28 663.477 1377.85 662.875 1389.51 C 661.707 1398.19 662.013 1406.93 662.073 1415.68 z"/>
<path transform="translate(0,0)" fill="url(#Gradient1)" d="M 813.203 525.089 C 862.69 524.104 914.038 525.593 963.669 524.962 C 974.336 524.826 1038.25 524.239 1045.19 526.401 C 1048.29 537.066 1046.72 570.839 1047.21 583.97 C 1047.96 607.686 1051.2 631.088 1058.63 653.772 C 1082.78 727.487 1124.32 791.917 1147.32 866.709 C 1156.15 894.818 1161.37 923.937 1162.84 953.364 C 1163.24 960.085 1164.62 971.07 1161.52 976.905 C 1146.22 987.809 1073.5 959.122 1077.68 1009.2 C 1079.36 1029.27 1081.93 1049.32 1084.26 1069.33 L 1096.7 1178.47 L 1136.26 1530.7 C 1127.95 1546.7 1116.37 1555.65 1100.08 1562.3 C 1080.38 1568.51 1040.41 1566.38 1018.45 1566.38 L 898.348 1566.38 L 803.749 1566.39 C 766.934 1566.37 734.038 1572.05 708.806 1539.66 C 690.524 1516.19 693.857 1493.35 693.617 1465.38 C 693.485 1450.09 693.626 1434.81 693.639 1419.58 L 693.637 1259.82 L 693.634 1058.88 C 693.629 1026.19 692.249 979.767 694.349 947.979 C 696.006 925.18 699.927 902.603 706.053 880.581 C 728.233 798.326 776.348 729.822 800.075 648.848 C 807.908 622.113 810.055 593.992 809.843 566.282 C 809.755 554.822 809.853 543.168 810.011 531.701 C 810.054 527.9 810.725 528.132 813.203 525.089 z"/>
<path transform="translate(0,0)" fill="rgb(247,249,249)" d="M 787.924 857.971 C 849.763 857.927 910.375 866.451 972.22 865.78 C 993.784 865.546 1015.32 864.932 1036.83 863.31 C 1056.7 862.244 1076.94 859.539 1096.77 862.419 C 1119.94 889.329 1124.36 929.175 1123.93 963.168 C 1086.07 963.405 1055.8 968.365 1056.94 1016.6 C 1057.78 1051.82 1060.97 1087.27 1062.83 1122.49 L 1075.43 1362.77 L 1079.01 1430.02 C 1079.78 1444.48 1081.36 1465.9 1079.54 1479.85 C 1077.7 1494.84 1071.09 1508.85 1060.7 1519.82 C 1042.67 1538.57 1024.51 1539.48 1000.22 1539.67 C 949.019 1540.07 897.748 1539.37 846.57 1539.53 L 791.773 1539.7 C 781.698 1539.72 763.254 1539.89 753.792 1538.29 C 744.824 1536.7 736.546 1532.43 730.044 1526.06 C 723.913 1520.12 715.136 1505.91 714.266 1497.4 C 712.307 1478.25 712.922 1457.19 712.904 1437.83 L 712.813 1330.61 L 712.53 976.402 C 712.655 943.994 717.852 897.741 741.822 873.685 C 742.939 872.553 744.095 871.459 745.288 870.407 C 746.235 870.124 754.184 865.629 756.515 864.602 C 767.707 859.673 775.881 858.401 787.924 857.971 z"/>
<path transform="translate(0,0)" fill="rgb(247,249,249)" d="M 745.288 870.407 L 745.33 868.716 C 742.687 868.661 743.561 869.047 741.515 867.838 C 744.238 850.362 757.269 823.282 764.647 806.132 C 779.685 771.173 795.831 738.518 807.117 701.843 C 817.235 671.124 821.767 642.655 826.177 610.421 C 828.672 592.187 821.713 556.281 838.04 543.86 C 842.98 540.103 855.865 547.398 856.399 552.16 C 868.029 656.053 819.185 762.5 787.924 857.971 C 775.881 858.401 767.707 859.673 756.515 864.602 C 754.184 865.629 746.235 870.124 745.288 870.407 z"/>
<path transform="translate(0,0)" fill="rgb(247,249,249)" d="M 1168.81 1546.78 C 1165.7 1512.1 1161.06 1475.38 1157.16 1440.64 L 1138.81 1274.6 C 1136.54 1254.1 1125.2 1168.04 1127.95 1155.11 C 1131.82 1151.53 1148.01 1151.73 1153.48 1151.82 C 1247.85 1153.42 1343.57 1149.7 1437.81 1152.05 C 1450.06 1151.66 1470.06 1147.22 1468.55 1164.23 C 1466.76 1184.35 1464.42 1204.23 1462.09 1224.29 L 1448.25 1344.04 L 1432.52 1488.07 C 1430.19 1509.07 1428.38 1530.19 1425.53 1551.1 C 1421.63 1579.74 1388.32 1573.55 1367.29 1573.53 L 1298.44 1573.5 L 1229.42 1573.51 C 1203.19 1573.59 1173.25 1580.74 1168.81 1546.78 z"/>
<path transform="translate(0,0)" fill="rgb(205,226,243)" d="M 1113.43 1010.23 L 1363.72 1010.19 C 1380.62 1010.19 1475.45 1008.9 1485.47 1012.18 C 1487.36 1020.48 1476.98 1098.02 1475.67 1112.94 C 1474.72 1116.17 1472.97 1119.51 1469.09 1119.69 C 1461.26 1120.05 1453.31 1119.87 1445.46 1119.87 L 1388.98 1119.84 L 1195.94 1119.86 C 1176.83 1119.86 1157.69 1119.99 1138.59 1119.78 C 1128.77 1119.68 1121.49 1121 1120.07 1109.14 C 1116.67 1080.56 1113.68 1051.91 1110.25 1023.32 C 1109.46 1016.67 1109.29 1015.03 1113.43 1010.23 z"/>
<path transform="translate(0,0)" fill="rgb(205,226,243)" d="M 787.901 427.126 C 841.658 425.967 900.174 427.057 954.447 427.051 L 1022.74 427.045 C 1030.09 427.044 1072.14 425.062 1074.97 431.946 C 1080.41 445.208 1077.03 470.683 1077.17 485.525 C 1077.2 488.553 1072.5 491.709 1070.07 493.121 C 979.13 494.375 887.778 492.392 796.764 493.089 C 776.044 494.772 777.864 480.479 778.824 463.904 C 779.678 449.149 774.026 435.98 787.901 427.126 z"/>
<path transform="translate(0,0)" fill="rgb(139,184,229)" d="M 1371.87 771.592 C 1386.02 767.997 1400.39 776.614 1403.89 790.79 C 1407.38 804.965 1398.66 819.273 1384.46 822.664 C 1370.4 826.02 1356.27 817.407 1352.81 803.375 C 1349.36 789.344 1357.87 775.151 1371.87 771.592 z"/>
<path transform="translate(0,0)" fill="rgb(139,184,229)" d="M 1267.99 658.441 C 1281.85 654.31 1296.43 662.257 1300.47 676.149 C 1304.51 690.041 1296.47 704.566 1282.55 708.514 C 1268.76 712.427 1254.4 704.475 1250.39 690.711 C 1246.39 676.948 1254.25 662.534 1267.99 658.441 z"/>
</svg>