<svg version="1.1" xmlns="http://www.w3.org/2000/svg" style="display: block;" viewBox="153.333 105.333 1757.333 1833.333" width="1757.333" height="1833.333" preserveAspectRatio="none">
<path transform="translate(0,0)" fill="rgb(253,229,173)" d="M 1002.5 140.423 C 1007.71 139.876 1018.29 139.979 1023.76 139.968 C 1086.44 139.419 1149.02 144.949 1210.63 156.482 C 1367.11 187.766 1510.94 264.404 1624.17 376.848 C 1744.62 498.815 1826.01 653.891 1857.98 822.301 C 1870.38 888.213 1876.37 955.171 1875.88 1022.24 C 1875.25 1267.02 1778.32 1501.72 1606.03 1675.61 C 1466.55 1814.82 1258.7 1903.03 1061.5 1902.85 C 1041.59 1902.91 1008.68 1903.86 989.618 1902.58 C 821.435 1890.66 660.68 1828.63 528.089 1724.48 C 492.923 1696.57 457.662 1665.18 427.288 1632.07 C 281.672 1473.1 197.513 1267.42 189.927 1051.97 C 177.475 744.893 307.218 448.642 565.485 276.378 C 697.828 188.105 844.65 146.577 1002.5 140.423 z"/>
<path transform="translate(0,0)" fill="rgb(16,31,39)" d="M 1004.09 498.193 L 1054.22 381.961 C 1062.73 362.331 1071.55 338.796 1082.76 320.692 C 1096.52 298.473 1132.54 301.675 1153.4 310.396 C 1187.06 324.473 1179.96 374.636 1183.84 405.833 C 1188.77 445.549 1189.46 487.661 1194.14 527.642 C 1218.91 531.103 1253.32 535.32 1276.46 542.797 C 1318.78 556.474 1297.9 615.703 1295.97 647.496 C 1294.87 665.542 1292.94 692.836 1277.77 704.133 C 1276.83 704.844 1275.87 705.522 1274.88 706.165 C 1332.79 812.527 1315.63 854.581 1300.92 968.031 C 1293.79 1022.01 1286.97 1076.02 1280.44 1130.07 C 1366.11 1158.96 1407.37 1257.75 1394.69 1344.02 C 1392.16 1361.25 1384.41 1378.87 1382.91 1396.23 C 1418.21 1398.19 1426.24 1391.88 1458.52 1382.76 C 1496.56 1372.02 1544.98 1384.91 1570.83 1415.1 C 1613.92 1463.1 1604.96 1537.45 1557.08 1578.63 C 1514.83 1614.97 1457.12 1616.47 1406.63 1599.5 C 1384.68 1641.59 1321.41 1666.48 1277.19 1671.84 C 1249.09 1675.24 1172.15 1677.3 1148.65 1666.52 C 1132.94 1673.43 1117.6 1678.43 1100.48 1680.32 C 1036.74 1687.36 810.512 1650.5 746.708 1628.78 C 728.678 1622.65 712.066 1614.01 697.255 1601.99 C 668.05 1578.29 653.563 1547.7 649.698 1510.77 C 639.341 1506.21 624.594 1502.21 611.494 1496.4 C 559.685 1473.59 514.413 1438.17 479.811 1393.36 C 425.739 1323.48 403.197 1232.37 414.211 1145.04 C 427.08 1046.28 478.446 956.611 557.124 895.55 C 606.612 857.475 665.621 833.748 727.692 826.965 C 750.578 824.305 760.528 822.901 783.381 825.849 C 802.623 734.254 807.11 711.822 878.718 645.352 C 870.922 636.02 867.837 631.911 869.367 618.944 C 871.227 603.184 875.228 587.922 878.213 572.359 C 881.669 556.964 885.926 529.223 892.41 515.504 C 895.33 509.419 899.614 504.088 904.929 499.928 C 919.822 488.048 934.997 488.858 952.48 491.147 L 1004.09 498.193 z"/>
<path transform="translate(0,0)" fill="rgb(250,196,89)" d="M 649.698 1510.77 C 639.341 1506.21 624.594 1502.21 611.494 1496.4 C 559.685 1473.59 514.413 1438.17 479.811 1393.36 C 425.739 1323.48 403.197 1232.37 414.211 1145.04 C 427.08 1046.28 478.446 956.611 557.124 895.55 C 606.612 857.475 665.621 833.748 727.692 826.965 C 750.578 824.305 760.528 822.901 783.381 825.849 L 687.894 1288.98 L 666.178 1395.26 C 659.725 1426.87 647.159 1480.28 649.698 1510.77 z"/>
<path transform="translate(0,0)" fill="rgb(250,196,89)" d="M 1280.44 1130.07 C 1366.11 1158.96 1407.37 1257.75 1394.69 1344.02 C 1392.16 1361.25 1384.41 1378.87 1382.91 1396.23 C 1418.21 1398.19 1426.24 1391.88 1458.52 1382.76 C 1496.56 1372.02 1544.98 1384.91 1570.83 1415.1 C 1613.92 1463.1 1604.96 1537.45 1557.08 1578.63 C 1514.83 1614.97 1457.12 1616.47 1406.63 1599.5 C 1384.68 1641.59 1321.41 1666.48 1277.19 1671.84 C 1249.09 1675.24 1172.15 1677.3 1148.65 1666.52 C 1156.38 1662.76 1164.57 1657.54 1171.41 1652.36 C 1192.41 1636.4 1208.37 1614.71 1217.36 1589.91 C 1225.09 1568.1 1227.37 1542.82 1230.37 1519.79 L 1239.73 1447.99 L 1280.44 1130.07 z"/>
<path transform="translate(0,0)" fill="rgb(16,31,39)" d="M 1382.91 1396.23 C 1418.21 1398.19 1426.24 1391.88 1458.52 1382.76 C 1496.56 1372.02 1544.98 1384.91 1570.83 1415.1 C 1613.92 1463.1 1604.96 1537.45 1557.08 1578.63 C 1514.83 1614.97 1457.12 1616.47 1406.63 1599.5 C 1381.66 1590.39 1358.86 1576.18 1339.69 1557.76 C 1291.3 1511.88 1266.49 1438.03 1345.28 1401.74 C 1355.7 1396.94 1371.49 1396.4 1382.91 1396.23 z"/>
<path transform="translate(0,0)" fill="rgb(250,196,89)" d="M 1327.73 1463.48 C 1333.14 1445.77 1348.07 1431.08 1366.69 1428.67 C 1383.87 1426.44 1402.46 1429.71 1419.69 1426.51 C 1453.52 1419.21 1476.2 1403.77 1512.09 1415.4 C 1531.92 1421.74 1548.36 1435.8 1557.69 1454.4 C 1563.61 1466.36 1566.38 1479.62 1565.75 1492.94 C 1558.26 1566.06 1489.73 1588.58 1426.02 1569.79 C 1385.72 1557.9 1322.49 1510.53 1327.73 1463.48 z"/>
<path transform="translate(0,0)" fill="rgb(243,173,47)" d="M 1327.73 1463.48 C 1368.22 1507.94 1451.69 1544.99 1509.66 1513.42 C 1523.73 1505.75 1535.82 1489.63 1551.43 1485.65 C 1556.01 1484.48 1561.44 1492.08 1565.75 1492.94 C 1558.26 1566.06 1489.73 1588.58 1426.02 1569.79 C 1385.72 1557.9 1322.49 1510.53 1327.73 1463.48 z"/>
<path transform="translate(0,0)" fill="rgb(253,229,173)" d="M 1504.7 1431.09 C 1517.46 1430.71 1542.37 1441.22 1523.69 1452.56 C 1510.69 1454.13 1487.36 1444.54 1504.7 1431.09 z"/>
<path transform="translate(0,0)" fill="rgb(250,196,89)" d="M 913.215 653.212 C 1021.6 668.719 1129.87 684.991 1238.02 702.027 C 1242.96 714.966 1251.51 730.908 1257.98 743.447 C 1276.33 779.026 1286.25 813.49 1282.18 853.978 C 1277.37 901.802 1270.18 950.613 1263.96 998.488 L 1228.42 1274.48 L 1202.97 1471.13 L 1195.5 1528.98 C 1190.46 1567.8 1186.23 1594.8 1154.38 1621.83 C 1124.11 1647.51 1091.05 1648.94 1053.24 1646.22 C 978.38 1641.65 900.461 1625.61 826.677 1612.2 C 765.217 1600.62 694.115 1587.52 683.74 1513.12 C 679.813 1484.95 689.511 1451.08 694.997 1423.2 L 716.315 1316.21 L 782.617 992.268 L 811.832 851.947 C 818.717 818.663 825.08 782.025 836.759 750.234 C 852.358 707.768 888.576 685.796 913.215 653.212 z"/>
<path transform="translate(0,0)" fill="rgb(253,229,173)" d="M 903.164 783.054 C 914.105 783.184 920.079 786.412 924.315 797.161 C 927.021 804.028 925.734 811.212 924.334 818.273 C 917.863 850.927 910.675 883.457 903.77 916.028 L 872.071 1070.71 L 837.36 1248.55 C 833.805 1267.06 824.028 1330.62 816.898 1344.28 C 812.915 1351.92 808.057 1356.05 799.94 1358.68 C 783.992 1358.49 774.859 1346.65 777.506 1331.28 C 784.639 1289.89 793.521 1248.64 801.814 1207.46 L 844.679 994.251 L 869.542 873.232 C 873.935 851.875 878.091 828.625 884.034 807.731 C 887.501 795.54 892.006 788.775 903.164 783.054 z"/>
<path transform="translate(0,0)" fill="rgb(250,196,89)" d="M 902.424 616.611 C 906.616 601.064 916.4 532.197 927.226 524.931 C 929.784 523.214 932.766 522.618 935.799 522.731 C 946.883 523.146 958.152 525.313 969.123 526.917 C 987.978 529.675 1006.82 532.546 1025.64 535.532 L 1187.07 560.619 L 1233.04 567.729 C 1278.5 574.833 1272.44 575.373 1266.3 619.928 L 1259.73 670.714 C 1233.54 666.611 1199.51 660.18 1173.87 657.289 L 902.424 616.611 z"/>
<path transform="translate(0,0)" fill="rgb(243,173,47)" d="M 1187.07 560.619 L 1233.04 567.729 C 1278.5 574.833 1272.44 575.373 1266.3 619.928 L 1259.73 670.714 C 1233.54 666.611 1199.51 660.18 1173.87 657.289 C 1174.32 649.443 1177.53 631.748 1178.82 623.393 C 1182.13 601.959 1184.93 582.248 1187.07 560.619 z"/>
<path transform="translate(0,0)" fill="rgb(250,196,89)" d="M 1037.92 503.532 L 1084.35 396.247 C 1091.28 380.059 1098.01 363.792 1105.13 347.689 C 1110.27 336.08 1116.53 337.731 1127.33 339.329 C 1132.98 340.245 1140.46 340.628 1144.03 345.773 C 1147.81 351.225 1158.76 503.952 1159.47 522.077 C 1141.35 519.331 1123.23 516.491 1105.14 513.557 C 1082.83 510.273 1060.26 506.297 1037.92 503.532 z"/>
<path transform="translate(0,0)" fill="rgb(243,173,47)" d="M 1127.33 339.329 C 1132.98 340.245 1140.46 340.628 1144.03 345.773 C 1147.81 351.225 1158.76 503.952 1159.47 522.077 C 1141.35 519.331 1123.23 516.491 1105.14 513.557 C 1111.88 474.862 1115.85 430.729 1121.38 391.525 C 1123.14 379.039 1127.4 349.745 1127.33 339.329 z"/>
<path transform="translate(0,0)" fill="rgb(16,31,39)" d="M 1551.92 1008.34 C 1562.25 1007.09 1572.7 1007.36 1582.95 1009.13 C 1608.54 1013.54 1631.23 1028.17 1645.8 1049.65 C 1664.99 1077.58 1669.05 1110.38 1662.93 1143.26 C 1651.3 1205.75 1595.72 1247.07 1545.97 1280.84 C 1523.03 1294.65 1495.61 1308.09 1470.35 1290.44 C 1444.31 1272.26 1458.26 1230.47 1456.99 1204.54 C 1454.4 1151.39 1440.66 1099.97 1475.84 1053.38 C 1495.5 1027.35 1519.61 1013.26 1551.92 1008.34 z"/>
<path transform="translate(0,0)" fill="rgb(250,196,89)" d="M 1492.64 1268.32 C 1486.96 1264.74 1485.03 1261.38 1485.38 1254.65 C 1486.18 1239.36 1487.99 1224.01 1488.73 1208.68 C 1490.11 1180.24 1481.85 1152.01 1484.17 1123.7 C 1485.19 1110.91 1488.55 1098.42 1494.1 1086.85 C 1523.1 1027.05 1606.27 1022.32 1628.71 1089.25 C 1636.84 1115.66 1631.65 1144.87 1619.01 1169.01 C 1613.74 1178.94 1607.26 1188.19 1599.73 1196.54 C 1577.71 1221.14 1535.53 1254.85 1504.67 1267.47 C 1500.52 1269.17 1496.45 1267.91 1492.64 1268.32 z"/>
<path transform="translate(0,0)" fill="rgb(243,173,47)" d="M 1628.71 1089.25 C 1636.84 1115.66 1631.65 1144.87 1619.01 1169.01 C 1613.74 1178.94 1607.26 1188.19 1599.73 1196.54 C 1577.71 1221.14 1535.53 1254.85 1504.67 1267.47 C 1500.52 1269.17 1496.45 1267.91 1492.64 1268.32 C 1496.21 1264.33 1500.51 1256.46 1504.2 1251.74 C 1539.4 1206.61 1573.49 1159.89 1596.37 1107.1 C 1603.55 1090.53 1609.71 1089.25 1627 1090.74 L 1628.71 1089.25 z"/>
<path transform="translate(0,0)" fill="rgb(253,229,173)" d="M 1542.29 1062.08 C 1548.51 1061.68 1553.61 1061.08 1556.78 1067.15 C 1556.74 1078.42 1538.78 1088.98 1532.95 1098.16 C 1528.14 1105.74 1525.86 1113.45 1521.15 1121.31 C 1517.64 1123.4 1517.08 1123.6 1513.23 1122.72 C 1504.37 1116.2 1509.61 1100.1 1513.36 1091.69 C 1519.41 1078.11 1527.96 1067.57 1542.29 1062.08 z"/>
<path transform="translate(0,0)" fill="rgb(250,196,89)" d="M 1514.51 809.109 C 1518.68 808.966 1523.13 808.749 1527.09 810.101 C 1534.96 812.832 1541.29 818.781 1544.51 826.462 C 1552.39 844.927 1544.12 862.595 1525.8 869.952 C 1489.82 872.208 1477.98 819.551 1514.51 809.109 z"/>
<path transform="translate(0,0)" fill="rgb(250,196,89)" d="M 1438.98 713.848 C 1448.3 710.997 1458.44 713.431 1465.45 720.202 C 1472.46 726.974 1475.25 737.018 1472.72 746.433 C 1470.2 755.849 1462.76 763.154 1453.31 765.512 C 1439.2 769.027 1424.86 760.665 1420.98 746.657 C 1417.1 732.65 1425.08 718.098 1438.98 713.848 z"/>
</svg>