<svg version="1.1" xmlns="http://www.w3.org/2000/svg" style="display: block;" viewBox="129.333 101.333 1772 1841.333" width="1772" height="1841.333" preserveAspectRatio="none">
<path transform="translate(0,0)" fill="rgb(245,209,160)" d="M 990.609 138.444 C 994.973 138.105 1000.06 138.171 1004.47 138.123 C 1054.55 137.192 1104.62 140.321 1154.19 147.478 C 1324.93 173.879 1483.02 253.368 1606.03 374.669 C 1741.16 509.197 1828.52 684.276 1854.75 873.141 C 1896.57 1158.45 1814.71 1456.24 1611.12 1664.63 C 1491.41 1787.17 1331.31 1867.83 1162.34 1894.31 C 1124.97 1900.16 1081.11 1905.82 1043.25 1906.07 C 990.384 1906.66 937.553 1903.13 885.237 1895.51 C 718.046 1868.27 562.655 1792.17 438.646 1676.77 C 270.884 1519.69 170.93 1281.5 165.59 1053.2 C 161.198 865.446 201.294 693.78 299.584 533.889 C 328.212 486.834 361.526 442.796 399.018 402.446 C 559.345 232.066 757.145 145.66 990.609 138.444 z"/>
<path transform="translate(0,0)" fill="rgb(14,30,41)" d="M 769.802 789.553 C 776.586 679.148 813.107 582.2 897.645 507.436 C 938.712 471.227 988.269 445.99 1041.71 434.072 C 1057.39 430.551 1072.69 428.706 1088.44 425.94 C 1092.98 425.142 1104.91 419.9 1109.72 418.052 C 1125.77 411.838 1142.99 409.261 1160.15 410.506 C 1191.81 412.275 1221.45 426.602 1242.5 450.308 C 1258.42 468.565 1264.62 486.001 1268.35 509.571 C 1298.28 544.651 1318.37 578.485 1330.57 623.46 C 1366.7 756.58 1312.34 900.236 1212.4 991.325 C 1178.43 1022.29 1147.81 1048.86 1127.54 1091.34 C 1165.45 1101.57 1205.44 1115.15 1225.86 1151.35 C 1238 1172.88 1236.86 1184.48 1239.34 1208.17 C 1299.84 1157.91 1384.67 1129.94 1463.67 1136.15 C 1555.17 1143.35 1625.78 1206.31 1615.11 1302.54 C 1606.22 1382.68 1539.71 1454.58 1463.65 1477.95 C 1495.75 1607.31 1359.68 1689.12 1248.72 1697.55 C 1191.54 1701.89 1146.82 1697.95 1096.92 1667.59 C 1054.86 1679.5 1009.38 1681.69 965.965 1681.63 C 958.682 1689.59 954.697 1701 946.662 1704.32 C 934.237 1704.63 924.68 1682.36 917.685 1680.03 C 881.203 1667.91 850.26 1652.1 821.887 1625.59 C 816.81 1620.85 811.562 1613.85 806.226 1609.15 L 805.254 1608.31 C 710.194 1632.09 603.262 1609.73 540.357 1530.37 C 511.547 1494.02 495.926 1457.82 484.54 1413.26 C 466.506 1405.67 431.068 1371.09 417.278 1355.62 C 362.733 1294.47 332.863 1210.33 337.48 1128.39 C 341.266 1061.21 369.258 991.154 420.48 946.154 C 453.336 917.29 498.362 898.1 542.022 894.219 C 559.088 892.703 575.638 893.983 592.705 895.17 C 616.793 806.558 686.022 785.821 769.802 789.553 z"/>
<path transform="translate(0,0)" fill="rgb(14,30,41)" d="M 1239.34 1208.17 C 1299.84 1157.91 1384.67 1129.94 1463.67 1136.15 C 1555.17 1143.35 1625.78 1206.31 1615.11 1302.54 C 1606.22 1382.68 1539.71 1454.58 1463.65 1477.95 C 1495.75 1607.31 1359.68 1689.12 1248.72 1697.55 C 1191.54 1701.89 1146.82 1697.95 1096.92 1667.59 C 1048.62 1634.08 1031.95 1582.91 1055.41 1527.87 C 1081.63 1466.38 1136.08 1434.43 1195.32 1410.4 C 1141.84 1338.91 1181.53 1261.51 1239.34 1208.17 z"/>
<path transform="translate(0,0)" fill="rgb(227,172,107)" d="M 1205.81 1345.93 C 1204.18 1327.92 1208.07 1309.49 1215.89 1293.27 C 1242.06 1238.97 1290.6 1207.65 1345.19 1186.83 C 1420.64 1158.06 1543.2 1156.3 1575.75 1247.14 C 1586.7 1280.74 1580.62 1320.31 1564.48 1351.15 C 1539.69 1398.48 1497.47 1430.7 1447.25 1446.76 C 1421.92 1416.13 1395.12 1402.28 1356.85 1391.98 C 1338.9 1389.54 1330.16 1387.42 1310.97 1387.01 C 1281.22 1388.48 1260.46 1389.77 1231.42 1398.9 C 1216.57 1382.1 1208.51 1368.32 1205.81 1345.93 z"/>
<path transform="translate(0,0)" fill="rgb(212,152,83)" d="M 1575.75 1247.14 C 1586.7 1280.74 1580.62 1320.31 1564.48 1351.15 C 1539.69 1398.48 1497.47 1430.7 1447.25 1446.76 C 1421.92 1416.13 1395.12 1402.28 1356.85 1391.98 C 1365.17 1389.29 1378.43 1387.85 1387.72 1385.84 C 1414.51 1380.28 1440.18 1370.25 1463.65 1356.17 C 1482.72 1344.48 1497.76 1331.37 1512 1313.97 C 1532.19 1289.28 1537.28 1259.78 1570.84 1249.54 C 1573.38 1248.76 1573.69 1248.91 1575.75 1247.14 z"/>
<path transform="translate(0,0)" fill="rgb(212,152,83)" d="M 1205.81 1345.93 C 1229.83 1345.97 1261 1365.89 1283.6 1374.89 C 1290.7 1377.71 1305.13 1383.18 1310.97 1387.01 C 1281.22 1388.48 1260.46 1389.77 1231.42 1398.9 C 1216.57 1382.1 1208.51 1368.32 1205.81 1345.93 z"/>
<path transform="translate(0,0)" fill="rgb(245,209,160)" d="M 1376.56 1209.46 C 1383.57 1210.07 1388.84 1213.35 1391.38 1220.14 C 1393.03 1224.46 1392.81 1229.26 1390.77 1233.41 C 1384.48 1245.98 1339.89 1258.05 1325.43 1268.44 C 1315.61 1275.5 1290.75 1293.63 1280.89 1296.57 C 1268.57 1295.4 1266.98 1290.11 1263.84 1279.34 C 1265.57 1271.43 1269.54 1263.35 1274.97 1257.36 C 1302.32 1227.24 1337.38 1213.32 1376.56 1209.46 z"/>
<path transform="translate(0,0)" fill="rgb(227,172,107)" d="M 1082.8 1598.05 C 1046.64 1444.2 1408.85 1341.51 1433.55 1503.57 C 1445.56 1667.11 1131.96 1720.4 1082.8 1598.05 z"/>
<path transform="translate(0,0)" fill="rgb(212,152,83)" d="M 1433.55 1503.57 C 1445.56 1667.11 1131.96 1720.4 1082.8 1598.05 C 1096.62 1591.12 1125.07 1598.51 1140.03 1601.3 C 1212.07 1614.72 1295.06 1601.28 1355.43 1558.71 C 1386.77 1536.61 1390.74 1510.38 1433.55 1503.57 z"/>
<path transform="translate(0,0)" fill="rgb(245,209,160)" d="M 1242.3 1455.42 C 1254.8 1454.46 1272.84 1453.65 1271.65 1472.01 C 1271.37 1476.41 1268.26 1480.7 1264.3 1482.7 C 1253.86 1487.43 1241.65 1490.74 1230.48 1493.87 C 1198.24 1502.92 1177.91 1517.67 1152.56 1538.84 C 1134.63 1554.64 1117.95 1524.37 1134.7 1507.18 C 1159.74 1481.5 1206.88 1458.66 1242.3 1455.42 z"/>
<path transform="translate(0,0)" fill="rgb(227,172,107)" d="M 592.705 895.17 C 616.793 806.558 686.022 785.821 769.802 789.553 C 763.095 863.341 753.319 917.123 691.758 968.342 C 663.328 991.996 634.538 1011.34 606.879 1036.92 C 532.859 1105.19 486.522 1198.29 476.685 1298.51 C 473.329 1335.18 475.304 1377.41 484.54 1413.26 C 466.506 1405.67 431.068 1371.09 417.278 1355.62 C 362.733 1294.47 332.863 1210.33 337.48 1128.39 C 341.266 1061.21 369.258 991.154 420.48 946.154 C 453.336 917.29 498.362 898.1 542.022 894.219 C 559.088 892.703 575.638 893.983 592.705 895.17 z"/>
<path transform="translate(0,0)" fill="rgb(227,172,107)" d="M 1127.54 1091.34 C 1165.45 1101.57 1205.44 1115.15 1225.86 1151.35 C 1238 1172.88 1236.86 1184.48 1239.34 1208.17 C 1181.53 1261.51 1141.84 1338.91 1195.32 1410.4 C 1136.08 1434.43 1081.63 1466.38 1055.41 1527.87 C 1031.95 1582.91 1048.62 1634.08 1096.92 1667.59 C 1054.86 1679.5 1009.38 1681.69 965.965 1681.63 C 958.682 1689.59 954.697 1701 946.662 1704.32 C 934.237 1704.63 924.68 1682.36 917.685 1680.03 C 881.203 1667.91 850.26 1652.1 821.887 1625.59 C 816.81 1620.85 811.562 1613.85 806.226 1609.15 L 805.254 1608.31 C 962.45 1565.95 1071.23 1433.26 1095.65 1273.71 C 1106.41 1203.45 1094.59 1160.52 1127.54 1091.34 z"/>
<path transform="translate(0,0)" fill="rgb(227,172,107)" d="M 574.474 1517.13 C 549.096 1489.92 531.113 1451.21 520.996 1415.98 C 485.298 1291.69 537.156 1144.93 631.476 1059.57 C 685.69 1010.5 742.099 987.096 776.551 916.158 C 806.901 853.665 800.324 803.888 809.702 739.538 C 815.988 697.415 829.873 656.783 850.679 619.622 C 903.676 524.555 987.729 470.438 1093.72 457.737 C 1100.73 456.896 1116.71 449.072 1124.97 446.782 C 1148.72 440.182 1174.12 443.211 1195.65 455.21 C 1228.59 474.068 1231.87 493.15 1240.12 526.429 C 1241.13 530.491 1253.11 542.688 1256.8 547.665 C 1266.08 560.218 1274.14 573.631 1280.86 587.721 C 1325.31 680.78 1310.54 791.48 1259.73 878.626 C 1226.65 935.356 1184.57 967.774 1139.51 1012.52 C 1095.43 1056.29 1069.89 1129.42 1067.03 1190.17 C 1065.59 1217.26 1065.3 1244.32 1060.7 1271.09 C 1039.31 1408 939.501 1538.66 802.029 1573.65 C 741.313 1589.1 671.88 1584.38 616.573 1552.42 C 603.526 1544.88 583.447 1529.26 574.474 1517.13 z"/>
<path transform="translate(0,0)" fill="rgb(212,152,83)" d="M 1195.65 455.21 C 1228.59 474.068 1231.87 493.15 1240.12 526.429 C 1241.13 530.491 1253.11 542.688 1256.8 547.665 C 1266.08 560.218 1274.14 573.631 1280.86 587.721 C 1325.31 680.78 1310.54 791.48 1259.73 878.626 C 1226.65 935.356 1184.57 967.774 1139.51 1012.52 C 1095.43 1056.29 1069.89 1129.42 1067.03 1190.17 C 1065.59 1217.26 1065.3 1244.32 1060.7 1271.09 C 1039.31 1408 939.501 1538.66 802.029 1573.65 C 741.313 1589.1 671.88 1584.38 616.573 1552.42 C 603.526 1544.88 583.447 1529.26 574.474 1517.13 C 575.053 1515.61 575.252 1515.29 575.363 1514.11 C 575.634 1511.26 577.5 1505.04 578.945 1502.61 C 593.468 1478.17 652.964 1500.29 676.595 1499.95 C 697.968 1499.65 706.061 1497.67 725.781 1492.47 C 734.678 1487.1 750.647 1479.92 760.513 1475.19 C 778.818 1464.21 797.583 1453.15 814.072 1439.52 C 820.103 1430.87 833.348 1419.65 840.864 1411.17 C 850.058 1400.79 858.657 1389.42 868.451 1379.81 C 872.952 1375.39 877.111 1375.65 882.927 1375.98 C 888.033 1364.93 910.325 1332.99 911.462 1322 C 909.536 1308.59 925.833 1290.71 930.588 1276.94 C 937.602 1256.63 942.202 1236.81 945.176 1215.49 C 946.214 1208.04 947.044 1204.7 951.749 1198.79 C 952.224 1183.36 956.728 1159.45 958.809 1143.88 C 960.082 1134.35 963.122 1113.32 965.765 1104.62 C 965.624 1104.32 965.479 1104.02 965.343 1103.72 C 958.028 1087.6 972.158 1052.68 978.533 1036.15 C 985.878 1017.12 1010.05 962.565 1027.96 954.606 C 1030.41 954.019 1094.48 890.784 1099.35 884.414 C 1105.82 868.555 1122.67 857.572 1132.92 843.832 C 1147.77 823.931 1156.72 799.671 1169.42 779.288 L 1170.36 777.79 C 1171.97 770.825 1176.7 759.01 1178.93 751.062 C 1181.52 741.867 1183.7 728.863 1186.63 720.645 C 1180.08 708.287 1187.96 672.617 1185.86 656.366 C 1183.74 639.979 1181.73 623.388 1178.74 606.964 C 1178.07 603.259 1179.43 595.966 1182.18 592.932 C 1190.97 584.981 1199.88 587.938 1206.72 594.621 C 1208.04 579.245 1184.59 541.692 1180.76 523.449 C 1175.32 497.548 1182.31 477.181 1195.65 455.21 z"/>
<path transform="translate(0,0)" fill="rgb(150,100,49)" d="M 1027.96 954.606 C 1034.66 955.049 1039.48 956.48 1043.9 961.718 C 1052.4 971.801 1043.18 983.137 1037.79 991.486 C 1020.88 1017.65 1008.94 1047.05 999.524 1076.63 C 997.027 1084.44 993.096 1102.65 987.056 1107.68 C 980.872 1112.84 971.488 1109.32 965.765 1104.62 C 965.624 1104.32 965.479 1104.02 965.343 1103.72 C 958.028 1087.6 972.158 1052.68 978.533 1036.15 C 985.878 1017.12 1010.05 962.565 1027.96 954.606 z"/>
<path transform="translate(0,0)" fill="rgb(150,100,49)" d="M 951.749 1198.79 C 957.738 1195.63 963.85 1194.38 970.49 1196.47 C 974.255 1197.66 977.234 1200.02 978.889 1203.64 C 986.093 1219.37 966.176 1284.27 959.524 1300.49 C 955.851 1309.45 948.779 1329.41 939.516 1333.92 C 934.887 1336.17 928.529 1335.01 923.982 1333.13 C 918.719 1330.94 913.948 1327.23 911.462 1322 C 909.536 1308.59 925.833 1290.71 930.588 1276.94 C 937.602 1256.63 942.202 1236.81 945.176 1215.49 C 946.214 1208.04 947.044 1204.7 951.749 1198.79 z"/>
<path transform="translate(0,0)" fill="rgb(150,100,49)" d="M 1170.36 777.79 C 1181.4 774.741 1194.75 778.28 1198.55 790.113 C 1200.4 795.856 1196.7 803.69 1194.21 808.884 C 1183.9 830.428 1169.29 850.545 1155.42 869.868 C 1146.65 882.079 1136.64 897.072 1121.57 901.201 C 1109.77 904.586 1101.53 895.021 1099.35 884.414 C 1105.82 868.555 1122.67 857.572 1132.92 843.832 C 1147.77 823.931 1156.72 799.671 1169.42 779.288 L 1170.36 777.79 z"/>
<path transform="translate(0,0)" fill="rgb(150,100,49)" d="M 1186.63 720.645 C 1180.08 708.287 1187.96 672.617 1185.86 656.366 C 1183.74 639.979 1181.73 623.388 1178.74 606.964 C 1178.07 603.259 1179.43 595.966 1182.18 592.932 C 1190.97 584.981 1199.88 587.938 1206.72 594.621 C 1218.38 619.931 1220.8 654.417 1220.22 682.16 C 1219.97 693.972 1220.19 720.091 1206.51 725.573 C 1200.51 727.976 1191.57 724.779 1186.63 720.645 z"/>
<path transform="translate(0,0)" fill="rgb(150,100,49)" d="M 814.072 1439.52 C 820.103 1430.87 833.348 1419.65 840.864 1411.17 C 850.058 1400.79 858.657 1389.42 868.451 1379.81 C 872.952 1375.39 877.111 1375.65 882.927 1375.98 C 888.442 1379.73 894.321 1383.83 895.654 1390.82 C 896.904 1397.38 893.902 1401.98 890.145 1407.03 C 883.298 1416.23 841.326 1461.31 831.778 1461.91 C 827.778 1462.17 824.518 1460.54 821.777 1457.68 C 816.735 1452.43 814.007 1446.78 814.072 1439.52 z"/>
<path transform="translate(0,0)" fill="rgb(172,118,60)" d="M 760.513 1475.19 C 764.618 1476.36 770.446 1478.11 771.966 1482.43 C 780.312 1506.19 734.241 1532.34 723.299 1501.05 C 722.071 1497.54 724.033 1495.13 725.781 1492.47 C 734.678 1487.1 750.647 1479.92 760.513 1475.19 z"/>
<path transform="translate(0,0)" fill="rgb(150,100,49)" d="M 903.743 876.23 C 922.338 876.298 930.76 886.759 923.785 904.419 C 911.698 935.027 873.003 1022.87 843.863 1037 C 835.885 1037.27 827.334 1035.14 823.569 1027.46 C 817.896 1015.88 836.423 999.315 843.153 990.249 C 852.555 977.387 860.866 963.762 867.998 949.515 C 873.975 937.248 879.208 924.632 883.667 911.736 C 888.369 897.789 889.177 882.601 903.743 876.23 z"/>
<path transform="translate(0,0)" fill="rgb(150,100,49)" d="M 867.057 1132.06 C 870.988 1131.97 874.319 1132.29 877.877 1134.12 C 881.961 1136.22 884.731 1139.41 885.909 1143.89 C 889.61 1157.97 860.16 1218.71 851.928 1233.81 C 846.55 1243.67 842.466 1248.89 831.282 1252.18 C 824.741 1251.32 814.145 1247.94 812.212 1240.58 C 807.09 1221.07 835.553 1196.55 841.855 1178.07 C 845.976 1165.98 848.681 1159.15 851.985 1147.77 C 854.48 1139.18 859.785 1135.36 867.057 1132.06 z"/>
<path transform="translate(0,0)" fill="rgb(150,100,49)" d="M 1072.9 754.051 C 1074.64 753.996 1076.38 753.986 1078.12 754.019 C 1105.96 754.801 1091.52 789.29 1084.42 802.964 C 1074.34 822.393 1063.6 843.414 1045.74 856.87 C 1030.56 861.864 1021.58 850.736 1024.91 836.448 C 1028.91 821.188 1040.86 809.359 1048.59 795.888 C 1057.09 781.06 1057.43 763.215 1072.9 754.051 z"/>
<path transform="translate(0,0)" fill="rgb(150,100,49)" d="M 761.022 1083.19 C 767.992 1084.15 773.393 1086.85 777.08 1093.19 C 779.315 1097.04 779.804 1101.66 778.425 1105.89 C 776.81 1111.02 770.951 1117.34 766.908 1120.86 C 749.596 1135.92 739.854 1155.67 727.184 1174.21 C 725.928 1176.05 720.841 1178.65 718.77 1179.74 C 666.201 1175.39 741.411 1088.43 761.022 1083.19 z"/>
<path transform="translate(0,0)" fill="rgb(150,100,49)" d="M 773.061 1313.99 C 795.29 1313.13 800.928 1333.25 787.323 1349.71 C 772.541 1367.59 762.14 1397.72 742.182 1410.76 C 729.194 1414.48 718.391 1407.78 721.796 1393.37 C 725.927 1381.07 735.814 1370.55 742.778 1359.65 C 752.667 1344.17 756.497 1323.28 773.061 1313.99 z"/>
<path transform="translate(0,0)" fill="rgb(150,100,49)" d="M 1071.53 541.12 C 1072.67 541.21 1075.12 541.34 1076.05 541.754 C 1111.38 557.453 1062.91 584.135 1055.14 593.119 C 1041.63 608.749 1040.08 621.505 1025.83 628.59 C 1002.65 626.994 1005.45 605.038 1015.13 590.436 C 1025.94 574.136 1052.01 545.574 1071.53 541.12 z"/>
<path transform="translate(0,0)" fill="rgb(150,100,49)" d="M 646.771 1248.99 C 642.967 1246.16 631.528 1243.13 626.549 1243.07 C 624.118 1244.56 623.56 1245.16 620.752 1245.67 C 608.213 1235.93 617.101 1217.97 629.652 1213.46 C 640.909 1209.41 652.784 1214.62 662.986 1219.15 C 687.495 1230.79 689.047 1238.53 676.339 1262.04 C 670.975 1271.96 662.969 1293.65 648.329 1288.66 C 636.092 1284.49 642.498 1257.05 646.771 1248.99 z"/>
<path transform="translate(0,0)" fill="rgb(172,118,60)" d="M 646.771 1248.99 C 642.967 1246.16 631.528 1243.13 626.549 1243.07 C 624.118 1244.56 623.56 1245.16 620.752 1245.67 C 608.213 1235.93 617.101 1217.97 629.652 1213.46 C 640.909 1209.41 652.784 1214.62 662.986 1219.15 C 663.786 1225.83 664.704 1228.89 666.525 1235.34 C 659.869 1238.97 651.392 1242.99 646.771 1248.99 z"/>
<path transform="translate(0,0)" fill="rgb(150,100,49)" d="M 1133.17 604.944 C 1153.01 603.045 1147.85 625.634 1146.79 639.054 C 1144.83 663.873 1148.94 696.793 1116.31 700.841 C 1085.67 695.142 1107.34 666.286 1114.23 649.111 C 1118.77 637.8 1125.76 612.969 1133.17 604.944 z"/>
<path transform="translate(0,0)" fill="rgb(150,100,49)" d="M 630.124 1336.09 C 659.181 1336.06 648.206 1356.73 646.038 1374.36 C 644.016 1390.8 652.532 1412.09 631.987 1420.03 C 618.107 1420.23 611.486 1413.17 611.448 1399.27 C 611.401 1381.81 609.64 1342.67 630.124 1336.09 z"/>
<path transform="translate(0,0)" fill="rgb(150,100,49)" d="M 933.126 648.099 C 947.345 646.895 954.742 655.935 967.087 661.038 C 987.286 669.389 1007.78 689.375 978.675 703.689 C 965.617 704.622 929.172 688.063 922.068 677.272 C 919.465 673.39 918.629 668.588 919.765 664.054 C 921.573 656.868 927.172 651.906 933.126 648.099 z"/>
<path transform="translate(0,0)" fill="rgb(150,100,49)" d="M 950.618 745.005 C 970.368 745.092 970.988 763.003 969.414 778.77 C 967.97 793.232 963.122 808.239 949.005 814.861 C 928.172 815.855 928.372 799.266 932.147 783.408 C 935.12 770.923 939.227 752.35 950.618 745.005 z"/>
<path transform="translate(0,0)" fill="rgb(212,152,83)" d="M 588.342 766.569 C 605.775 761.913 623.662 772.364 628.165 789.838 C 632.667 807.313 622.058 825.106 604.545 829.454 C 587.249 833.748 569.724 823.299 565.278 806.042 C 560.831 788.785 571.124 771.168 588.342 766.569 z"/>
<path transform="translate(0,0)" fill="rgb(212,152,83)" d="M 1464.71 918.539 C 1475.22 916.832 1485.84 920.909 1492.51 929.212 C 1499.17 937.515 1500.86 948.761 1496.92 958.654 C 1492.98 968.546 1484.03 975.557 1473.48 977.007 C 1457.44 979.212 1442.62 968.111 1440.22 952.103 C 1437.82 936.095 1448.74 921.133 1464.71 918.539 z"/>
</svg>