<svg version="1.1" xmlns="http://www.w3.org/2000/svg" style="display: block;" viewBox="197.333 136 1709.333 1761.333" width="1709.333" height="1761.333" preserveAspectRatio="none">
<path transform="translate(0,0)" fill="rgb(228,236,206)" d="M 1012.37 170.546 C 1228.48 159.728 1433.86 228.614 1595.01 373.673 C 1718.69 485.467 1806.15 631.658 1846.18 793.496 C 1859.91 849.353 1868.17 913.368 1871.14 970.989 C 1883.72 1200.58 1805.19 1425.85 1652.62 1597.87 C 1507.73 1756.82 1305.89 1852.07 1091.08 1862.86 C 1060.04 1863.79 1031.81 1864.45 1000.69 1862.23 C 815.266 1849.18 639.789 1773.46 503.089 1647.5 C 329.93 1485.78 240.622 1274.36 232.416 1038.46 C 224.505 811.02 300.916 587.849 457.533 420.861 C 601.648 266.701 801.425 176.571 1012.37 170.546 z"/>
<path transform="translate(0,0)" fill="rgb(8,54,33)" d="M 1070.2 965.64 C 1178.23 870.348 1235.9 748.708 1279.66 614.149 C 1291.47 577.842 1302.8 541.64 1318.44 506.771 C 1334.26 471.53 1377.4 455.803 1401.02 492.615 C 1413.4 511.967 1400.76 541.946 1393.73 562.506 C 1389.86 573.775 1386.19 585.114 1382.73 596.515 C 1474.07 696.7 1468.04 838.23 1418.29 955.969 C 1494.91 983.472 1559.79 1038.44 1594.79 1112.52 C 1630.67 1188.57 1635.12 1275.69 1607.17 1355 C 1578.8 1433.15 1527.73 1487.89 1455.02 1526.62 C 1455.13 1530.1 1456.08 1541.37 1454.33 1543.75 C 1454.22 1545.5 1454.1 1547.26 1453.97 1549.01 C 1440.67 1716.06 1171.74 1736.97 1131.39 1575.13 C 1127.63 1560.02 1128.2 1546.09 1129.49 1530.76 C 1129.19 1530.01 1128.89 1529.26 1128.59 1528.51 C 1116.48 1528.14 1088.77 1530.46 1077.84 1530.47 C 1038.75 1530.49 983.457 1519.91 949.232 1501.34 C 880.64 1553.93 795.164 1579.59 708.945 1573.47 C 632.075 1567.61 558.218 1531.51 507.181 1472.82 C 489.331 1452.04 457.053 1403.35 484.164 1378.68 C 493.577 1371.83 507.617 1368.97 518.381 1365.21 C 553.316 1353 589.005 1337.33 619.135 1315.76 C 623.437 1312.68 630.399 1297.2 633.98 1291.73 C 651.92 1264.36 675.614 1241.23 703.41 1223.96 C 725.882 1209.6 750.66 1199.22 776.657 1193.28 C 781.094 1192.27 798.541 1190.67 800.305 1189.73 C 830.777 1173.54 866.798 1146.18 893.051 1124.78 C 920.328 1043.9 984.077 979.051 1070.2 965.64 z"/>
<path transform="translate(0,0)" fill="rgb(208,219,156)" d="M 1418.29 955.969 C 1494.91 983.472 1559.79 1038.44 1594.79 1112.52 C 1630.67 1188.57 1635.12 1275.69 1607.17 1355 C 1578.8 1433.15 1527.73 1487.89 1455.02 1526.62 C 1455.13 1530.1 1456.08 1541.37 1454.33 1543.75 C 1454.22 1545.5 1454.1 1547.26 1453.97 1549.01 C 1440.67 1716.06 1171.74 1736.97 1131.39 1575.13 C 1127.63 1560.02 1128.2 1546.09 1129.49 1530.76 C 1129.19 1530.01 1128.89 1529.26 1128.59 1528.51 C 1116.48 1528.14 1088.77 1530.46 1077.84 1530.47 C 1038.75 1530.49 983.457 1519.91 949.232 1501.34 C 982.117 1476.5 1009.02 1447.01 1033.3 1413.95 C 1041.49 1411.61 1049.48 1408.44 1057.34 1405.43 C 1159.46 1366.98 1236.49 1284.81 1278.25 1185.01 C 1288.06 1161.55 1297.47 1129.04 1306.95 1105.63 C 1308.39 1102.06 1333.61 1079.91 1338.89 1074.34 C 1372.12 1039.31 1399.05 1000.37 1418.29 955.969 z"/>
<path transform="translate(0,0)" fill="rgb(8,54,33)" d="M 1129.49 1530.76 C 1138.52 1485.43 1160.01 1452.37 1198.99 1426.51 C 1239.84 1399.7 1289.63 1390.15 1337.49 1399.94 C 1376.58 1408.12 1411.47 1430.18 1432.8 1464.14 C 1450.12 1491.7 1454.04 1512.25 1454.33 1543.75 C 1454.22 1545.5 1454.1 1547.26 1453.97 1549.01 C 1440.67 1716.06 1171.74 1736.97 1131.39 1575.13 C 1127.63 1560.02 1128.2 1546.09 1129.49 1530.76 z"/>
<path transform="translate(0,0)" fill="rgb(208,219,156)" d="M 1165.22 1572.25 C 1162.41 1561.67 1161.42 1550.7 1162.29 1539.79 C 1170.97 1433.18 1334.07 1389.88 1399.06 1472.88 C 1419.85 1499.43 1424.47 1523.1 1421.12 1555.9 C 1394.37 1682.66 1196.75 1682.22 1165.22 1572.25 z"/>
<path transform="translate(0,0)" fill="rgb(171,191,102)" d="M 1383.23 1549.22 C 1399.26 1548.23 1407.08 1547.31 1421.12 1555.9 C 1394.37 1682.66 1196.75 1682.22 1165.22 1572.25 C 1168.39 1570.88 1173.81 1566.38 1176.78 1564.11 C 1180.89 1566.88 1184.74 1570.21 1189 1572.9 C 1236.26 1602.73 1311.88 1608.29 1358.55 1574.63 C 1367.7 1568.04 1373.11 1555.25 1383.23 1549.22 z"/>
<path transform="translate(0,0)" fill="rgb(228,236,206)" d="M 1262.71 1456.25 C 1276.16 1455.24 1289.48 1465.9 1280.01 1479.18 C 1274.12 1487.43 1256.93 1490.75 1248.46 1496.2 C 1241.69 1500.56 1234.68 1505.64 1227.96 1510.41 C 1199.96 1523.17 1192.4 1469.73 1262.71 1456.25 z"/>
<path transform="translate(0,0)" fill="rgb(142,173,86)" d="M 1446.4 1215.99 C 1461.59 1212.78 1476.49 1222.52 1479.65 1237.71 C 1482.81 1252.91 1473.02 1267.78 1457.81 1270.89 C 1442.68 1273.99 1427.89 1264.26 1424.74 1249.13 C 1421.6 1234 1431.28 1219.18 1446.4 1215.99 z"/>
<path transform="translate(0,0)" fill="rgb(171,191,102)" d="M 1339.19 609.123 C 1403.68 644.575 1424.95 729.455 1423.27 798.087 C 1420.83 897.573 1376.51 993.059 1305.36 1062.15 C 1299.35 1068.58 1288.06 1079.07 1283.26 1085.35 C 1275.64 1095.32 1270.75 1117.37 1266.55 1130.08 C 1262.29 1142.64 1257.62 1155.04 1252.55 1167.29 C 1214.86 1256.97 1150.13 1332.87 1059.35 1371.45 C 1042.46 1378.63 1030.87 1381.78 1013.52 1386.78 C 996.219 1407.15 987.275 1422.29 967.326 1443.04 C 912.168 1499.91 838.15 1534.68 759.17 1540.83 C 748.96 1541.65 731.102 1542.17 720.996 1540.18 C 639.193 1534 562.814 1499.67 516.563 1429.33 C 554.762 1447.64 605.239 1460.46 647.339 1449.99 C 722.382 1478.72 847.839 1431.03 895.557 1369.45 C 917.564 1341.05 932.594 1308.62 962.572 1286.99 C 974.596 1278.31 986.759 1269.1 1000.53 1263 C 1015 1257.05 1028.62 1253.14 1043.11 1246.52 C 1063.07 1237.2 1081.72 1225.29 1098.59 1211.12 C 1142.54 1174.65 1174.74 1123.8 1192.19 1069.18 C 1194.81 1060.97 1195.65 1049.62 1197.79 1040.92 C 1202.79 1020.59 1206.34 1000.71 1205.97 979.662 C 1205.29 940.462 1196.72 907.964 1212.4 869.84 C 1224.16 841.274 1240.26 815.04 1258.67 790.196 C 1302.25 731.402 1332.02 684.966 1339.19 609.123 z"/>
<path transform="translate(0,0)" fill="rgb(142,173,86)" d="M 712.703 1487.33 C 715.701 1487.38 718.701 1487.39 721.699 1487.34 C 816.746 1486.22 884.526 1443.34 952.077 1380.86 C 973.874 1360.7 992.751 1338.48 1016.87 1321.06 C 1033.59 1308.48 1054.02 1302.26 1071.77 1291.71 C 1140.61 1250.76 1215.6 1187.57 1227.95 1103.85 C 1231.23 1081.56 1225.02 1036.68 1239.47 1019.2 C 1258.15 996.617 1285.41 977.893 1306.48 956.204 C 1306.03 983.56 1306.25 1010.89 1305.3 1038.24 C 1305.06 1045.37 1304.34 1055.31 1305.36 1062.15 C 1299.35 1068.58 1288.06 1079.07 1283.26 1085.35 C 1275.64 1095.32 1270.75 1117.37 1266.55 1130.08 C 1262.29 1142.64 1257.62 1155.04 1252.55 1167.29 C 1214.86 1256.97 1150.13 1332.87 1059.35 1371.45 C 1042.46 1378.63 1030.87 1381.78 1013.52 1386.78 C 996.219 1407.15 987.275 1422.29 967.326 1443.04 C 912.168 1499.91 838.15 1534.68 759.17 1540.83 C 748.96 1541.65 731.102 1542.17 720.996 1540.18 C 720.802 1534.17 717.638 1521.34 716.345 1514.91 C 714.266 1504.57 713.467 1497.92 712.703 1487.33 z"/>
<path transform="translate(0,0)" fill="rgb(208,219,156)" d="M 1079.66 996.389 C 1116.64 990.422 1174.92 1017.76 1161.88 1060.05 C 1137.65 1138.66 1080.25 1201.59 1004.01 1228.15 C 967.974 1239.05 924.287 1221.23 921.284 1179.83 C 915.056 1093.99 995.468 1005.65 1079.66 996.389 z"/>
<path transform="translate(0,0)" fill="rgb(228,236,206)" d="M 1011.5 1044.1 C 1032.84 1042.91 1035.23 1063.77 1020.99 1075.78 C 1007.73 1086.96 997.74 1100.07 988.953 1114.94 C 983.905 1123.49 981.222 1131.84 972.952 1137.9 C 926.807 1145.17 978.094 1054.83 1011.5 1044.1 z"/>
<path transform="translate(0,0)" fill="rgb(208,219,156)" d="M 807.48 1222.42 C 846.131 1219.68 891.792 1240.06 899.636 1281.55 C 903.769 1303.42 890.608 1323.21 878.71 1340.3 C 846.192 1387.01 789.715 1413.57 734.908 1422.83 C 718.312 1425.74 668.609 1430.12 658.725 1418.9 C 625.145 1380.79 647.781 1318.6 676.658 1288.27 C 714.246 1248.79 757.098 1225.86 807.48 1222.42 z"/>
<path transform="translate(0,0)" fill="rgb(228,236,206)" d="M 739.457 1263.03 C 751.505 1263.13 761.258 1271.47 757.233 1283.91 C 756.353 1286.66 754.871 1289.17 752.896 1291.27 C 750.61 1293.65 730.004 1308.2 725.062 1312.17 C 717.698 1318.08 703.786 1333.04 697.586 1336.27 C 682.497 1338.42 675.237 1325.26 681.172 1313.43 C 691.13 1293.57 718.971 1270.88 739.457 1263.03 z"/>
<path transform="translate(0,0)" fill="rgb(171,191,102)" d="M 610.958 1358.09 C 612.396 1360.42 611.193 1380.46 612.154 1386.34 C 614.593 1401.25 617.43 1410.05 623.429 1423.74 C 596.669 1422.31 579.858 1418.82 554.717 1410.72 C 544.038 1406.91 534.363 1402.49 524.232 1397.48 C 556.849 1385.63 580.629 1376 610.958 1358.09 z"/>
<path transform="translate(0,0)" fill="rgb(171,191,102)" d="M 1171.78 903.864 C 1173.11 905.807 1171.98 925.281 1172.17 930.131 C 1173.06 953.113 1174.75 975.787 1174.81 998.804 C 1165.97 988.544 1156.17 981.955 1144.47 975.523 C 1134.5 970.652 1126.66 968.738 1115.91 966.28 C 1139.42 943.226 1151.74 929.701 1171.78 903.864 z"/>
<path transform="translate(0,0)" fill="rgb(171,191,102)" d="M 1364.4 504.059 C 1367.59 504.374 1371.31 504.744 1372.95 507.83 C 1377.18 516.21 1372.03 528.539 1369.19 536.813 C 1364.1 551.612 1359.03 566.366 1354.13 581.223 L 1343.45 576.626 C 1337.68 574.679 1332.05 573.791 1326.07 572.641 C 1332.27 555.043 1338.96 535.021 1347.5 518.409 C 1351.71 510.204 1355.79 506.464 1364.4 504.059 z"/>
<path transform="translate(0,0)" fill="rgb(171,191,102)" d="M 888.549 1165.75 C 890.055 1167.6 890.424 1186.99 891.43 1192.51 C 893.568 1204.24 894.82 1208.5 899.156 1219.74 C 891.645 1213.84 884.389 1209.57 876.141 1204.82 C 867.06 1200.22 860.171 1198.1 850.439 1195.3 C 864.626 1185.24 875.229 1176.81 888.549 1165.75 z"/>
<path transform="translate(0,0)" fill="rgb(142,173,86)" d="M 1309.67 623.465 L 1311.45 625.608 C 1308.92 632.577 1306.68 643.257 1304.29 650.876 C 1298.74 668.574 1288.29 695.273 1277.9 710.627 C 1286.26 685.842 1303.63 647.255 1309.67 623.465 z"/>
<path transform="translate(0,0)" fill="rgb(171,191,102)" d="M 922.661 1249.43 C 930.496 1252.65 939 1257.32 947.889 1260.97 L 938.629 1268.44 C 936.366 1270.21 932.088 1274.39 929.79 1276.48 C 928.398 1265.07 927.017 1260.04 922.661 1249.43 z"/>
<path transform="translate(0,0)" fill="rgb(64,104,70)" d="M 1316.04 603.447 C 1314.77 611.959 1313.61 617.248 1311.45 625.608 L 1309.67 623.465 C 1311.66 617.021 1313.75 609.704 1316.04 603.447 z"/>
<path transform="translate(0,0)" fill="rgb(8,54,33)" d="M 636.569 770.418 C 677.374 766.571 721.197 782.369 753.278 807.2 C 793.29 838.057 819.321 883.617 825.586 933.756 C 831.067 977.207 821.133 1024.09 793.356 1058.42 C 763.221 1095.66 730.116 1110.46 683.966 1115.85 C 636.422 1117.69 593.48 1103.58 556.867 1072.78 C 519.114 1040.93 495.624 995.341 491.604 946.113 C 484.438 856.277 544.899 777.357 636.569 770.418 z"/>
<path transform="translate(0,0)" fill="rgb(208,219,156)" d="M 527.311 954.088 C 515.11 859.853 584.27 785.158 680.897 808.294 C 700.609 813.013 719.278 822.845 735.17 835.409 C 767.577 861.273 788.393 898.943 793.045 940.144 C 794.653 953.928 794.17 963.189 792.894 976.82 C 791.105 995.688 781.202 1019.3 770.19 1034.63 C 751.949 1059.76 724.357 1076.47 693.643 1081.01 C 613.028 1093.29 539.633 1033.3 527.311 954.088 z"/>
<path transform="translate(0,0)" fill="rgb(171,191,102)" d="M 527.311 954.088 C 530.846 953.081 533.681 947.237 536.254 942.71 C 540.846 934.327 547.53 918.123 559.991 924.076 C 563.789 925.89 567.835 938.421 569.555 942.762 C 592.139 999.754 658.045 1029.63 716.487 1014.06 C 728.603 1010.83 741.252 1005.5 751.314 997.632 C 765.735 985.969 770.16 969.305 792.894 976.82 C 791.105 995.688 781.202 1019.3 770.19 1034.63 C 751.949 1059.76 724.357 1076.47 693.643 1081.01 C 613.028 1093.29 539.633 1033.3 527.311 954.088 z"/>
<path transform="translate(0,0)" fill="rgb(228,236,206)" d="M 628.393 829.295 C 639.349 828.419 649.797 828.151 659.74 834.118 C 667.478 838.761 676.404 850.492 669.857 859.549 C 666.783 863.802 660.444 866.97 655.136 866.96 C 645.674 866.942 637.899 865.894 628.376 867.773 L 627.164 868.023 C 620.667 869.507 615.014 872.768 608.787 874.551 C 588.971 880.227 582.756 861.129 592.932 846.938 C 601.385 835.15 615.05 831.491 628.393 829.295 z"/>
<path transform="translate(0,0)" fill="rgb(142,173,86)" d="M 963.508 681.746 C 979.112 679.81 993.337 690.875 995.298 706.475 C 997.26 722.076 986.218 736.318 970.621 738.306 C 954.988 740.298 940.705 729.225 938.739 713.588 C 936.772 697.951 947.869 683.687 963.508 681.746 z"/>
<path transform="translate(0,0)" fill="rgb(208,219,156)" d="M 780.603 580.306 C 795.906 579.727 808.768 591.692 809.294 606.998 C 809.82 622.303 797.81 635.123 782.503 635.595 C 767.271 636.065 754.528 624.127 754.005 608.897 C 753.482 593.668 765.375 580.883 780.603 580.306 z"/>
<path transform="translate(0,0)" fill="rgb(208,219,156)" d="M 1022.09 1628.21 C 1043.34 1626 1051.79 1642.88 1033.75 1654.76 C 1013.57 1655.82 1003.97 1639.2 1022.09 1628.21 z"/>
</svg>