<svg version="1.1" xmlns="http://www.w3.org/2000/svg" style="display: block;" viewBox="136 110.667 1809.333 1870.667" width="1809.333" height="1870.667" preserveAspectRatio="none">
<path transform="translate(0,0)" fill="rgb(232,226,239)" d="M 997.599 147.415 C 998.563 147.356 999.527 147.296 1000.49 147.237 C 1062.88 145.277 1125.31 149.102 1186.99 158.663 C 1355.66 187.837 1511.73 266.853 1635.09 385.531 C 1691.66 439.036 1739.83 503.377 1778.98 570.548 C 1860.43 707.451 1904.97 863.14 1908.25 1022.4 C 1908.9 1049.06 1907.9 1076.07 1908.16 1102.75 C 1908.22 1108.8 1908.28 1115.52 1907.79 1121.52 C 1897.56 1237.15 1866.03 1349.89 1814.81 1454.06 C 1769.76 1547.77 1715.2 1620.76 1643.61 1695.41 C 1517.03 1825.06 1351.1 1909.19 1171.7 1934.68 C 1149.22 1938.04 1106.85 1943.74 1084.25 1944.24 C 1057.99 1944.15 1031.4 1944.77 1005.16 1944.44 C 992.616 1943.86 980.001 1941.95 967.495 1941.05 C 817.511 1930.16 656.207 1869.33 535.456 1779.48 C 403.457 1680.69 301.042 1547.63 239.33 1394.75 C 210.654 1321.65 190.515 1245.48 179.314 1167.75 C 172.309 1120.93 172.141 1079.83 172.323 1032.64 C 173.033 847.592 239.192 648.689 349.423 500.042 C 472.283 331.656 651.949 213.441 855.21 167.25 C 884.676 160.702 914.475 155.753 944.477 152.425 C 959.598 150.793 982.897 149.676 996.354 147.615 L 997.599 147.415 z"/>
<path transform="translate(0,0)" fill="rgb(20,38,61)" d="M 888.906 583.14 C 849.009 565.53 837.727 519.312 853.21 480.411 C 863.158 455.418 888.366 438.406 914.969 438.606 C 932.977 438.39 950.914 438.395 968.928 438.438 L 1062.85 438.493 L 1136.18 438.459 C 1149.52 438.46 1165.14 437.879 1178.24 439.026 C 1203.28 441.219 1226.46 461.268 1233.31 485.334 C 1244.31 523.908 1235.29 565.676 1196.28 583.369 L 1196.31 752.764 C 1196.29 775.544 1194.94 807.246 1197.45 829.141 C 1198.47 838.017 1215.42 870.199 1220.22 879.78 L 1249.48 938.623 L 1298.17 1036.37 C 1306.87 1053.85 1316.44 1074.29 1325.68 1091.27 C 1527.08 1096.61 1625.12 1285.65 1524.29 1457.98 C 1520.5 1464.45 1514.94 1473.66 1509.72 1478.91 C 1515.04 1549.11 1485.77 1613.95 1419.63 1644.11 C 1404.57 1651.02 1388.4 1655.19 1371.88 1656.42 C 1345.42 1658.48 1299.22 1656.87 1270.79 1656.86 L 1074.82 1656.9 L 838.865 1656.85 C 802.307 1656.84 751.624 1658.42 716.085 1656.44 C 701.294 1655.62 686.725 1652.48 672.909 1647.13 C 587.013 1614.3 556.234 1515.5 588.497 1433.21 C 583.616 1430.28 578.758 1427.3 573.924 1424.29 C 495.642 1375.33 432.45 1303.47 411.655 1211.58 C 396.353 1140.83 409.852 1066.9 449.168 1006.13 C 518.989 897.232 649.299 877.838 758.012 940.151 C 778.092 951.66 796.218 964.72 815.609 977.216 L 862.275 884.104 C 866.323 876.06 884.529 841.194 885.962 834.581 C 890.475 813.754 888.45 773.393 888.742 751.167 C 889.476 695.372 887.795 638.795 888.906 583.14 z"/>
<path transform="translate(0,0)" fill="rgb(208,198,229)" d="M 588.497 1433.21 C 583.616 1430.28 578.758 1427.3 573.924 1424.29 C 495.642 1375.33 432.45 1303.47 411.655 1211.58 C 396.353 1140.83 409.852 1066.9 449.168 1006.13 C 518.989 897.232 649.299 877.838 758.012 940.151 C 778.092 951.66 796.218 964.72 815.609 977.216 L 659.226 1290.21 C 636.465 1335.88 609.682 1387.1 588.497 1433.21 z"/>
<path transform="translate(0,0)" fill="rgb(208,198,229)" d="M 1325.68 1091.27 C 1527.08 1096.61 1625.12 1285.65 1524.29 1457.98 C 1520.5 1464.45 1514.94 1473.66 1509.72 1478.91 C 1508.07 1465.12 1504.64 1451.6 1499.52 1438.69 C 1493.64 1423.87 1483.86 1405.75 1476.45 1391.1 L 1437.88 1315.12 L 1325.68 1091.27 z"/>
<path transform="translate(0,0)" fill="rgb(246,248,251)" d="M 926.837 586.011 L 1157.96 586.042 C 1158.67 651.914 1158.13 719.201 1158.02 785.066 C 1157.92 842.843 1158.88 843.025 1184.16 893.788 L 1218.23 962.332 L 1381.45 1289.33 L 1433.05 1391.44 C 1441.49 1407.97 1456.47 1435.4 1462.9 1451.4 C 1468.99 1466.48 1472.09 1482.6 1472.03 1498.87 C 1471.99 1531.72 1458.93 1563.22 1435.7 1586.45 C 1395.93 1625.68 1347.42 1617 1295.9 1616.99 L 1159.5 1616.93 L 736.486 1616.99 C 701.066 1616.96 673.999 1612.34 648.818 1585.67 C 575.197 1507.69 634.972 1426.89 671.486 1352.83 L 856.536 981.691 C 870.222 954.044 884.053 926.469 898.03 898.968 C 902.941 889.244 920.585 855.367 922.483 846.736 C 929.525 814.718 926.751 763.156 926.716 729.657 L 926.837 586.011 z"/>
<path transform="translate(0,0)" fill="rgb(252,225,184)" d="M 940.364 1106.46 C 964.266 1105.58 997.115 1106.37 1020.81 1109.69 C 1050.54 1113.87 1075.82 1120.07 1106.47 1120.09 C 1128.19 1120.11 1147.48 1119.02 1169.17 1116.77 C 1195.04 1114.09 1217.07 1110.26 1243.21 1114.66 C 1249.82 1120.74 1267.44 1158.6 1272.72 1169.23 L 1322.76 1270.18 L 1380.59 1385.91 C 1392.78 1410.05 1404.94 1433.87 1416.56 1458.3 C 1430.47 1487.55 1426.64 1522.71 1403.24 1546.18 C 1393.4 1555.94 1380.9 1562.58 1367.3 1565.28 C 1352.98 1568.25 1310.43 1567.19 1293.36 1567.18 L 1157.25 1567.13 L 886.464 1566.79 L 788.606 1566.84 C 770.225 1566.86 751.876 1566.99 733.498 1566.64 C 714.604 1566.27 698.724 1561.26 684.841 1548.06 C 671.386 1535.09 663.571 1517.35 663.084 1498.66 C 662.463 1469.49 675.463 1447.87 688.045 1422.75 L 719.409 1360.29 L 798.499 1202.11 C 804.246 1190.59 836.43 1124.26 842.567 1117.9 C 872.668 1106.97 908.517 1107.31 940.364 1106.46 z"/>
<path transform="translate(0,0)" fill="rgb(246,248,251)" d="M 885.005 1171.21 C 891.455 1170.86 897.041 1170.67 903.079 1173.27 C 923.834 1182.22 914.146 1200.92 907.697 1215.94 C 880.978 1276.75 853.91 1337.41 826.494 1397.91 C 819.152 1414.09 812.046 1430.44 804.556 1446.56 C 796.836 1463.17 793.97 1473.2 775.877 1480.42 C 769.019 1481.22 765.827 1481.56 759.366 1478.72 C 753.111 1476.03 748.301 1470.8 746.141 1464.34 C 742.002 1452.27 747.242 1442.06 752.234 1431.17 C 788.95 1351.08 826.381 1271.29 863.97 1191.6 C 869.14 1180.64 873.292 1175.17 885.005 1171.21 z"/>
<path transform="translate(0,0)" fill="rgb(246,248,251)" d="M 1156.26 1297.18 C 1219.72 1294.32 1226.89 1399.76 1163.43 1405.41 C 1136.13 1406.24 1117.82 1392.23 1111.83 1365.5 C 1108.43 1349.72 1111.48 1333.23 1120.3 1319.71 C 1129.18 1306.35 1141.02 1300.2 1156.26 1297.18 z"/>
<path transform="translate(0,0)" fill="rgb(246,248,251)" d="M 996.995 1399.1 C 1001.39 1398.86 1006.44 1398.96 1010.9 1398.93 C 1037.6 1417.17 1019.82 1444.87 993.762 1450.22 C 953.627 1454.3 955.48 1409.13 996.995 1399.1 z"/>
<path transform="translate(0,0)" fill="rgb(246,248,251)" d="M 1080.4 547.779 C 1048.18 549.862 1012.01 546.595 979.366 547.928 C 956.535 547.375 929.259 549.126 906.897 547.134 C 882.711 544.98 879.263 499.396 895.23 485.821 C 899.313 482.349 903.423 479.262 908.683 479.014 C 928.966 478.058 949.472 478.505 969.788 478.515 L 1105.03 478.659 C 1101.99 494.241 1101.91 535.66 1088.77 546.213 C 1085.42 546.676 1083.68 546.994 1080.4 547.779 z"/>
<path transform="translate(0,0)" fill="rgb(232,226,239)" d="M 1105.03 478.659 C 1123.07 478.502 1141.14 478.373 1159.14 478.267 C 1170.3 478.201 1181.84 477.628 1190.28 486.168 C 1195.06 491.011 1198 497.479 1198.72 504.404 C 1200.36 520.098 1198.32 543.146 1179.38 546.937 C 1170.9 548.635 1162.15 547.863 1153.57 548.045 C 1129.27 547.649 1104.67 548.392 1080.4 547.779 C 1083.68 546.994 1085.42 546.676 1088.77 546.213 C 1101.91 535.66 1101.99 494.241 1105.03 478.659 z"/>
<path transform="translate(0,0)" fill="rgb(208,198,229)" d="M 1411.35 751.048 C 1434.65 748.392 1455.73 765.06 1458.51 788.35 C 1461.29 811.639 1444.74 832.802 1421.46 835.712 C 1398.01 838.644 1376.65 821.935 1373.84 798.465 C 1371.04 774.995 1387.86 753.724 1411.35 751.048 z"/>
<path transform="translate(0,0)" fill="rgb(208,198,229)" d="M 706.334 724.882 C 725.922 720.806 745.12 733.33 749.283 752.9 C 753.445 772.47 741.006 791.723 721.454 795.972 C 701.781 800.247 682.381 787.712 678.193 768.02 C 674.004 748.328 686.624 728.984 706.334 724.882 z"/>
<path transform="translate(0,0)" fill="rgb(208,198,229)" d="M 1533.45 944.062 C 1550.67 943.483 1565.15 956.842 1565.97 974.05 C 1566.79 991.258 1553.64 1005.93 1536.44 1006.99 C 1525.1 1007.69 1514.27 1002.23 1508.08 992.702 C 1501.9 983.174 1501.32 971.054 1506.57 960.981 C 1511.83 950.909 1522.09 944.444 1533.45 944.062 z"/>
</svg>