<svg width="2121" height="512" viewBox="0 0 2121 512" fill="none" xmlns="http://www.w3.org/2000/svg">
<path d="M2055.84 335.953C2042.52 335.953 2031.16 333.979 2021.77 330.031C2012.58 326.082 2005.07 320.629 1999.25 313.673C1993.43 306.717 1989.21 298.726 1986.58 289.702C1983.96 280.677 1982.64 270.994 1982.64 260.653C1982.64 249.937 1983.96 239.784 1986.58 230.195C1989.39 220.419 1993.62 211.769 1999.25 204.249C2004.88 196.729 2012.2 190.807 2021.21 186.482C2030.22 182.157 2040.83 179.995 2053.02 179.995C2065.23 179.995 2075.74 182.157 2084.55 186.482C2093.38 190.618 2100.42 196.447 2105.67 203.967C2111.12 211.487 2114.68 220.324 2116.37 230.477C2118.26 240.442 2118.34 251.441 2116.65 263.474L2007.69 265.166V242.322L2085.68 240.63L2080.05 253.885C2080.99 245.237 2080.61 237.81 2078.92 231.605C2077.23 225.401 2074.24 220.701 2069.91 217.504C2065.79 214.12 2060.16 212.428 2053.02 212.428C2045.52 212.428 2039.42 214.402 2034.72 218.35C2030.22 222.111 2026.94 227.469 2024.87 234.425C2022.81 241.381 2021.77 249.467 2021.77 258.679C2021.77 274.66 2024.59 286.412 2030.22 293.932C2036.04 301.452 2044.67 305.213 2056.12 305.213C2061.38 305.213 2065.69 304.554 2069.07 303.239C2072.65 301.734 2075.46 299.76 2077.52 297.316C2079.77 294.683 2081.27 291.676 2082.02 288.291C2082.96 284.907 2083.34 281.241 2083.15 277.293L2120.31 279.549C2120.69 286.13 2119.85 292.804 2117.78 299.572C2115.91 306.153 2112.43 312.169 2107.36 317.622C2102.49 323.075 2095.73 327.492 2087.09 330.877C2078.64 334.261 2068.23 335.953 2055.84 335.953Z" fill="#6265F1"/>
<path d="M1914.69 335.953C1906.05 335.953 1898.45 334.073 1891.88 330.313C1885.5 326.364 1880.15 320.629 1875.83 313.109C1871.52 305.589 1868.32 296.282 1866.26 285.189H1864.29L1864.85 332.005H1829.1L1829.38 275.882L1829.1 136H1869.92V178.303C1869.92 183.38 1869.64 188.925 1869.08 194.942C1868.7 200.959 1868.04 207.257 1867.11 213.838C1866.35 220.23 1865.42 226.905 1864.29 233.861H1866.82C1868.51 221.64 1871.52 211.582 1875.83 203.685C1880.15 195.601 1885.69 189.678 1892.44 185.918C1899.39 181.969 1907.37 179.995 1916.38 179.995C1927.45 179.995 1937.12 182.816 1945.38 188.456C1953.63 194.096 1960.02 202.557 1964.52 213.838C1969.03 225.119 1971.28 239.314 1971.28 256.423C1971.28 274.66 1968.74 289.607 1963.68 301.264C1958.8 312.922 1952.04 321.664 1943.4 327.492C1934.77 333.133 1925.2 335.953 1914.69 335.953ZM1901.17 302.956C1907.37 302.956 1912.62 301.077 1916.94 297.316C1921.26 293.368 1924.54 288.104 1926.79 281.523C1929.05 274.942 1930.17 267.609 1930.17 259.525C1930.17 251.065 1929.05 243.45 1926.79 236.682C1924.73 229.913 1921.54 224.555 1917.22 220.606C1912.9 216.47 1907.46 214.402 1900.89 214.402C1897.51 214.402 1894.13 215.06 1890.76 216.376C1887.56 217.692 1884.65 219.666 1882.03 222.298C1879.59 224.742 1877.43 227.751 1875.55 231.323C1873.67 234.895 1872.17 238.938 1871.05 243.45C1870.11 247.775 1869.64 252.475 1869.64 257.551V259.525C1869.64 265.917 1870.39 271.84 1871.89 277.293C1873.58 282.557 1875.83 287.163 1878.65 291.112C1881.46 294.872 1884.75 297.786 1888.5 299.854C1892.44 301.923 1896.67 302.956 1901.17 302.956Z" fill="#6265F1"/>
<path d="M1741.69 335.953C1727.61 335.953 1715.04 333.133 1703.96 327.492C1693.08 321.664 1684.54 313.015 1678.34 301.546C1672.33 290.078 1669.33 275.601 1669.33 258.115C1669.33 240.253 1672.52 225.588 1678.9 214.12C1685.29 202.652 1693.92 194.096 1704.81 188.456C1715.88 182.816 1728.27 179.995 1741.97 179.995C1756.24 179.995 1768.81 182.91 1779.7 188.738C1790.58 194.378 1799.03 203.027 1805.04 214.684C1811.23 226.152 1814.33 240.63 1814.33 258.115C1814.33 276.165 1811.14 290.924 1804.76 302.393C1798.37 313.861 1789.65 322.322 1778.57 327.774C1767.69 333.227 1755.39 335.953 1741.69 335.953ZM1742.53 305.495C1749.1 305.495 1754.64 303.708 1759.15 300.136C1763.65 296.565 1767.12 291.394 1769.56 284.625C1772 277.857 1773.22 269.773 1773.22 260.371C1773.22 250.031 1771.91 241.381 1769.28 234.425C1766.65 227.28 1762.9 221.829 1758.02 218.068C1753.33 214.12 1747.6 212.146 1740.84 212.146C1734.46 212.146 1728.93 213.932 1724.23 217.504C1719.73 221.076 1716.26 226.341 1713.82 233.297C1711.56 240.066 1710.44 248.244 1710.44 257.833C1710.44 272.686 1713.25 284.343 1718.88 292.804C1724.52 301.264 1732.4 305.495 1742.53 305.495Z" fill="#6265F1"/>
<path d="M1613.68 332.005V136H1654.22V332.005H1613.68Z" fill="#6265F1"/>
<path d="M1520.53 376C1504.01 376 1490.87 374.684 1481.11 372.052C1471.54 369.419 1464.69 365.847 1460.56 361.335C1456.62 356.823 1454.65 351.559 1454.65 345.542C1454.65 337.458 1457.93 330.877 1464.5 325.8C1471.07 320.724 1480.73 317.152 1493.5 315.083V313.391C1483.55 313.391 1475.86 311.887 1470.41 308.879C1465.16 305.871 1462.53 301.546 1462.53 295.906C1462.53 290.453 1464.97 285.659 1469.85 281.523C1474.92 277.387 1483.18 275.036 1494.62 274.472V272.498C1483.93 270.242 1475.57 265.635 1469.57 258.679C1463.56 251.534 1460.56 242.604 1460.56 231.887C1460.56 222.111 1463.09 213.743 1468.16 206.787C1473.23 199.642 1480.45 194.096 1489.84 190.148C1499.22 186.012 1510.58 183.944 1523.91 183.944H1597.67V215.812L1547.27 209.326V211.864C1562.1 213.932 1572.24 217.599 1577.68 222.863C1583.12 227.939 1585.85 234.049 1585.85 241.194C1585.85 248.526 1583.69 255.013 1579.37 260.653C1575.24 266.294 1568.77 270.712 1559.94 273.908C1551.12 277.105 1540.05 278.703 1526.72 278.703C1522.78 278.703 1518.84 278.515 1514.9 278.139C1511.14 277.762 1507.76 277.198 1504.76 276.447C1500.44 278.139 1497.25 279.831 1495.19 281.523C1493.12 283.215 1492.09 284.813 1492.09 286.317C1492.09 287.445 1492.56 288.291 1493.5 288.855C1494.62 289.42 1496.03 289.796 1497.72 289.984C1499.6 290.171 1501.66 290.266 1503.92 290.266H1548.68C1552.44 290.266 1557.22 290.548 1563.04 291.112C1568.86 291.488 1574.68 292.804 1580.5 295.06C1586.5 297.316 1591.48 301.077 1595.42 306.341C1599.36 311.605 1601.33 319.126 1601.33 328.902C1601.33 339.619 1598.42 348.456 1592.6 355.412C1586.78 362.368 1577.87 367.539 1565.86 370.924C1554.03 374.308 1538.92 376 1520.53 376ZM1519.96 340.465C1533.1 340.465 1542.96 339.901 1549.53 338.773C1556.1 337.833 1560.51 336.423 1562.76 334.543C1565.01 332.663 1566.14 330.5 1566.14 328.056C1566.14 325.049 1565.29 322.698 1563.6 321.006C1561.91 319.314 1559.76 318.091 1557.13 317.34C1554.69 316.588 1552.15 316.117 1549.53 315.929C1546.9 315.742 1544.65 315.647 1542.77 315.647H1505.32C1498.38 318.091 1493.59 320.442 1490.96 322.698C1488.52 324.767 1487.3 327.21 1487.3 330.031C1487.3 333.038 1488.62 335.294 1491.25 336.799C1494.06 338.304 1497.91 339.243 1502.79 339.619C1507.67 340.183 1513.39 340.465 1519.96 340.465ZM1524.75 255.859C1531.88 255.859 1537.42 253.79 1541.36 249.655C1545.3 245.519 1547.27 239.971 1547.27 233.015C1547.27 225.87 1545.21 220.137 1541.08 215.812C1536.95 211.3 1531.32 209.043 1524.19 209.043C1517.24 209.043 1511.61 211.3 1507.29 215.812C1503.17 220.137 1501.1 225.777 1501.1 232.733C1501.1 237.433 1502.04 241.57 1503.92 245.142C1505.79 248.526 1508.51 251.159 1512.08 253.039C1515.65 254.918 1519.87 255.859 1524.75 255.859Z" fill="#6265F1"/>
<path d="M1370.4 335.953C1356.32 335.953 1343.75 333.133 1332.67 327.492C1321.79 321.664 1313.25 313.015 1307.05 301.546C1301.05 290.078 1298.04 275.601 1298.04 258.115C1298.04 240.253 1301.23 225.588 1307.62 214.12C1314 202.652 1322.63 194.096 1333.52 188.456C1344.59 182.816 1356.98 179.995 1370.68 179.995C1384.95 179.995 1397.52 182.91 1408.41 188.738C1419.3 194.378 1427.74 203.027 1433.75 214.684C1439.94 226.152 1443.04 240.63 1443.04 258.115C1443.04 276.165 1439.85 290.924 1433.47 302.393C1427.09 313.861 1418.36 322.322 1407.28 327.774C1396.4 333.227 1384.1 335.953 1370.4 335.953ZM1371.25 305.495C1377.82 305.495 1383.35 303.708 1387.86 300.136C1392.36 296.565 1395.83 291.394 1398.27 284.625C1400.71 277.857 1401.93 269.773 1401.93 260.371C1401.93 250.031 1400.62 241.381 1397.99 234.425C1395.36 227.28 1391.61 221.829 1386.73 218.068C1382.04 214.12 1376.31 212.146 1369.56 212.146C1363.17 212.146 1357.64 213.932 1352.94 217.504C1348.44 221.076 1344.97 226.341 1342.53 233.297C1340.28 240.066 1339.15 248.244 1339.15 257.833C1339.15 272.686 1341.96 284.343 1347.6 292.804C1353.23 301.264 1361.11 305.495 1371.25 305.495Z" fill="#111827"/>
<path d="M1242.39 332.005V136H1282.93V332.005H1242.39Z" fill="#111827"/>
<path d="M1133.65 335.953C1125.96 335.953 1118.73 334.637 1111.98 332.005C1105.41 329.185 1099.96 324.86 1095.65 319.032C1091.52 313.204 1089.45 305.4 1089.45 295.624C1089.45 286.599 1091.14 279.267 1094.52 273.626C1098.09 267.798 1102.87 263.192 1108.88 259.807C1114.88 256.423 1121.45 253.79 1128.59 251.911C1135.72 250.031 1142.95 248.432 1150.27 247.116C1160.21 245.237 1167.63 243.827 1172.51 242.886C1177.58 241.758 1180.95 240.442 1182.64 238.938C1184.33 237.246 1185.18 234.989 1185.18 232.169C1185.18 225.777 1182.92 220.983 1178.42 217.786C1173.92 214.402 1168 212.71 1160.68 212.71C1156.37 212.71 1151.95 213.556 1147.45 215.248C1142.95 216.753 1139.19 219.573 1136.19 223.709C1133.37 227.844 1131.97 233.579 1131.97 240.912L1095.65 237.81C1095.65 226.529 1097.52 217.222 1101.28 209.89C1105.22 202.37 1110.47 196.447 1117.04 192.122C1123.61 187.797 1130.84 184.695 1138.72 182.816C1146.61 180.936 1154.39 179.995 1162.09 179.995C1175.98 179.995 1187.52 182.628 1196.72 187.892C1206.1 192.968 1213.14 200.488 1217.84 210.454C1222.53 220.419 1224.88 232.639 1224.88 247.116V273.908C1224.88 280.3 1224.88 286.787 1224.88 293.368C1224.88 299.76 1224.88 306.246 1224.88 312.827C1225.06 319.219 1225.16 325.613 1225.16 332.005H1189.4C1189.59 324.86 1189.77 317.622 1189.96 310.289C1190.15 302.957 1190.25 295.342 1190.25 287.445H1188.56C1187.62 296.283 1184.71 304.367 1179.83 311.699C1174.95 319.032 1168.57 324.954 1160.68 329.467C1152.8 333.791 1143.79 335.953 1133.65 335.953ZM1149.42 305.777C1153.17 305.777 1157.12 305.025 1161.25 303.521C1165.56 301.828 1169.5 299.385 1173.07 296.188C1176.64 292.804 1179.55 288.479 1181.8 283.215C1184.05 277.762 1185.18 271.183 1185.18 263.474L1185.46 256.987L1192.78 255.577C1191.28 258.21 1188.56 260.277 1184.61 261.781C1180.86 263.286 1176.64 264.507 1171.94 265.448C1167.25 266.199 1162.46 267.045 1157.59 267.986C1152.71 268.926 1148.2 270.148 1144.07 271.652C1139.94 273.157 1136.56 275.318 1133.94 278.139C1131.49 280.771 1130.28 284.438 1130.28 289.138C1130.28 294.401 1132.06 298.539 1135.63 301.546C1139.19 304.367 1143.79 305.777 1149.42 305.777Z" fill="#111827"/>
<path d="M1054.68 335.107C1038.35 335.107 1026.06 330.877 1017.8 322.416C1009.73 313.955 1005.69 300.888 1005.69 283.215V216.094H989.082V189.584H991.334C1001.66 188.456 1008.98 185.166 1013.29 179.713C1017.8 174.073 1020.52 165.612 1021.46 154.331L1021.74 150.665H1045.95V183.944H1081.15V216.94H1045.95V279.549C1045.95 286.694 1047.64 291.863 1051.02 295.06C1054.59 298.257 1059 299.854 1064.25 299.854C1067.07 299.854 1069.89 299.478 1072.7 298.726C1075.7 297.786 1078.52 296.564 1081.15 295.06V331.159C1075.7 332.663 1070.82 333.697 1066.51 334.261C1062.19 334.825 1058.25 335.107 1054.68 335.107Z" fill="#111827"/>
<path d="M890.182 335.953C882.487 335.953 875.26 334.637 868.503 332.005C861.934 329.185 856.491 324.86 852.173 319.032C848.044 313.204 845.979 305.4 845.979 295.624C845.979 286.599 847.668 279.267 851.047 273.626C854.614 267.798 859.4 263.192 865.406 259.807C871.413 256.423 877.982 253.79 885.114 251.911C892.247 250.031 899.473 248.432 906.793 247.116C916.742 245.237 924.156 243.827 929.035 242.886C934.103 241.758 937.482 240.442 939.171 238.938C940.86 237.246 941.705 234.989 941.705 232.169C941.705 225.777 939.452 220.983 934.948 217.786C930.443 214.402 924.53 212.71 917.21 212.71C912.894 212.71 908.482 213.556 903.978 215.248C899.473 216.753 895.72 219.573 892.716 223.709C889.9 227.844 888.493 233.579 888.493 240.912L852.173 237.81C852.173 226.529 854.051 217.222 857.804 209.89C861.746 202.37 867.002 196.447 873.571 192.122C880.141 187.797 887.366 184.695 895.25 182.816C903.133 180.936 910.923 179.995 918.618 179.995C932.508 179.995 944.051 182.628 953.248 187.892C962.634 192.968 969.672 200.488 974.364 210.454C979.057 220.419 981.403 232.639 981.403 247.116V273.908C981.403 280.3 981.403 286.787 981.403 293.368C981.403 299.76 981.403 306.246 981.403 312.827C981.591 319.219 981.684 325.613 981.684 332.005H945.928C946.117 324.86 946.304 317.622 946.491 310.289C946.68 302.957 946.773 295.342 946.773 287.445H945.083C944.146 296.283 941.236 304.367 936.355 311.699C931.476 319.032 925.094 324.954 917.21 329.467C909.327 333.791 900.318 335.953 890.182 335.953ZM905.948 305.777C909.703 305.777 913.644 305.025 917.773 303.521C922.091 301.828 926.033 299.385 929.598 296.188C933.165 292.804 936.074 288.479 938.326 283.215C940.579 277.762 941.705 271.183 941.705 263.474L941.986 256.987L949.307 255.577C947.806 258.21 945.083 260.277 941.142 261.781C937.389 263.286 933.165 264.507 928.472 265.448C923.78 266.199 918.994 267.045 914.113 267.986C909.234 268.926 904.729 270.148 900.599 271.652C896.47 273.157 893.092 275.318 890.463 278.139C888.024 280.771 886.803 284.438 886.803 289.138C886.803 294.401 888.587 298.539 892.153 301.546C895.72 304.367 900.318 305.777 905.948 305.777Z" fill="#111827"/>
<path d="M773.022 335.953C760.258 335.953 749.185 333.979 739.8 330.031C730.603 326.082 723.001 320.629 716.995 313.673C710.988 306.528 706.577 298.35 703.762 289.138C700.946 279.925 699.539 270.055 699.539 259.525C699.539 248.809 700.946 238.75 703.762 229.349C706.577 219.76 710.895 211.3 716.713 203.967C722.531 196.447 730.04 190.618 739.237 186.482C748.622 182.157 759.695 179.995 772.459 179.995C787.475 179.995 799.675 182.91 809.06 188.738C818.633 194.378 825.39 201.805 829.331 211.018C833.273 220.042 834.586 229.819 833.273 240.348L797.798 243.45C797.985 236.494 797.048 230.759 794.983 226.247C792.918 221.547 789.915 218.068 785.973 215.812C782.032 213.368 777.245 212.146 771.614 212.146C767.11 212.146 762.887 212.992 758.945 214.684C755.19 216.376 751.906 219.102 749.091 222.863C746.275 226.434 744.117 231.136 742.615 236.964C741.113 242.604 740.363 249.467 740.363 257.551C740.363 267.891 741.676 276.634 744.304 283.779C746.933 290.735 750.686 296.094 755.566 299.854C760.634 303.426 766.641 305.213 773.585 305.213C781.093 305.213 786.818 303.521 790.76 300.136C794.888 296.565 797.704 292.145 799.206 286.881C800.708 281.428 801.082 275.883 800.332 270.242L837.778 272.216C838.717 280.677 838.154 288.761 836.088 296.47C834.023 303.99 830.363 310.759 825.108 316.776C819.853 322.793 812.907 327.492 804.274 330.877C795.64 334.261 785.223 335.953 773.022 335.953Z" fill="#111827"/>
<path d="M527.539 309.773C490.538 401.179 395.507 437.477 322.255 397.547C261.539 430.534 232.653 443.095 165.354 467.453C343.166 582.634 549.819 458.071 565.222 280.77C565.575 276.703 561.363 273.863 557.682 275.629C543.531 282.415 533.428 295.225 527.539 309.773Z" fill="url(#paint0_linear_27_314)"/>
<path d="M554.032 216.102C499.35 275.755 439.37 332.968 329.401 394.13C200.774 465.669 105.701 495.726 38.5916 472.114C-18.8869 445.083 -11.741 373.002 57.2331 296.572C59.7186 309.31 61.2721 315.524 64.6897 328.262C10.3183 409.664 47.9123 447.88 150.752 423.024C207.936 404.915 242.927 388.85 305.167 353.739C382.529 305.893 430.248 275.963 501.525 200.567C566.46 138.118 602.5 41.1815 478.844 61.998C468.281 52.0558 460.824 48.0168 449.95 39.9388C508.36 22.8506 584.496 21.6078 603.122 64.4836C619.725 102.699 604.365 156.138 554.032 216.102Z" fill="url(#paint1_linear_27_314)"/>
<path d="M115.951 417.673C148.586 414.052 213.383 388.95 265.978 360.731C269.405 358.892 270.253 354.387 267.914 351.28C221.427 289.541 219.536 200.095 257.63 137.186C308.992 52.3658 412.477 33.5309 484.538 99.5384C492.962 107.255 502.782 113.514 513.858 116.311C518.861 117.574 522.77 112.15 519.827 107.912C433.018 -17.1145 274.859 -19.5057 186.482 30.3072C34.3386 116.06 19.0233 300.634 108.35 414.377C110.177 416.703 113.011 417.999 115.951 417.673Z" fill="url(#paint2_linear_27_314)"/>
<defs>
<linearGradient id="paint0_linear_27_314" x1="342.761" y1="611.926" x2="224.697" y2="391.955" gradientUnits="userSpaceOnUse">
<stop offset="0.647706" stop-color="#6265F1"/>
<stop offset="1" stop-color="#2F3073"/>
</linearGradient>
<linearGradient id="paint1_linear_27_314" x1="261.359" y1="122.894" x2="408.938" y2="344.729" gradientUnits="userSpaceOnUse">
<stop stop-color="#333580"/>
<stop offset="0.401139" stop-color="#595CE0"/>
<stop offset="1" stop-color="#6265F1"/>
</linearGradient>
<linearGradient id="paint2_linear_27_314" x1="369.17" y1="304.65" x2="139.878" y2="-11.0152" gradientUnits="userSpaceOnUse">
<stop stop-color="#6265F1"/>
<stop offset="0.527981" stop-color="#6C6FF1"/>
<stop offset="1" stop-color="#7A7DFB"/>
</linearGradient>
</defs>
</svg>
