<svg width="880" height="740" viewBox="0 0 880 740" fill="none" xmlns="http://www.w3.org/2000/svg">
<path d="M761.616 447.224C708.198 579.189 571 631.592 465.244 573.945C377.588 621.568 335.884 639.703 238.725 674.87C495.435 841.157 793.783 661.324 816.019 405.353C816.53 399.48 810.448 395.38 805.134 397.929C784.704 407.727 770.118 426.221 761.616 447.224Z" fill="white"/>
<path d="M799.865 311.99C720.919 398.112 634.325 480.71 475.561 569.011C289.86 672.293 152.603 715.688 55.7152 681.598C-27.2673 642.574 -16.9506 538.509 82.6283 428.165C86.2167 446.556 88.4595 455.527 93.3935 473.917C14.8967 591.438 69.1717 646.61 217.643 610.726C300.2 584.582 350.718 561.389 440.574 510.699C552.263 441.622 621.155 398.412 724.059 289.562C817.807 199.403 869.839 59.4543 691.315 89.5074C676.064 75.1537 665.299 69.3225 649.599 57.6601C733.927 32.9897 843.845 31.1955 870.736 93.0958C894.707 148.268 872.53 225.419 799.865 311.99Z" fill="white"/>
<path d="M167.4 603C214.516 597.773 308.064 561.532 383.997 520.793C388.944 518.139 390.169 511.635 386.791 507.149C319.677 418.014 316.948 288.88 371.944 198.057C446.096 75.6013 595.5 48.4091 699.534 143.705C711.696 154.845 725.874 163.882 741.865 167.92C749.088 169.744 754.731 161.913 750.482 155.795C625.155 -24.7085 396.818 -28.1607 269.226 43.7549C49.5751 167.558 27.4642 434.03 156.427 598.242C159.064 601.601 163.156 603.471 167.4 603Z" fill="white"/>
</svg>
