<svg width="1421" height="240" viewBox="0 0 1421 240" fill="none" xmlns="http://www.w3.org/2000/svg">
<path d="M1356.3 199.953C1342.98 199.953 1331.62 197.979 1322.23 194.031C1313.04 190.082 1305.54 184.629 1299.71 177.673C1293.89 170.717 1289.67 162.726 1287.04 153.702C1284.42 144.677 1283.1 134.994 1283.1 124.653C1283.1 113.937 1284.42 103.784 1287.04 94.1951C1289.85 84.4189 1294.08 75.7693 1299.71 68.2492C1305.34 60.7291 1312.66 54.8066 1321.67 50.4818C1330.68 46.1571 1341.29 43.9954 1353.48 43.9954C1365.69 43.9954 1376.2 46.1571 1385.02 50.4818C1393.84 54.6177 1400.88 60.4471 1406.13 67.9672C1411.58 75.4872 1415.14 84.3244 1416.83 94.4771C1418.72 104.442 1418.8 115.441 1417.11 127.474L1308.15 129.166V106.322L1386.14 104.63L1380.51 117.885C1381.45 109.237 1381.07 101.81 1379.39 95.6052C1377.7 89.4008 1374.7 84.7009 1370.38 81.5042C1366.25 78.1199 1360.62 76.4278 1353.48 76.4278C1345.98 76.4278 1339.88 78.4019 1335.18 82.3502C1330.68 86.111 1327.4 91.4694 1325.33 98.4254C1323.27 105.381 1322.23 113.467 1322.23 122.679C1322.23 138.66 1325.05 150.412 1330.68 157.932C1336.51 165.452 1345.14 169.213 1356.58 169.213C1361.85 169.213 1366.15 168.554 1369.53 167.239C1373.11 165.734 1375.92 163.76 1377.98 161.316C1380.23 158.683 1381.74 155.676 1382.48 152.291C1383.43 148.907 1383.81 145.241 1383.61 141.293L1420.77 143.549C1421.15 150.13 1420.31 156.804 1418.24 163.572C1416.37 170.153 1412.89 176.169 1407.82 181.622C1402.95 187.075 1396.19 191.492 1387.55 194.877C1379.1 198.261 1368.69 199.953 1356.3 199.953Z" fill="#6265F1"/>
<path d="M1215.15 199.953C1206.51 199.953 1198.91 198.073 1192.34 194.313C1185.96 190.364 1180.61 184.629 1176.3 177.109C1171.98 169.589 1168.79 160.282 1166.72 149.189H1164.75L1165.31 196.005H1129.56L1129.84 139.882L1129.56 0H1170.38V42.3032C1170.38 47.3795 1170.1 52.9255 1169.54 58.9424C1169.16 64.9593 1168.5 71.2569 1167.57 77.8378C1166.82 84.2298 1165.88 90.9053 1164.75 97.8613H1167.29C1168.98 85.6399 1171.98 75.5817 1176.3 67.6851C1180.61 59.6009 1186.15 53.6785 1192.91 49.9177C1199.85 45.9694 1207.83 43.9953 1216.84 43.9953C1227.91 43.9953 1237.58 46.8155 1245.84 52.4559C1254.09 58.0963 1260.48 66.557 1264.98 77.8378C1269.49 89.1187 1271.74 103.314 1271.74 120.423C1271.74 138.66 1269.21 153.607 1264.14 165.264C1259.26 176.922 1252.5 185.664 1243.87 191.492C1235.23 197.133 1225.66 199.953 1215.15 199.953ZM1201.63 166.956C1207.83 166.956 1213.08 165.077 1217.4 161.316C1221.72 157.368 1225 152.104 1227.26 145.523C1229.51 138.942 1230.63 131.609 1230.63 123.525C1230.63 115.065 1229.51 107.45 1227.26 100.682C1225.19 93.913 1222 88.5546 1217.68 84.6063C1213.36 80.4705 1207.92 78.4019 1201.35 78.4019C1197.97 78.4019 1194.6 79.0604 1191.22 80.376C1188.03 81.6916 1185.12 83.6658 1182.49 86.2985C1180.05 88.7422 1177.89 91.7513 1176.01 95.3231C1174.14 98.8949 1172.64 102.938 1171.51 107.45C1170.57 111.775 1170.1 116.475 1170.1 121.551V123.525C1170.1 129.917 1170.85 135.84 1172.35 141.293C1174.04 146.557 1176.3 151.163 1179.11 155.112C1181.93 158.872 1185.21 161.786 1188.96 163.854C1192.91 165.923 1197.13 166.956 1201.63 166.956Z" fill="#6265F1"/>
<path d="M1042.15 199.953C1028.07 199.953 1015.5 197.133 1004.42 191.492C993.538 185.664 984.997 177.015 978.803 165.546C972.797 154.078 969.794 139.601 969.794 122.115C969.794 104.253 972.985 89.5883 979.366 78.1199C985.748 66.6515 994.383 58.0964 1005.27 52.456C1016.34 46.8156 1028.73 43.9954 1042.43 43.9954C1056.7 43.9954 1069.27 46.9101 1080.16 52.738C1091.05 58.3784 1099.49 67.0266 1105.5 78.684C1111.69 90.1523 1114.79 104.63 1114.79 122.115C1114.79 140.165 1111.6 154.924 1105.22 166.393C1098.84 177.861 1090.11 186.322 1079.03 191.774C1068.15 197.227 1055.85 199.953 1042.15 199.953ZM1043 169.495C1049.57 169.495 1055.1 167.708 1059.61 164.136C1064.11 160.565 1067.58 155.394 1070.02 148.625C1072.46 141.857 1073.68 133.773 1073.68 124.371C1073.68 114.031 1072.37 105.381 1069.74 98.4254C1067.11 91.2804 1063.36 85.829 1058.48 82.0682C1053.79 78.1199 1048.06 76.1458 1041.31 76.1458C1034.93 76.1458 1029.39 77.9324 1024.7 81.5042C1020.19 85.076 1016.72 90.3413 1014.28 97.2973C1012.03 104.066 1010.9 112.244 1010.9 121.833C1010.9 136.686 1013.72 148.343 1019.35 156.804C1024.98 165.264 1032.86 169.495 1043 169.495Z" fill="#6265F1"/>
<path d="M914.138 196.005V0H954.68V196.005H914.138Z" fill="#6265F1"/>
<path d="M820.988 240C804.471 240 791.332 238.684 781.572 236.052C771.999 233.419 765.148 229.847 761.019 225.335C757.077 220.823 755.106 215.559 755.106 209.542C755.106 201.458 758.391 194.877 764.961 189.8C771.53 184.724 781.196 181.152 793.96 179.083V177.391C784.011 177.391 776.317 175.887 770.873 172.879C765.618 169.871 762.99 165.546 762.99 159.906C762.99 154.453 765.429 149.659 770.31 145.523C775.378 141.387 783.637 139.036 795.086 138.472V136.498C784.387 134.242 776.035 129.635 770.028 122.679C764.022 115.534 761.019 106.604 761.019 95.8872C761.019 86.1109 763.553 77.7434 768.621 70.7873C773.689 63.6423 780.914 58.0964 790.3 54.1481C799.685 50.0122 811.04 47.9436 824.367 47.9436H898.132V79.812L847.735 73.3255V75.8637C862.563 77.9323 872.698 81.5986 878.142 86.8625C883.586 91.9389 886.307 98.0489 886.307 105.194C886.307 112.526 884.149 119.013 879.831 124.653C875.702 130.294 869.227 134.712 860.405 137.908C851.582 141.105 840.509 142.703 827.182 142.703C823.241 142.703 819.299 142.515 815.357 142.139C811.603 141.762 808.224 141.198 805.222 140.447C800.904 142.139 797.714 143.831 795.649 145.523C793.584 147.215 792.552 148.813 792.552 150.317C792.552 151.445 793.021 152.291 793.96 152.855C795.086 153.42 796.494 153.796 798.183 153.984C800.06 154.171 802.125 154.266 804.377 154.266H849.143C852.897 154.266 857.684 154.548 863.502 155.112C869.32 155.488 875.139 156.804 880.958 159.06C886.964 161.316 891.938 165.077 895.879 170.341C899.821 175.605 901.792 183.126 901.792 192.902C901.792 203.619 898.882 212.456 893.064 219.412C887.246 226.368 878.329 231.539 866.317 234.924C854.492 238.308 839.383 240 820.988 240ZM820.425 204.465C833.563 204.465 843.418 203.901 849.987 202.773C856.557 201.833 860.968 200.423 863.22 198.543C865.472 196.663 866.599 194.5 866.599 192.056C866.599 189.049 865.754 186.698 864.065 185.006C862.376 183.314 860.217 182.091 857.589 181.34C855.15 180.588 852.616 180.117 849.987 179.929C847.359 179.742 845.107 179.647 843.23 179.647H805.785C798.84 182.091 794.054 184.442 791.426 186.698C788.986 188.767 787.766 191.21 787.766 194.031C787.766 197.038 789.079 199.294 791.707 200.799C794.523 202.304 798.37 203.243 803.251 203.619C808.131 204.183 813.855 204.465 820.425 204.465ZM825.211 119.859C832.344 119.859 837.881 117.79 841.823 113.655C845.764 109.519 847.735 103.971 847.735 97.0153C847.735 89.8703 845.67 84.1368 841.541 79.812C837.412 75.2997 831.781 73.0435 824.648 73.0435C817.704 73.0435 812.073 75.2997 807.756 79.812C803.627 84.1368 801.562 89.7772 801.562 96.7333C801.562 101.433 802.5 105.57 804.377 109.142C806.253 112.526 808.976 115.159 812.542 117.039C816.108 118.918 820.331 119.859 825.211 119.859Z" fill="#6265F1"/>
<path d="M670.862 199.953C656.785 199.953 644.21 197.133 633.135 191.492C622.249 185.664 613.708 177.015 607.514 165.546C601.508 154.078 598.505 139.601 598.505 122.115C598.505 104.253 601.696 89.5883 608.077 78.1199C614.459 66.6515 623.094 58.0964 633.98 52.456C645.054 46.8156 657.442 43.9954 671.144 43.9954C685.408 43.9954 697.985 46.9101 708.871 52.738C719.757 58.3784 728.203 67.0266 734.21 78.684C740.404 90.1523 743.501 104.63 743.501 122.115C743.501 140.165 740.31 154.924 733.928 166.393C727.547 177.861 718.819 186.322 707.745 191.774C696.859 197.227 684.564 199.953 670.862 199.953ZM671.707 169.495C678.277 169.495 683.813 167.708 688.318 164.136C692.823 160.565 696.296 155.394 698.735 148.625C701.175 141.857 702.395 133.773 702.395 124.371C702.395 114.031 701.082 105.381 698.454 98.4254C695.825 91.2804 692.072 85.829 687.192 82.0682C682.5 78.1199 676.775 76.1458 670.018 76.1458C663.636 76.1458 658.098 77.9324 653.406 81.5042C648.902 85.076 645.429 90.3413 642.989 97.2973C640.737 104.066 639.611 112.244 639.611 121.833C639.611 136.686 642.426 148.343 648.057 156.804C653.688 165.264 661.571 169.495 671.707 169.495Z" fill="#111827"/>
<path d="M542.849 196.005V0H583.392V196.005H542.849Z" fill="#111827"/>
<path d="M434.116 199.953C426.42 199.953 419.194 198.637 412.437 196.005C405.867 193.185 400.423 188.86 396.107 183.032C391.977 177.204 389.913 169.4 389.913 159.624C389.913 150.599 391.602 143.267 394.981 137.626C398.547 131.798 403.333 127.192 409.34 123.807C415.345 120.423 421.915 117.79 429.048 115.911C436.18 114.031 443.407 112.432 450.727 111.116C460.674 109.237 468.089 107.827 472.969 106.886C478.037 105.758 481.416 104.442 483.105 102.938C484.794 101.246 485.639 98.9895 485.639 96.1693C485.639 89.7773 483.386 84.9829 478.882 81.7862C474.377 78.4019 468.464 76.7098 461.144 76.7098C456.827 76.7098 452.416 77.5559 447.912 79.248C443.407 80.7526 439.652 83.5728 436.65 87.7086C433.834 91.8445 432.427 97.5794 432.427 104.912L396.107 101.81C396.107 90.5289 397.984 81.2222 401.738 73.8896C405.68 66.3695 410.935 60.4471 417.505 56.1223C424.073 51.7975 431.3 48.6952 439.184 46.8156C447.067 44.9359 454.856 43.9954 462.552 43.9954C476.441 43.9954 487.984 46.628 497.182 51.892C506.566 56.9683 513.605 64.4884 518.298 74.4536C522.99 84.4189 525.337 96.6388 525.337 111.116V137.908C525.337 144.3 525.337 150.787 525.337 157.368C525.337 163.76 525.337 170.246 525.337 176.827C525.524 183.219 525.618 189.613 525.618 196.005H489.862C490.049 188.86 490.236 181.622 490.425 174.289C490.612 166.957 490.707 159.342 490.707 151.445H489.017C488.078 160.283 485.169 168.367 480.289 175.699C475.409 183.032 469.028 188.954 461.144 193.467C453.261 197.791 444.251 199.953 434.116 199.953ZM449.882 169.777C453.635 169.777 457.577 169.025 461.707 167.521C466.023 165.828 469.965 163.385 473.532 160.188C477.098 156.804 480.008 152.479 482.26 147.215C484.513 141.762 485.639 135.183 485.639 127.474L485.92 120.987L493.24 119.577C491.738 122.21 489.017 124.277 485.076 125.781C481.321 127.286 477.098 128.507 472.406 129.448C467.713 130.199 462.926 131.045 458.047 131.986C453.167 132.926 448.662 134.148 444.533 135.652C440.403 137.157 437.024 139.318 434.397 142.139C431.956 144.771 430.737 148.438 430.737 153.138C430.737 158.401 432.519 162.539 436.087 165.546C439.652 168.367 444.251 169.777 449.882 169.777Z" fill="#111827"/>
<path d="M355.144 199.107C338.814 199.107 326.52 194.877 318.261 186.416C310.191 177.955 306.155 164.888 306.155 147.215V80.0941H289.543V53.5841H291.796C302.119 52.456 309.439 49.1662 313.756 43.7133C318.261 38.0729 320.982 29.6123 321.921 18.3314L322.203 14.6652H346.416V47.9436H381.609V80.9401H346.416V143.549C346.416 150.694 348.105 155.863 351.484 159.06C355.049 162.257 359.461 163.854 364.716 163.854C367.532 163.854 370.347 163.478 373.163 162.726C376.165 161.786 378.981 160.565 381.609 159.06V195.159C376.165 196.663 371.286 197.697 366.969 198.261C362.651 198.825 358.709 199.107 355.144 199.107Z" fill="#111827"/>
<path d="M190.643 199.953C182.949 199.953 175.721 198.637 168.964 196.005C162.396 193.185 156.952 188.86 152.634 183.032C148.506 177.204 146.44 169.4 146.44 159.624C146.44 150.599 148.13 143.267 151.508 137.626C155.075 131.798 159.862 127.192 165.867 123.807C171.874 120.423 178.444 117.79 185.575 115.911C192.708 114.031 199.934 112.432 207.254 111.116C217.203 109.237 224.617 107.827 229.497 106.886C234.564 105.758 237.943 104.442 239.632 102.938C241.321 101.246 242.166 98.9895 242.166 96.1693C242.166 89.7773 239.914 84.9829 235.409 81.7862C230.904 78.4019 224.992 76.7098 217.672 76.7098C213.355 76.7098 208.944 77.5559 204.439 79.248C199.934 80.7526 196.181 83.5728 193.177 87.7086C190.362 91.8445 188.954 97.5794 188.954 104.912L152.634 101.81C152.634 90.5289 154.512 81.2222 158.265 73.8896C162.207 66.3695 167.463 60.4471 174.032 56.1223C180.602 51.7975 187.828 48.6952 195.711 46.8156C203.594 44.9359 211.385 43.9954 219.079 43.9954C232.969 43.9954 244.513 46.628 253.709 51.892C263.095 56.9683 270.133 64.4884 274.825 74.4536C279.519 84.4189 281.864 96.6388 281.864 111.116V137.908C281.864 144.3 281.864 150.787 281.864 157.368C281.864 163.76 281.864 170.246 281.864 176.827C282.053 183.219 282.146 189.613 282.146 196.005H246.389C246.578 188.86 246.765 181.622 246.952 174.289C247.141 166.957 247.234 159.342 247.234 151.445H245.545C244.607 160.283 241.697 168.367 236.817 175.699C231.938 183.032 225.555 188.954 217.672 193.467C209.788 197.791 200.779 199.953 190.643 199.953ZM206.41 169.777C210.164 169.777 214.106 169.025 218.235 167.521C222.552 165.828 226.494 163.385 230.06 160.188C233.627 156.804 236.535 152.479 238.788 147.215C241.04 141.762 242.166 135.183 242.166 127.474L242.448 120.987L249.768 119.577C248.267 122.21 245.545 124.277 241.603 125.781C237.85 127.286 233.627 128.507 228.933 129.448C224.241 130.199 219.455 131.045 214.575 131.986C209.695 132.926 205.191 134.148 201.06 135.652C196.931 137.157 193.553 139.318 190.925 142.139C188.485 144.771 187.265 148.438 187.265 153.138C187.265 158.401 189.048 162.539 192.614 165.546C196.181 168.367 200.779 169.777 206.41 169.777Z" fill="#111827"/>
<path d="M73.4837 199.953C60.7198 199.953 49.6465 197.979 40.2612 194.031C31.0645 190.082 23.4628 184.629 17.456 177.673C11.4492 170.528 7.03879 162.35 4.22319 153.138C1.40773 143.925 0 134.055 0 123.525C0 112.809 1.40773 102.75 4.22319 93.3491C7.03879 83.7603 11.3563 75.2997 17.1745 67.9672C22.9926 60.4471 30.5014 54.6177 39.6981 50.4818C49.0835 46.1571 60.1567 43.9954 72.9205 43.9954C87.9368 43.9954 100.136 46.9101 109.522 52.738C119.094 58.3784 125.851 65.8055 129.793 75.0177C133.734 84.0424 135.048 93.8186 133.734 104.348L98.2597 107.45C98.4469 100.494 97.5094 94.7592 95.4442 90.2468C93.3791 85.5469 90.3764 82.0682 86.4348 79.812C82.4931 77.3683 77.7068 76.1458 72.0759 76.1458C67.5712 76.1458 63.348 76.9918 59.4064 78.684C55.6519 80.3761 52.3677 83.1018 49.5522 86.8626C46.7368 90.4344 44.5787 95.1357 43.0767 100.964C41.5746 106.604 40.8243 113.467 40.8243 121.551C40.8243 131.891 42.1377 140.634 44.766 147.779C47.3942 154.735 51.1472 160.094 56.0278 163.854C61.0956 167.426 67.1024 169.213 74.0467 169.213C81.5542 169.213 87.2794 167.521 91.221 164.136C95.3499 160.565 98.1654 156.145 99.6674 150.881C101.169 145.428 101.544 139.883 100.794 134.242L138.239 136.216C139.178 144.677 138.615 152.761 136.55 160.47C134.485 167.99 130.825 174.759 125.57 180.776C120.315 186.793 113.369 191.492 104.735 194.877C96.1016 198.261 85.6844 199.953 73.4837 199.953Z" fill="#111827"/>
</svg>
