<svg width="1185" height="772" viewBox="0 0 1185 772" fill="none" xmlns="http://www.w3.org/2000/svg">
<path d="M814.795 309.773C777.795 401.179 682.763 437.477 609.511 397.547C548.795 430.534 519.909 443.095 452.611 467.453C630.423 582.634 837.076 458.071 852.478 280.77C852.832 276.703 848.619 273.863 844.938 275.629C830.787 282.415 820.684 295.225 814.795 309.773Z" fill="#6265F1"/>
<path d="M841.289 216.102C786.607 275.755 726.626 332.968 616.657 394.13C488.03 465.669 392.958 495.726 325.848 472.114C268.369 445.083 275.515 373.002 344.489 296.572C346.975 309.31 348.528 315.524 351.946 328.262C297.575 409.664 335.169 447.88 438.008 423.024C495.192 404.915 530.184 388.85 592.423 353.739C669.786 305.893 717.504 275.963 788.781 200.567C853.716 138.118 889.757 41.1815 766.101 61.998C755.537 52.0558 748.081 48.0168 737.206 39.9388C795.617 22.8506 871.752 21.6078 890.378 64.4836C906.982 102.699 891.621 156.138 841.289 216.102Z" fill="#6265F1"/>
<path d="M403.207 417.673C435.842 414.052 500.639 388.95 553.234 360.731C556.661 358.892 557.509 354.387 555.17 351.28C508.683 289.541 506.792 200.095 544.886 137.186C596.248 52.3658 699.733 33.5309 771.794 99.5384C780.218 107.255 790.038 113.514 801.114 116.311C806.117 117.574 810.026 112.15 807.083 107.912C720.274 -17.1145 562.115 -19.5057 473.738 30.3072C321.595 116.06 306.279 300.634 395.606 414.377C397.433 416.703 400.267 417.999 403.207 417.673Z" fill="#6265F1"/>
<path d="M1130.25 738.628C1119.15 738.628 1109.68 736.982 1101.86 733.692C1094.2 730.402 1087.95 725.858 1083.09 720.061C1078.24 714.264 1074.73 707.605 1072.53 700.085C1070.35 692.564 1069.25 684.495 1069.25 675.878C1069.25 666.947 1070.35 658.487 1072.53 650.496C1074.88 642.349 1078.4 635.141 1083.09 628.874C1087.78 622.608 1093.88 617.672 1101.39 614.068C1108.9 610.464 1117.74 608.663 1127.9 608.663C1138.07 608.663 1146.84 610.464 1154.18 614.068C1161.54 617.515 1167.4 622.373 1171.78 628.639C1176.32 634.906 1179.28 642.27 1180.69 650.731C1182.26 659.035 1182.33 668.201 1180.93 678.228L1090.13 679.638V660.602L1155.12 659.192L1150.43 670.237C1151.21 663.031 1150.9 656.841 1149.49 651.671C1148.08 646.501 1145.58 642.584 1141.98 639.92C1138.54 637.1 1133.85 635.69 1127.9 635.69C1121.65 635.69 1116.57 637.335 1112.65 640.625C1108.9 643.759 1106.16 648.225 1104.44 654.021C1102.73 659.818 1101.86 666.556 1101.86 674.233C1101.86 687.55 1104.21 697.343 1108.9 703.61C1113.75 709.877 1120.95 713.011 1130.48 713.011C1134.87 713.011 1138.46 712.462 1141.28 711.366C1144.26 710.112 1146.6 708.467 1148.31 706.43C1150.19 704.236 1151.45 701.73 1152.07 698.91C1152.85 696.089 1153.17 693.034 1153.01 689.744L1183.98 691.624C1184.29 697.108 1183.59 702.67 1181.87 708.31C1180.31 713.794 1177.41 718.807 1173.18 723.351C1169.13 727.895 1163.49 731.577 1156.29 734.397C1149.25 737.217 1140.57 738.628 1130.25 738.628Z" fill="#6265F1"/>
<path d="M1012.62 738.627C1005.43 738.627 999.093 737.061 993.619 733.927C988.301 730.637 983.843 725.858 980.246 719.591C976.648 713.324 973.989 705.569 972.269 696.324H970.627L971.096 735.337H941.299L941.533 688.569L941.299 572H975.319V607.253C975.319 611.483 975.084 616.105 974.615 621.119C974.302 626.133 973.754 631.381 972.973 636.865C972.346 642.192 971.565 647.754 970.627 653.551H972.738C974.146 643.367 976.648 634.985 980.246 628.404C983.843 621.667 988.458 616.732 994.089 613.598C999.876 610.308 1006.52 608.663 1014.03 608.663C1023.26 608.663 1031.31 611.013 1038.2 615.713C1045.08 620.414 1050.4 627.464 1054.15 636.865C1057.91 646.266 1059.78 658.095 1059.78 672.353C1059.78 687.55 1057.67 700.006 1053.45 709.72C1049.38 719.435 1043.75 726.72 1036.56 731.577C1029.36 736.277 1021.38 738.627 1012.62 738.627ZM1001.36 711.13C1006.52 711.13 1010.9 709.564 1014.5 706.43C1018.1 703.14 1020.84 698.753 1022.71 693.269C1024.59 687.785 1025.53 681.674 1025.53 674.938C1025.53 667.887 1024.59 661.542 1022.71 655.901C1020.99 650.261 1018.33 645.796 1014.74 642.505C1011.14 639.059 1006.6 637.335 1001.13 637.335C998.312 637.335 995.496 637.884 992.681 638.98C990.022 640.076 987.597 641.721 985.408 643.915C983.374 645.952 981.575 648.459 980.011 651.436C978.446 654.412 977.196 657.781 976.257 661.542C975.475 665.146 975.084 669.062 975.084 673.293V674.938C975.084 680.264 975.71 685.2 976.961 689.744C978.369 694.13 980.246 697.969 982.592 701.26C984.938 704.394 987.675 706.821 990.804 708.545C994.089 710.269 997.608 711.13 1001.36 711.13Z" fill="#6265F1"/>
<path d="M868.46 738.627C856.729 738.627 846.249 736.277 837.021 731.577C827.949 726.72 820.832 719.512 815.67 709.955C810.664 700.398 808.162 688.334 808.162 673.762C808.162 658.878 810.822 646.657 816.139 637.1C821.457 627.543 828.653 620.413 837.724 615.713C846.953 611.013 857.277 608.663 868.694 608.663C880.582 608.663 891.062 611.092 900.134 615.948C909.205 620.648 916.244 627.855 921.25 637.57C926.411 647.127 928.992 659.191 928.992 673.762C928.992 688.804 926.333 701.103 921.015 710.66C915.697 720.217 908.424 727.268 899.195 731.812C890.124 736.356 879.878 738.627 868.46 738.627ZM869.164 713.245C874.639 713.245 879.252 711.757 883.006 708.78C886.76 705.804 889.654 701.495 891.687 695.854C893.72 690.214 894.737 683.477 894.737 675.643C894.737 667.026 893.643 659.818 891.453 654.021C889.263 648.067 886.135 643.524 882.068 640.39C878.158 637.1 873.387 635.455 867.756 635.455C862.438 635.455 857.823 636.943 853.913 639.92C850.159 642.896 847.265 647.284 845.232 653.081C843.355 658.721 842.417 665.537 842.417 673.527C842.417 685.905 844.763 695.619 849.455 702.67C854.148 709.72 860.717 713.245 869.164 713.245Z" fill="#6265F1"/>
<path d="M761.781 735.337V572H795.567V735.337H761.781Z" fill="#6265F1"/>
<path d="M684.157 772C670.393 772 659.443 770.904 651.31 768.71C643.333 766.516 637.624 763.539 634.183 759.779C630.898 756.019 629.256 751.632 629.256 746.618C629.256 739.881 631.993 734.397 637.468 730.167C642.943 725.937 650.997 722.96 661.634 721.236V719.826C653.343 719.826 646.931 718.572 642.395 716.066C638.015 713.559 635.825 709.955 635.825 705.255C635.825 700.711 637.858 696.716 641.925 693.269C646.149 689.823 653.031 687.864 662.572 687.394V685.749C653.657 683.868 646.697 680.029 641.691 674.233C636.685 668.279 634.183 660.837 634.183 651.906C634.183 643.759 636.295 636.786 640.518 630.99C644.741 625.035 650.762 620.414 658.584 617.124C666.405 613.677 675.867 611.953 686.973 611.953H748.444V638.51L706.446 633.105V635.22C718.803 636.944 727.249 639.999 731.786 644.386C736.322 648.616 738.59 653.708 738.59 659.662C738.59 665.772 736.791 671.178 733.193 675.878C729.753 680.578 724.356 684.26 717.004 686.924C709.652 689.588 700.425 690.919 689.319 690.919C686.034 690.919 682.75 690.763 679.465 690.449C676.336 690.135 673.521 689.665 671.019 689.039C667.421 690.449 664.762 691.859 663.041 693.269C661.32 694.679 660.461 696.011 660.461 697.264C660.461 698.205 660.851 698.91 661.634 699.38C662.572 699.85 663.745 700.163 665.153 700.32C666.717 700.476 668.438 700.555 670.315 700.555H707.619C710.748 700.555 714.737 700.79 719.585 701.26C724.434 701.574 729.283 702.67 734.132 704.55C739.137 706.43 743.282 709.564 746.567 713.951C749.851 718.337 751.494 724.605 751.494 732.752C751.494 741.683 749.069 749.047 744.22 754.844C739.372 760.641 731.942 764.95 721.931 767.77C712.077 770.59 699.486 772 684.157 772ZM683.688 742.388C694.637 742.388 702.848 741.918 708.323 740.978C713.798 740.194 717.474 739.019 719.351 737.452C721.228 735.886 722.166 734.084 722.166 732.047C722.166 729.541 721.462 727.582 720.054 726.172C718.647 724.762 716.848 723.743 714.658 723.116C712.625 722.49 710.514 722.098 708.323 721.941C706.133 721.785 704.256 721.706 702.692 721.706H671.488C665.701 723.743 661.712 725.702 659.522 727.582C657.489 729.306 656.472 731.342 656.472 733.692C656.472 736.199 657.566 738.079 659.757 739.333C662.103 740.586 665.309 741.369 669.376 741.683C673.443 742.153 678.213 742.388 683.688 742.388ZM687.677 671.883C693.621 671.883 698.235 670.159 701.519 666.712C704.804 663.266 706.446 658.643 706.446 652.846C706.446 646.892 704.725 642.114 701.285 638.51C697.844 634.75 693.152 632.87 687.207 632.87C681.42 632.87 676.728 634.75 673.13 638.51C669.689 642.114 667.968 646.814 667.968 652.611C667.968 656.528 668.751 659.975 670.315 662.952C671.878 665.772 674.147 667.966 677.119 669.532C680.09 671.099 683.609 671.883 687.677 671.883Z" fill="#6265F1"/>
<path d="M559.052 738.628C547.321 738.628 536.841 736.277 527.612 731.577C518.541 726.72 511.423 719.512 506.262 709.955C501.256 700.398 498.754 688.334 498.754 673.763C498.754 658.878 501.413 646.657 506.731 637.1C512.049 627.543 519.245 620.414 528.316 615.713C537.545 611.013 547.868 608.663 559.286 608.663C571.173 608.663 581.654 611.092 590.726 615.948C599.797 620.649 606.836 627.856 611.842 637.57C617.003 647.127 619.584 659.192 619.584 673.763C619.584 688.804 616.925 701.103 611.607 710.66C606.289 720.217 599.016 727.268 589.787 731.812C580.715 736.356 570.469 738.628 559.052 738.628ZM559.756 713.246C565.23 713.246 569.844 711.757 573.598 708.78C577.352 705.804 580.246 701.495 582.279 695.854C584.312 690.214 585.329 683.477 585.329 675.643C585.329 667.026 584.235 659.818 582.045 654.021C579.854 648.067 576.727 643.524 572.66 640.39C568.75 637.1 563.979 635.455 558.348 635.455C553.03 635.455 548.415 636.944 544.505 639.92C540.751 642.897 537.857 647.284 535.824 653.081C533.947 658.722 533.009 665.537 533.009 673.528C533.009 685.905 535.355 695.619 540.047 702.67C544.74 709.72 551.309 713.246 559.756 713.246Z" fill="#6265F1"/>
<path d="M452.374 735.337V572H486.16V735.337H452.374Z" fill="#6265F1"/>
<path d="M361.763 738.628C355.35 738.628 349.328 737.531 343.697 735.337C338.223 732.987 333.686 729.383 330.089 724.526C326.648 719.67 324.928 713.167 324.928 705.02C324.928 697.499 326.335 691.389 329.151 686.689C332.122 681.832 336.111 677.993 341.117 675.173C346.121 672.353 351.596 670.159 357.54 668.592C363.483 667.026 369.506 665.693 375.606 664.597C383.895 663.031 390.074 661.856 394.141 661.072C398.364 660.132 401.18 659.035 402.588 657.782C403.995 656.371 404.699 654.491 404.699 652.141C404.699 646.814 402.822 642.819 399.068 640.155C395.314 637.335 390.387 635.925 384.287 635.925C380.689 635.925 377.014 636.63 373.26 638.04C369.506 639.294 366.377 641.644 363.875 645.091C361.529 648.537 360.356 653.316 360.356 659.427L330.089 656.841C330.089 647.441 331.653 639.685 334.782 633.575C338.067 627.308 342.446 622.373 347.921 618.769C353.394 615.165 359.417 612.579 365.987 611.013C372.556 609.447 379.047 608.663 385.46 608.663C397.034 608.663 406.654 610.857 414.319 615.243C422.139 619.474 428.004 625.74 431.915 634.045C435.825 642.349 437.781 652.532 437.781 664.597V686.924C437.781 692.25 437.781 697.656 437.781 703.14C437.781 708.467 437.781 713.872 437.781 719.356C437.937 724.683 438.015 730.011 438.015 735.337H408.218C408.374 729.383 408.53 723.351 408.688 717.241C408.844 711.131 408.922 704.785 408.922 698.205H407.515C406.732 705.569 404.307 712.306 400.241 718.416C396.174 724.527 390.856 729.462 384.287 733.222C377.718 736.826 370.21 738.628 361.763 738.628ZM374.902 713.481C378.03 713.481 381.314 712.854 384.756 711.601C388.353 710.19 391.638 708.154 394.61 705.49C397.582 702.67 400.007 699.066 401.884 694.679C403.761 690.135 404.699 684.652 404.699 678.228L404.934 672.823L411.034 671.648C409.782 673.841 407.515 675.564 404.23 676.818C401.101 678.072 397.582 679.089 393.672 679.873C389.761 680.499 385.772 681.205 381.706 681.988C377.639 682.772 373.885 683.79 370.444 685.044C367.002 686.297 364.187 688.099 361.998 690.449C359.964 692.643 358.948 695.698 358.948 699.615C358.948 704.001 360.433 707.449 363.406 709.955C366.377 712.306 370.21 713.481 374.902 713.481Z" fill="#6265F1"/>
<path d="M295.953 737.922C282.345 737.922 272.1 734.397 265.218 727.347C258.492 720.296 255.129 709.407 255.129 694.679V638.745H241.286V616.653H243.163C251.766 615.713 257.866 612.972 261.464 608.428C265.218 603.727 267.485 596.677 268.268 587.276L268.502 584.221H288.68V611.953H318.007V639.45H288.68V691.624C288.68 697.578 290.087 701.886 292.903 704.55C295.874 707.214 299.551 708.545 303.93 708.545C306.276 708.545 308.623 708.231 310.969 707.605C313.471 706.821 315.817 705.804 318.007 704.55V734.632C313.471 735.886 309.405 736.747 305.807 737.217C302.209 737.687 298.924 737.922 295.953 737.922Z" fill="#6265F1"/>
<path d="M158.869 738.628C152.457 738.628 146.434 737.531 140.803 735.337C135.33 732.987 130.793 729.383 127.195 724.526C123.755 719.67 122.034 713.167 122.034 705.02C122.034 697.499 123.441 691.389 126.257 686.689C129.23 681.832 133.218 677.993 138.223 675.173C143.228 672.353 148.703 670.159 154.646 668.592C160.59 667.026 166.612 665.693 172.712 664.597C181.002 663.031 187.181 661.856 191.247 661.072C195.47 660.132 198.286 659.035 199.693 657.782C201.101 656.371 201.805 654.491 201.805 652.141C201.805 646.814 199.928 642.819 196.174 640.155C192.42 637.335 187.493 635.925 181.393 635.925C177.796 635.925 174.12 636.63 170.366 638.04C166.612 639.294 163.484 641.644 160.981 645.091C158.635 648.537 157.462 653.316 157.462 659.427L127.195 656.841C127.195 647.441 128.76 639.685 131.888 633.575C135.173 627.308 139.553 622.373 145.027 618.769C150.502 615.165 156.523 612.579 163.092 611.013C169.662 609.447 176.154 608.663 182.566 608.663C194.141 608.663 203.761 610.857 211.425 615.243C219.246 619.474 225.111 625.74 229.021 634.045C232.932 642.349 234.887 652.532 234.887 664.597V686.924C234.887 692.25 234.887 697.656 234.887 703.14C234.887 708.467 234.887 713.872 234.887 719.356C235.044 724.683 235.121 730.011 235.121 735.337H205.324C205.482 729.383 205.638 723.351 205.794 717.241C205.951 711.131 206.028 704.785 206.028 698.205H204.621C203.839 705.569 201.414 712.306 197.347 718.416C193.281 724.527 187.962 729.462 181.393 733.222C174.824 736.826 167.316 738.628 158.869 738.628ZM172.008 713.481C175.137 713.481 178.421 712.854 181.862 711.601C185.46 710.19 188.745 708.154 191.716 705.49C194.689 702.67 197.113 699.066 198.99 694.679C200.867 690.135 201.805 684.652 201.805 678.228L202.04 672.823L208.14 671.648C206.889 673.841 204.621 675.564 201.336 676.818C198.208 678.072 194.689 679.089 190.778 679.873C186.868 680.499 182.879 681.205 178.812 681.988C174.746 682.772 170.992 683.79 167.55 685.044C164.11 686.297 161.294 688.099 159.104 690.449C157.071 692.643 156.054 695.698 156.054 699.615C156.054 704.001 157.54 707.449 160.512 709.955C163.484 712.306 167.316 713.481 172.008 713.481Z" fill="#6265F1"/>
<path d="M61.2364 738.628C50.5998 738.628 41.3721 736.982 33.551 733.692C25.8871 730.402 19.5523 725.858 14.5467 720.061C9.54101 714.107 5.86566 707.291 3.51933 699.615C1.17311 691.938 0 683.712 0 674.938C0 666.007 1.17311 657.625 3.51933 649.791C5.86566 641.8 9.46359 634.75 14.312 628.639C19.1605 622.373 25.4179 617.515 33.0818 614.068C40.9029 610.464 50.1306 608.663 60.7671 608.663C73.2807 608.663 83.4468 611.092 91.2679 615.948C99.2451 620.649 104.876 626.838 108.161 634.515C111.445 642.035 112.54 650.182 111.445 658.957L81.8831 661.542C82.0391 655.745 81.2578 650.966 79.5369 647.206C77.8159 643.289 75.3137 640.39 72.029 638.51C68.7443 636.474 64.7557 635.455 60.0633 635.455C56.3093 635.455 52.79 636.16 49.5053 637.57C46.3766 638.98 43.6398 641.252 41.2935 644.386C38.9473 647.362 37.1489 651.28 35.8972 656.136C34.6455 660.837 34.0203 666.556 34.0203 673.293C34.0203 681.91 35.1148 689.195 37.305 695.149C39.4952 700.946 42.6227 705.411 46.6898 708.545C50.913 711.522 55.9187 713.011 61.7056 713.011C67.9618 713.011 72.7328 711.601 76.0175 708.78C79.4583 705.804 81.8045 702.121 83.0562 697.734C84.3079 693.19 84.6199 688.569 83.9947 683.868L115.199 685.514C115.982 692.564 115.513 699.301 113.792 705.725C112.071 711.992 109.021 717.632 104.641 722.646C100.262 727.66 94.4741 731.577 87.2794 734.397C80.0847 737.217 71.4037 738.628 61.2364 738.628Z" fill="#6265F1"/>
</svg>
