<svg version="1.1" xmlns="http://www.w3.org/2000/svg" style="display: block;" viewBox="433.333 312 1292 1282.667" width="1292" height="1282.667" preserveAspectRatio="none">
<path transform="translate(0,0)" fill="rgb(0,0,0)" d="M 1355.32 337.271 C 1368.36 338.957 1375.4 349.269 1383.28 358.744 C 1409.21 389.953 1424.38 421.033 1436.46 459.629 C 1483.17 415.719 1553.57 393.637 1617.01 398.963 C 1624.36 399.58 1629.45 405.95 1632.89 411.641 C 1635.71 458.5 1620.07 515.118 1595.91 555.007 C 1587.89 568.254 1579.91 578.562 1570.39 590.558 C 1615.99 602.889 1652.23 619.64 1688.78 649.806 C 1715.39 671.766 1688.2 687.856 1671.68 703.235 C 1659.74 714.455 1647.93 725.807 1636.24 737.291 C 1587.31 785.661 1538.69 834.338 1490.37 883.319 C 1504.25 892.269 1517.16 901.777 1529.97 912.392 C 1544.77 924.123 1546.48 937.64 1532.28 950.891 C 1479.84 999.849 1421.73 1023.14 1350.44 1023.06 L 1027.78 1347.23 C 995.884 1379.62 964.167 1412.18 932.636 1444.92 C 913.34 1465.04 887.415 1493.91 866.605 1511.56 C 823.144 1548.16 768.257 1568.41 711.443 1568.81 C 644.732 1569.34 580.552 1543.3 533.062 1496.45 C 486.249 1450.55 459.67 1387.88 459.215 1322.33 C 459.062 1275.15 470.506 1230.85 495.163 1190.41 C 515.239 1157.49 546.744 1128.78 574.217 1101.35 L 652.272 1023.41 L 952.819 723.742 C 952.918 715.125 953.519 706.522 954.619 697.976 C 960.593 650.442 979.169 605.37 1008.42 567.43 C 1037.01 530.112 1048.63 529.795 1075.35 569.327 C 1080.63 577.142 1086.05 585.299 1091.21 593.231 C 1144.79 538.773 1198.67 484.599 1252.82 430.713 L 1308.94 374.376 C 1319.53 363.777 1330.42 352.508 1341.67 342.603 C 1345.83 338.948 1350.01 338.151 1355.32 337.271 z M 628.105 1453.51 C 676.523 1433.74 710.311 1391.92 746.666 1355.31 L 868.637 1233.19 L 1222.92 878.967 L 1329.93 771.529 C 1345.79 755.542 1364.13 735.938 1380.25 720.621 C 1358.33 706.163 1338.71 693.694 1323.54 672.009 C 1320.67 667.907 1308.33 648.759 1305.96 646.793 C 1259.29 692.256 1213.28 739.075 1167.12 785.087 L 827.58 1125.23 L 678.387 1275 C 649.354 1304.09 617.184 1333.97 591.562 1365.96 C 573.48 1388.52 563.311 1420.36 561.476 1448.84 C 561.286 1452.75 561.8 1454.8 563.652 1458.16 C 575.816 1468.43 614.369 1457.9 628.105 1453.51 z M 617.221 1502.04 C 650.237 1517.87 679.067 1524.7 715.876 1524.16 C 801.631 1519.86 833.357 1484.44 888.564 1427.54 L 971.256 1342.4 L 1175.16 1136.15 C 1214.88 1096.15 1255.42 1054.34 1295.79 1015.14 C 1258.04 1002.81 1230.5 991.433 1198.54 966.08 L 854.85 1309.37 L 759.902 1404.6 C 742.539 1422.12 719.896 1446.77 701.306 1461.41 C 676.728 1481.17 647.972 1495.06 617.221 1502.04 z M 1040.51 844.373 C 1073.22 804.555 1088.88 753.44 1084.11 702.137 C 1080.89 670.655 1070.19 640.399 1052.91 613.892 C 1050.45 610.106 1044.88 601.807 1041.63 598.696 C 1007.87 645.192 989.961 696.123 999.347 753.848 C 1004.05 782.781 1014.76 808.553 1030.72 833.041 C 1032.9 836.397 1037.27 842.336 1040.51 844.373 z M 524.449 1408.68 C 526.227 1399.52 528.925 1390.55 532.503 1381.93 C 554.771 1330.89 586.741 1304.19 625.314 1265.75 L 714.425 1176.34 L 1010.23 879.989 C 991.235 855.691 978.032 835.571 966.676 806.408 C 963.768 798.94 961.468 788.325 958.778 781.953 C 930.99 808.202 902.746 837.456 875.521 864.535 L 697.551 1042.06 L 606.443 1132.78 C 583.866 1155.28 555.894 1180.91 538.299 1206.82 C 517.114 1238.13 505.196 1274.79 503.916 1312.57 C 502.954 1344.98 511.588 1379.08 524.449 1408.68 z M 1558.88 752.986 C 1507.94 761.163 1470.99 757.494 1422.47 741.053 C 1386.28 777.201 1350.33 813.59 1314.61 850.216 C 1347.78 844.132 1377.32 843.59 1410.55 851.302 C 1414.81 852.29 1449.07 862.322 1449.34 862.247 C 1485.25 826.335 1522.37 787.956 1558.88 752.986 z M 1497.7 628.387 C 1461.72 632.591 1416.29 647.388 1388.66 671.25 C 1428.23 701.352 1481.01 720.019 1530.94 713.618 C 1575.38 708.822 1604.39 694.373 1640.28 668.95 C 1596.08 639.576 1553.14 624.358 1498.26 628.269 C 1498.07 628.308 1497.89 628.348 1497.7 628.387 z M 1127.66 760.858 C 1180.75 709.254 1232.26 655.71 1285.12 604.251 C 1267.23 558.755 1264.67 520.544 1272.75 472.99 C 1254.79 489.073 1231.71 514.001 1214.09 531.832 L 1112.85 633.524 C 1124.15 666.447 1129.88 690.712 1129.72 726.536 C 1129.69 732.278 1126.98 757.801 1127.66 760.858 z M 1355.33 394.64 C 1320.39 441.638 1305.57 485.816 1313.41 545.509 C 1317.03 573.145 1336.43 619.67 1355.35 639.364 C 1414.16 562.38 1416.29 471.153 1355.33 394.64 z M 1443.34 515.434 C 1442.53 535.579 1440.69 553.166 1436.05 573.005 C 1434.85 578.143 1428.81 592.115 1430.5 595.805 L 1433.26 595.467 C 1460.49 588.55 1488.41 584.704 1516.5 583.999 C 1558.38 540.582 1580.28 505.456 1587.56 443.452 L 1586.58 442.413 L 1583.74 442.456 C 1523.83 448.112 1482.14 468.96 1443.34 515.434 z M 1232.47 935.476 C 1237.75 940.707 1249.66 948.219 1256.2 951.902 C 1287.97 969.799 1321.93 979.095 1358.42 979.017 C 1363.56 979.024 1368.7 978.722 1373.81 978.112 C 1416.38 975.073 1450.26 958.661 1483.5 932.831 C 1446.17 904.629 1391.18 882.634 1343.62 889.387 C 1297.51 894.288 1269.04 907.806 1232.47 935.476 z"/>
</svg>