<svg version="1.1" xmlns="http://www.w3.org/2000/svg" style="display: block;" viewBox="529.333 389.333 984 1252" width="984" height="1252" preserveAspectRatio="none">
<path transform="translate(0,0)" fill="rgb(0,0,0)" d="M 1017.06 413.491 C 1018 413.459 1018.94 413.439 1019.87 413.428 C 1121.3 412.758 1205.12 457.255 1275.33 527.509 C 1412.65 664.924 1489.13 887.547 1489.17 1079.6 C 1489.21 1225.33 1433.02 1377.62 1329.1 1481.13 C 1248.04 1561.86 1142.63 1616.02 1026.75 1616.11 C 750.309 1616.68 561.713 1364.3 554.259 1104.37 C 546.757 842.742 710.311 421.813 1017.06 413.491 z M 1043.39 1567 C 1155.05 1558.09 1246.4 1503.5 1318.83 1419.36 C 1413.22 1309.73 1450.44 1165.28 1438.22 1022.32 C 1423.16 846.199 1347.86 652 1210.78 534.661 C 1152.2 484.518 1081.51 456.07 1003.72 461.43 C 906.175 470.189 833.815 523.011 772.943 596.468 C 656.969 736.419 589.436 954.293 605.072 1135.52 C 616.286 1265.5 676.123 1390.19 776.955 1473.83 C 838.099 1524.54 910.963 1558.63 990.718 1566.15 C 1007.42 1567.72 1026.55 1567.25 1043.39 1567 z"/>
<path transform="translate(0,0)" fill="rgb(0,0,0)" d="M 744.542 1065.25 C 778.337 1066.81 770.676 1098.2 772.994 1122.78 C 775.515 1149.76 781.042 1176.38 789.471 1202.13 C 821.197 1298.32 893.325 1371.33 992.342 1396.89 C 1012.69 1402.14 1054.88 1403 1038.67 1439.95 C 1035.73 1446.66 1026.87 1450.41 1020.05 1452.06 C 986.242 1452.69 922.213 1426.09 892.588 1408.92 C 813.908 1363.31 759.387 1285.69 736.104 1198.49 C 729.686 1174.45 714.151 1095.57 726.005 1076.46 C 730.238 1069.63 737.009 1066.86 744.542 1065.25 z"/>
</svg>