<svg version="1.1" xmlns="http://www.w3.org/2000/svg" style="display: block;" viewBox="414.667 393.333 1226.667 1228" width="1226.667" height="1228" preserveAspectRatio="none">
<path transform="translate(0,0)" fill="rgb(0,0,0)" d="M 1090.16 418.209 C 1110.12 416.468 1123.02 433.224 1136.56 445.75 C 1184.57 490.163 1219.45 545.767 1234.73 609.723 C 1301.7 486.529 1405.13 429.669 1544.35 430.825 C 1590.09 431.205 1606.79 423.442 1606.2 479.22 C 1604.76 616.501 1556.79 729.795 1426.17 796.954 C 1500.55 814.828 1565.47 861.952 1608.67 924.863 C 1614.07 932.735 1617.86 941.49 1615.7 951.199 C 1610.35 975.246 1539.27 1030.97 1515.98 1045.14 C 1440.85 1091.41 1350.33 1105.74 1264.58 1084.93 C 1299.51 1107.94 1338.75 1138.87 1363.69 1172.87 C 1368.46 1179.36 1372.12 1186.54 1370.62 1194.79 C 1366.37 1218.28 1304.04 1272.04 1282.34 1287.38 C 1200.79 1345.06 1116.51 1354.57 1020.34 1338.11 C 1060.25 1365.76 1081.12 1386.08 1112.68 1423.44 C 1113.65 1424.58 1114.59 1425.76 1115.49 1426.95 C 1120.08 1433.08 1122.57 1440.22 1121.14 1447.89 C 1116.83 1470.86 1051.63 1525.6 1030.17 1540.68 C 959.084 1590.65 870.289 1606.8 785.301 1591.89 C 720.834 1580.58 657.526 1549.13 610.773 1503.23 C 603.439 1496.03 595.957 1488.53 589.497 1480.54 C 584.799 1474.72 580.755 1467.69 575.531 1462.4 C 567.582 1454.36 557.536 1447.95 549.101 1440.31 C 529.821 1422.62 512.544 1402.87 497.582 1381.41 C 448.006 1310.21 428.641 1222.27 443.722 1136.83 C 456.621 1063.57 496.442 994.183 549.805 942.8 C 558.154 934.76 566.884 925.529 576.517 919.07 C 583.105 914.654 590.386 912.033 598.344 913.814 C 617.076 918.008 666.633 974.651 680.027 992.277 C 688.675 1003.66 696.093 1015.75 703.594 1027.9 C 665.546 898.433 723.347 753.521 826.962 669.978 C 847.853 653.135 861.09 667.981 876.981 681.807 C 906.912 707.847 929.397 735.873 952.125 768.381 C 937.227 696.101 941.664 630.911 971.169 562.79 C 990.152 518.813 1017.78 479.101 1052.42 446.013 C 1063.52 435.234 1075.65 423.937 1090.16 418.209 z M 629.801 1448.11 C 677.833 1504.51 746.324 1539.5 820.177 1545.36 C 832.74 1546.38 856.135 1546.78 868.755 1545.18 C 954.851 1536.59 1004.07 1503.13 1062.04 1443.14 C 1004.5 1380.7 946.17 1341.69 857.624 1338.09 C 846.962 1337.75 836.291 1337.86 825.638 1338.42 C 763.366 1344.38 712.793 1365.6 666.44 1408.8 C 652.433 1421.85 642.632 1434.63 629.801 1448.11 z M 1555.29 481.238 C 1548.47 481.168 1540.57 480.891 1533.88 481.44 C 1484.34 484.148 1440.81 490.112 1396.25 513.183 C 1300.49 562.755 1251.54 665.084 1243.89 768.882 C 1243.45 774.861 1242.87 781.883 1242.05 787.82 C 1249.03 787.34 1256.86 786.979 1263.75 786.288 C 1351.96 779.111 1428.82 756.124 1488.86 685.591 C 1537.79 628.116 1554.71 555.136 1555.29 481.238 z M 1095.35 476.838 C 1036.96 527.665 1001.15 599.599 995.788 676.823 C 991.051 751.947 1015.82 821.766 1065.65 877.878 C 1069.59 882.312 1086.88 901.076 1090.84 902.741 C 1106.36 887.266 1121.94 872.316 1135.45 854.988 C 1173.08 806.704 1191.92 746.963 1191.92 686.016 C 1191.92 607.6 1160.33 541.082 1105.38 486.349 C 1102.1 483.115 1098.75 479.944 1095.35 476.838 z M 1169.45 1046.15 C 1136.38 1024.55 1105.41 996.576 1081.09 965.476 C 1072.09 952.233 1060.12 942.458 1047.97 932.024 C 1037.14 922.715 1028.48 911.403 1018.7 901.367 C 1007.2 889.568 998.964 870.922 988.844 859.683 C 1002.25 927.762 1000.53 993.574 977.418 1059.46 C 1029.15 1041.42 1075.79 1033.36 1130.8 1039.71 C 1141.65 1040.92 1158.93 1043.35 1169.45 1046.15 z M 725.113 1310.71 C 773.443 1290.43 826.127 1282.72 878.243 1288.31 C 889.555 1289.71 905.714 1292.19 916.788 1295.15 C 891.852 1276.52 874.137 1262.76 853.285 1239.44 C 845.225 1230.42 830.367 1210.44 822.886 1203.48 C 802.144 1184.21 782.755 1169.4 763.274 1147.97 C 753.786 1137.53 744.557 1120.91 737.894 1113.71 C 752.134 1179.28 747.706 1247.53 725.113 1310.71 z M 845.51 723.103 C 731.138 820.245 706.233 1001.53 806.686 1117.81 C 818.47 1131.34 831.405 1143.82 845.346 1155.1 C 860.976 1140.45 876.531 1126.28 890.033 1109.56 C 925.495 1065.65 944.455 1007.52 946.167 951.412 C 948.563 872.905 924.574 804.857 870.212 747.276 C 862.26 738.935 854.021 730.872 845.51 723.103 z M 881.43 1193.5 C 932.387 1253.36 989.558 1287.42 1069.49 1293.94 C 1082.69 1294.91 1095.93 1295.21 1109.16 1294.84 C 1198.86 1287.32 1251.09 1255.75 1311.27 1191.35 C 1254.61 1128.46 1194.87 1094.22 1107.78 1088.58 C 1101.49 1088.17 1092.88 1088.04 1086.57 1088.44 C 1034.74 1091.03 987.132 1105.1 944.365 1135.4 C 920.731 1152.15 901.404 1172.71 881.43 1193.5 z M 592.761 973.826 C 530.769 1033.64 491.828 1099.4 490.378 1188.5 C 488.812 1263.62 517.914 1336.14 570.976 1389.34 C 576.349 1394.83 584.879 1403.18 590.97 1407.96 C 607.063 1392.58 623.705 1377.38 637.532 1359.94 C 674.766 1312.99 692.965 1256.1 694.407 1196.75 C 696.305 1118.67 667.207 1049.61 613.132 993.772 C 606.475 986.897 599.547 980.536 592.761 973.826 z M 1343.14 836.469 C 1260.18 838.601 1200.15 867.59 1143.3 927.378 L 1128.84 942.742 C 1181.35 1002.87 1241.33 1037.21 1322.31 1042.72 C 1329.24 1043.25 1336.18 1043.53 1343.12 1043.55 C 1436.78 1040.34 1494.89 1009.39 1558.51 942.9 C 1501.26 871.636 1434.66 837.821 1343.14 836.469 z"/>
</svg>