<svg version="1.1" xmlns="http://www.w3.org/2000/svg" style="display: block;" viewBox="442.667 437.333 1169.333 1038.667" width="1169.333" height="1038.667" preserveAspectRatio="none">
<path transform="translate(0,0)" fill="rgb(0,0,0)" d="M 1324.44 943.68 C 1465.04 938.31 1583.35 1048.01 1588.59 1188.62 C 1593.83 1329.23 1484.02 1447.43 1343.41 1452.54 C 1202.98 1457.65 1084.96 1348.01 1079.73 1207.59 C 1074.49 1067.16 1184.02 949.043 1324.44 943.68 z M 1346.38 1418.19 C 1468.09 1411.54 1561.27 1307.33 1554.31 1185.63 C 1547.36 1063.94 1442.9 971.028 1321.23 978.299 C 1200 985.543 1107.49 1089.53 1114.43 1210.78 C 1121.36 1332.04 1225.11 1424.81 1346.38 1418.19 z"/>
<path transform="translate(0,0)" fill="rgb(0,0,0)" d="M 1315.22 1037.37 C 1327.68 1036.28 1349.13 1035.51 1347.85 1056.89 C 1347.52 1062.39 1341.4 1067.66 1336.93 1070.68 C 1324.5 1071.41 1313.76 1071.89 1301.39 1075.19 C 1259.91 1085.96 1227.7 1118.67 1215.11 1159.32 C 1211.94 1169.59 1213.39 1182.17 1207.51 1191.5 C 1202.44 1196.13 1190.81 1200.68 1185.84 1195.64 C 1162.92 1172.32 1197.11 1113.11 1210.87 1095.65 C 1236.28 1062.84 1273.96 1041.8 1315.22 1037.37 z"/>
<path transform="translate(0,0)" fill="rgb(0,0,0)" d="M 711.233 943.53 C 851.617 938.364 969.64 1047.91 974.927 1188.29 C 980.213 1328.67 870.764 1446.79 730.388 1452.2 C 589.843 1457.61 471.551 1348 466.258 1207.45 C 460.965 1066.9 570.678 948.702 711.233 943.53 z M 734.333 1417.92 C 855.653 1410.5 948.01 1306.17 940.66 1184.85 C 933.311 1063.53 829.036 971.109 707.707 978.388 C 586.279 985.673 493.77 1090.05 501.125 1211.48 C 508.481 1332.9 612.913 1425.35 734.333 1417.92 z"/>
<path transform="translate(0,0)" fill="rgb(0,0,0)" d="M 701.689 1037.39 C 714.275 1034.98 733.148 1035.66 734.192 1052.23 C 735.554 1073.86 715.936 1070.73 702.206 1072.32 C 650.684 1078.32 605.826 1122.26 599.731 1173.88 C 598.882 1181.02 598.461 1186.29 593.73 1192.14 C 582.471 1200.75 568.325 1199.79 565.606 1185.26 C 560.206 1156.4 582.457 1113.79 599.158 1092.98 C 624.532 1061.5 661.456 1041.48 701.689 1037.39 z"/>
<path transform="translate(0,0)" fill="rgb(0,0,0)" d="M 1019.23 460.615 C 1159.3 455.916 1276.68 565.626 1281.43 705.697 C 1286.19 845.768 1176.53 963.19 1036.46 968.007 C 896.31 972.826 778.803 863.086 774.043 722.932 C 769.282 582.778 879.072 465.317 1019.23 460.615 z M 1036.46 933.912 C 1157.57 929.149 1251.96 827.22 1247.42 706.096 C 1242.88 584.973 1141.12 490.399 1019.99 494.72 C 898.544 499.053 803.672 601.13 808.226 722.566 C 812.78 844.002 915.03 938.687 1036.46 933.912 z"/>
<path transform="translate(0,0)" fill="rgb(0,0,0)" d="M 1010.64 555.376 C 1021.38 554.3 1032.88 553.12 1040.03 563.077 C 1047 572.78 1040.3 582.024 1032.09 587.669 C 1022.22 589.237 1012.89 588.944 1001.9 591.055 C 957.545 599.744 921.718 632.411 908.982 675.78 C 905.831 686.597 906.823 699.585 900.292 708.72 C 887.261 718.074 871.818 713.948 871.387 697.212 C 870.641 668.239 886.93 635.183 904.471 612.682 C 931.177 578.423 968.21 560.499 1010.64 555.376 z"/>
</svg>