<svg version="1.1" xmlns="http://www.w3.org/2000/svg" style="display: block;" viewBox="617.333 420 845.333 1158.667" width="845.333" height="1158.667" preserveAspectRatio="none">
<path transform="translate(0,0)" fill="rgb(18,18,18)" d="M 747.809 444.236 C 783.134 442.507 830.879 443.91 866.871 443.921 L 1095.16 443.98 L 1252.18 443.989 C 1278.15 443.967 1304.24 443.518 1330.18 444.286 C 1340.76 444.599 1346.89 455.163 1347.47 464.726 C 1348.29 478.409 1347.92 492.231 1347.9 505.954 L 1347.9 591.058 C 1353.75 600.683 1359.54 610.374 1365.18 620.143 C 1388.68 660.806 1413.56 700.806 1436.23 741.91 C 1437.91 744.942 1438.68 752.672 1438.7 756.351 C 1438.94 805.112 1438.76 853.884 1438.76 902.648 L 1438.82 1184.38 L 1438.76 1414.31 C 1438.79 1452.51 1439.08 1490.75 1438.82 1528.91 C 1438.25 1538.28 1437.84 1546.81 1428.01 1551.05 C 1416.26 1556.12 1400.71 1554.53 1387.96 1554.51 L 1330.75 1554.37 L 834.893 1554.24 L 710.806 1554.48 C 698.545 1554.48 666.706 1556.22 656.58 1553.35 C 650.344 1551.59 645.328 1546.77 642.586 1540.98 C 639.054 1533.51 641.07 1417.86 641.079 1400.17 L 641.07 943.188 L 641.114 815.152 C 641.08 794.518 640.445 770.924 641.828 750.719 C 642.509 740.766 661.978 711.164 667.729 701.556 L 712.753 626.45 C 718.648 616.631 727.019 605.519 730.686 594.653 C 733.708 585.699 732.362 573.235 732.359 563.879 C 732.354 545.104 729.661 466.269 734.342 455.591 C 736.93 449.687 742.074 446.573 747.809 444.236 z M 682.101 1105.73 C 691.9 1106.62 702.144 1107.74 711.463 1110.97 C 744.297 1122.34 761.044 1137.77 797.493 1140.32 C 839.93 1143.29 856.359 1128.9 891.672 1115.82 C 907.963 1109.7 925.093 1106.1 942.471 1105.15 C 987.698 1102.63 1013.22 1114.03 1053.19 1131.34 C 1089.4 1147.01 1128.72 1141.67 1163.68 1124.05 C 1181.29 1115.34 1198.19 1107.68 1218 1105.58 L 1218.02 772.125 L 682.045 772.236 L 682.101 1105.73 z M 682.025 1146.84 L 682.082 1512.76 L 946.5 1512.88 L 1218.05 1512.86 L 1218.16 1146.67 C 1188.4 1154.94 1167.3 1170.99 1135.93 1177.57 C 1102.01 1184.66 1066.73 1181.38 1034.7 1168.15 C 1003.83 1155.75 989.93 1145.99 954.268 1145.47 C 914.453 1146.98 901.302 1157.05 865.402 1171.11 C 841.923 1180.31 811.423 1182.55 786.404 1179.79 C 769.696 1177.84 753.347 1173.55 737.841 1167.03 C 715.16 1157.62 707.279 1150.94 682.025 1146.84 z M 772.954 485.535 L 772.909 575.803 C 824.31 575.579 1304.66 576.439 1306.58 574.622 L 1306.69 485.599 L 772.954 485.535 z M 698.226 730.428 C 766.831 731.256 836.895 730.675 905.602 730.617 L 1225.69 730.55 C 1228.35 727.68 1241.67 703.983 1244.58 698.944 L 1291.89 617.021 C 1170.68 615.31 1045.43 616.634 924.004 616.687 L 821.043 616.769 C 804.772 616.784 782.046 617.407 766.211 616.568 C 744.595 654.806 719.836 692.126 698.226 730.428 z M 1258.43 1512.89 L 1328.5 1512.97 L 1398.27 1512.98 L 1398.44 950.206 L 1398.4 819.934 C 1398.42 804.134 1400.46 771.835 1397.45 758.591 C 1395.26 748.937 1337.41 653.861 1327.35 637.083 C 1317.53 654.359 1261.53 747.313 1259.45 757.813 C 1256.47 772.843 1258.5 796.968 1258.53 812.708 L 1258.67 932.484 L 1258.51 1323.69 L 1258.52 1448.56 C 1258.53 1467.44 1259.36 1494.56 1258.43 1512.89 z"/>
</svg>