<svg version="1.1" xmlns="http://www.w3.org/2000/svg" style="display: block;" viewBox="549.333 350.667 1082.667 1266.667" width="1082.667" height="1266.667" preserveAspectRatio="none">
<path transform="translate(0,0)" fill="rgb(0,0,0)" d="M 1286.46 375.412 C 1331.45 375.636 1352.54 404.815 1381.8 433.973 L 1461.05 512.876 L 1546.3 597.369 C 1556.68 607.682 1581.62 631.295 1589.65 641.662 C 1598.24 652.839 1603.93 665.973 1606.2 679.888 C 1609.89 701.823 1604.74 724.327 1591.89 742.479 C 1584.34 753.055 1566.97 767.695 1556.77 776.888 L 1513.08 816.564 L 1348.75 966.762 L 1172.1 1128.08 C 1155.85 1143.03 1139.67 1158.07 1123.57 1173.18 C 1114.75 1181.41 1105.7 1190.58 1096.24 1197.95 C 1059.2 1226.82 1016.31 1221.9 980.377 1195.69 C 972.278 1202.33 961.114 1210.94 953.49 1217.85 C 914.059 1253.58 898.358 1238.36 865.551 1206.93 C 808.475 1252.03 749.415 1301.52 693.09 1347.92 C 728.733 1347.81 765.836 1346.86 801.324 1347.78 C 894.42 1350.2 908.018 1474.12 816.565 1494.93 C 796.979 1499.39 771.697 1490.8 756.215 1504.33 C 740.022 1518.96 749.385 1548.01 771.072 1549.79 C 795.55 1551.79 822.611 1550.66 847.25 1550.61 L 945.502 1550.57 C 959.049 1550.53 995.004 1547.68 1004.36 1555.1 C 1008.63 1558.51 1011.37 1563.47 1012 1568.89 C 1012.71 1574.86 1010.91 1580.85 1007.03 1585.45 C 1002.12 1591.23 996.389 1592.66 989.123 1592.78 C 974.136 1593.02 959.005 1592.91 944.014 1592.91 L 857.474 1592.89 L 804.022 1592.86 C 773.522 1592.83 751.257 1595.58 727.017 1573.17 C 713.898 1561.13 706.204 1544.29 705.681 1526.48 C 704.87 1508.14 711.613 1490.28 724.337 1477.04 C 745.17 1454.96 770.987 1453.49 800.189 1454.17 C 840.822 1455.12 850.534 1408.17 814.984 1392.4 C 806.437 1388.61 782.678 1390.06 772.019 1390.08 L 677.396 1390.14 C 659.597 1390.15 634.923 1391.7 618.306 1388.24 C 580.769 1380.44 561.394 1337.67 583.363 1304.82 C 589.099 1296.24 597.392 1287.64 604.036 1280.22 L 640.081 1240.07 C 679.698 1195.8 719.707 1149.76 760.005 1106.28 C 757.452 1103.93 754.919 1101.55 752.406 1099.16 C 710.594 1059.16 740.127 1022.08 771.473 990.124 C 747.354 952.61 746.181 909.913 776.686 874.915 C 790.135 859.486 804.69 844.808 818.765 829.929 L 894.688 749.895 L 1095.78 537.447 L 1186.36 441.957 C 1218.72 407.779 1236.04 378.885 1286.46 375.412 z M 931.043 770.709 L 1091.61 932.719 C 1128.85 969.773 1165.75 1007.17 1202.3 1044.92 L 1209.98 1037.61 L 1415.87 849.074 C 1355.28 786.326 1290.12 722.152 1228.24 660.719 L 1162.11 595.188 C 1153.21 586.415 1138.52 571.079 1129.4 563.246 L 1008.7 689.695 C 984.05 715.557 956.238 746.192 931.043 770.709 z M 800.701 1019.78 C 792.297 1028.4 776.333 1043.84 774.886 1055.77 C 776.31 1062.33 821.607 1104.59 829.784 1112.55 L 913.767 1195.12 L 915.671 1195.56 L 919.715 1192.21 L 949.054 1166.97 L 861.101 1079.6 C 843.023 1061.53 819.374 1036.56 800.701 1019.78 z M 1170.39 1072.76 L 980.746 881.445 L 926.423 826.778 C 920.255 820.657 908.084 807.984 901.752 802.721 C 881.237 824.725 860.606 846.621 839.859 868.406 C 826.809 882.194 810.926 897.134 800.808 913.071 C 792.872 925.573 794.007 946.944 802.801 958.561 C 810.63 968.123 820.602 977.483 829.468 986.347 L 877.612 1034.54 L 960.54 1117.94 C 974.61 1132.04 988.478 1146.34 1002.89 1160.08 C 1019.01 1175.43 1041.14 1179.3 1061.62 1170.44 C 1072.91 1164.26 1079.43 1157.09 1088.92 1148.5 C 1116.34 1123.67 1142.89 1097.46 1170.39 1072.76 z M 790.406 1133.99 C 751.921 1178.24 711.924 1222.34 672.91 1266.25 L 638.943 1304.46 C 630.431 1314.06 607.376 1333.25 622.497 1345.13 C 624.418 1346.64 625.006 1346.95 627.453 1347.55 C 634.971 1346.53 640.789 1339.46 646.644 1333.99 C 689.828 1296.91 733.499 1260.4 777.645 1224.47 C 794.288 1210.97 818.516 1190.36 835.684 1178.14 C 821.594 1164.37 804.763 1147.05 790.406 1133.99 z M 1281.09 418.161 C 1264.77 421.923 1260.35 424.778 1248.85 437.19 C 1240.73 445.941 1232.04 454.981 1223.8 463.669 L 1158.15 532.424 C 1226.82 599.507 1294.91 667.177 1362.42 735.427 C 1390.59 763.699 1418.83 793.045 1447.21 820.947 C 1451.21 818.229 1460.92 808.878 1464.91 805.212 L 1498.3 774.533 L 1535.88 740.159 C 1548.2 728.938 1563.84 717.835 1566.28 700.677 C 1567.8 690.044 1565.48 679.325 1559.7 670.216 C 1547.78 655.944 1530.96 640.372 1517.49 627.207 L 1435.04 546.232 L 1357.19 468.606 C 1343.56 454.957 1330.14 440.943 1315.89 427.973 C 1305.87 418.863 1294.16 417.137 1281.09 418.161 z"/>
</svg>