<svg version="1.1" xmlns="http://www.w3.org/2000/svg" style="display: block;" viewBox="436 362.667 1221.333 1173.333" width="1221.333" height="1173.333" preserveAspectRatio="none">
<path transform="translate(0,0)" fill="rgb(0,0,0)" d="M 1434.56 575.416 C 1436.06 575.323 1439.95 574.749 1440.37 575.559 C 1453.15 600.144 1469.75 659.047 1473.62 684.234 C 1482.32 737.969 1468.97 792.941 1436.59 836.698 C 1385.62 905.713 1318.86 917.014 1240.81 928.47 L 1238.57 928.122 C 1231.79 921.646 1209.8 857.459 1206.51 845.1 C 1203.38 833.747 1201.17 822.158 1199.92 810.447 C 1194.31 754.001 1210.71 704.442 1246.71 660.954 C 1296.05 601.359 1360.57 582.251 1434.56 575.416 z M 1264.88 879.754 C 1302.18 873.377 1332.72 866.67 1364.63 845.207 C 1416.72 810.168 1439.22 748.716 1428.89 687.778 C 1427.27 678.251 1415.51 630.509 1411.02 624.356 L 1410.23 624.316 C 1353.41 633.144 1306.64 652.951 1272.11 700.694 C 1228.08 761.584 1240.53 815.472 1264.88 879.754 z"/>
<path transform="translate(0,0)" fill="rgb(0,0,0)" d="M 998.087 825.743 C 1006.9 829.692 1018.34 833.215 1027.67 836.724 C 1100.16 863.91 1166.77 908.757 1187.55 987.687 C 1211.04 1076.94 1167.17 1141.04 1125.42 1213.54 C 1099 1207.26 1042.4 1179.17 1019.79 1164.24 C 975.06 1134.72 942.974 1092.35 932.371 1039.16 C 916.364 958.843 954.563 889.979 998.087 825.743 z M 1106.79 1158.74 C 1135.54 1111.8 1159.29 1060.68 1145.65 1004.43 C 1129.62 938.336 1075.9 902.774 1015.56 880.816 C 985.883 931.91 962.423 977.946 978.143 1039.54 C 988.885 1081.64 1020.96 1115.58 1058.17 1135.96 C 1066.24 1140.38 1100.53 1159.04 1106.79 1158.74 z"/>
<path transform="translate(0,0)" fill="rgb(0,0,0)" d="M 1406.57 983.402 C 1451.67 978.472 1504.91 995.024 1540.64 1022.73 C 1603.43 1071.41 1622.25 1140.37 1632.37 1214.96 C 1585.92 1234.72 1554.18 1247.41 1503.57 1252.9 C 1452.56 1254.47 1409.69 1245.53 1368.13 1214.06 C 1304.91 1166.18 1285.26 1097.27 1274.81 1022.62 C 1311.95 1002.57 1364.91 986.522 1406.57 983.402 z M 1324.36 1048.85 C 1335.31 1103.58 1354.51 1152.24 1403.09 1184.04 C 1433.5 1203.94 1462.4 1210.26 1498.24 1208.72 C 1531.16 1205.86 1552.17 1199.19 1582.58 1187.26 C 1570.14 1130.74 1554.04 1084.49 1502.9 1050.23 C 1477.49 1033.2 1438.72 1024.04 1408.22 1027.4 C 1375.61 1030.22 1354.26 1037.24 1324.36 1048.85 z"/>
<path transform="translate(0,0)" fill="rgb(0,0,0)" d="M 892.07 1152.38 C 894.968 1151.96 894.098 1152.03 897.056 1152.38 C 905.035 1162.15 925.611 1226.21 929.704 1241 C 950.263 1315.27 926.028 1396.38 868.378 1447.65 C 821.876 1489 769.595 1499.15 710.377 1507.65 C 707.661 1508.05 706.209 1508.61 703.843 1507.31 C 691.225 1482.15 671.998 1423.08 668.142 1394.79 C 660.621 1339.61 675.212 1285.48 709.602 1241.41 C 755.514 1182.57 820.93 1161.39 892.07 1152.38 z M 735.26 1458.69 C 770.565 1452.09 802.925 1444.24 831.671 1421.46 C 876.507 1385.93 901.312 1326.15 890.726 1269.53 C 888.561 1257.95 875.786 1208.79 869.805 1201.98 L 867.412 1202.23 C 813.072 1213.37 769.082 1231.51 736.525 1279.49 C 711.711 1316.06 705.258 1357.79 714.391 1400.6 C 716.344 1409.75 728.055 1452.26 733.132 1458.63 L 735.26 1458.69 z"/>
<path transform="translate(0,0)" fill="rgb(0,0,0)" d="M 1272.2 1252.39 C 1350.93 1243.84 1411.09 1289.16 1468.41 1335.33 C 1462.81 1350.14 1455.31 1364.42 1448.15 1378.51 C 1411.13 1451.46 1358.14 1501.78 1274.25 1510.93 C 1269.38 1511.13 1264.5 1511.22 1259.62 1511.19 C 1185.54 1510.55 1124.25 1469.23 1074.03 1418.13 C 1120.18 1333.7 1167.62 1262.89 1272.2 1252.39 z M 1129.78 1410.5 C 1168.7 1442.38 1214.82 1471.49 1267.51 1467.56 C 1344.35 1460.17 1379.77 1412.14 1413.89 1348.87 C 1371.83 1318.23 1331.15 1293.05 1276.54 1297.38 C 1201.17 1306.01 1165.99 1348.56 1129.78 1410.5 z"/>
<path transform="translate(0,0)" fill="rgb(0,0,0)" d="M 1073.44 387.426 L 1075.36 387.332 C 1078.75 390.537 1083.36 404.686 1085.16 409.537 C 1096.27 439.541 1106.27 466.182 1111.03 497.842 C 1119.34 553.143 1108.15 604.39 1073.85 649.181 C 1025.32 712.576 956.831 728.356 882.432 738.441 L 880.541 738.088 C 873.081 723.842 867.922 707.53 861.866 692.68 C 793.94 526.116 905.507 405.411 1073.44 387.426 z M 908.381 689.445 C 1006.34 675.22 1081.4 613.677 1067.03 506.643 C 1065.41 494.587 1053.33 446.882 1047.8 438.409 C 991.042 450.898 940.915 470.295 908.316 521.816 C 873.027 577.589 886.046 632.482 908.381 689.445 z"/>
<path transform="translate(0,0)" fill="rgb(0,0,0)" d="M 591.544 661.406 C 635.534 655.294 690.457 671.339 725.399 698.52 C 788.145 747.331 805.592 814.762 816.07 888.869 C 808.733 892.963 797.016 897.405 789.04 900.684 C 755.07 914.648 723.783 924.697 686.756 927.308 C 641.523 931.383 592.96 917.333 556.222 890.906 C 491.925 844.653 472.078 773.923 459.95 700.015 C 504.44 680.301 542.644 665.672 591.544 661.406 z M 511.009 726.357 C 528.857 816.327 579.388 885.22 678.491 883.976 C 715.399 880.464 732.186 875.441 766.573 861.936 C 754.115 805.723 738.938 761.084 687.751 726.917 C 665.212 711.872 628.611 702.308 601.696 705.422 C 565.532 708.302 544.573 713.974 511.009 726.357 z"/>
</svg>