<svg version="1.1" xmlns="http://www.w3.org/2000/svg" style="display: block;" viewBox="394.667 362.667 1225.333 1261.333" width="1225.333" height="1261.333" preserveAspectRatio="none">
<path transform="translate(0,0)" fill="rgb(25,25,25)" d="M 1224.56 388.25 C 1225.44 388.122 1226.33 387.986 1227.22 387.904 C 1234.11 387.276 1240.69 387.983 1246.04 392.751 C 1255.58 401.257 1263.33 443.414 1268.52 458.714 C 1274.47 475.927 1281.48 492.758 1289.5 509.112 C 1312.09 554.028 1330.94 582.183 1334.11 634.904 C 1388.43 633.588 1424.55 652.362 1472.03 672.831 C 1489.6 680.211 1507.54 686.71 1525.76 692.301 C 1544.76 698.033 1567.67 697.806 1583.91 707.544 C 1596.3 714.969 1588.85 740.038 1586.9 751.572 C 1585.43 760.691 1584.45 769.882 1583.96 779.105 C 1582.56 809.414 1588.57 840.029 1592.63 869.939 C 1607.79 981.579 1545.3 1096.52 1443.38 1144.45 C 1402.28 1163.78 1365.53 1166.45 1327.36 1193.11 C 1285.23 1222.55 1275.16 1262.88 1241.57 1300.33 C 1214.5 1330.51 1181.53 1352.92 1143.07 1366.02 C 1102.68 1379.78 1072.48 1385.62 1038.12 1414.48 C 1007.24 1440.4 994.165 1469.5 969.929 1500.08 C 924.195 1557.8 867.037 1590 794.206 1598.98 C 744.189 1602.72 700.904 1595.51 655.01 1575.07 C 628.728 1563.36 603.482 1551.12 575.698 1543.09 C 561.207 1538.91 522.327 1536.39 513.999 1530.63 C 509.8 1527.73 506.9 1522.89 504.748 1518.37 C 500.864 1510.2 498.322 1501.11 495.062 1492.65 C 488.85 1476.83 482.383 1461.12 475.665 1445.52 C 456.618 1401.84 433.561 1365.19 424.18 1317.26 C 405.598 1227.36 436.711 1124.15 505.9 1062.86 C 539.255 1033.31 573.051 1016.88 595.57 974.605 C 609.366 948.705 614.045 929.302 620.169 900.744 C 628.205 863.271 645.917 826.069 669.387 795.819 C 680.485 781.547 692.992 768.429 706.719 756.663 C 738.014 730.162 758.608 721.937 782.45 683.374 C 802.021 651.721 801.34 633.778 810.318 599.257 C 818.211 567.732 831.518 537.819 849.649 510.849 C 871.855 477.645 901.126 449.761 935.367 429.191 C 1008.48 385.656 1070.47 392.381 1150.16 396.039 C 1171.76 397.03 1203.42 392.357 1224.56 388.25 z M 554.468 1490.52 C 577.677 1494.45 600.268 1499.89 622.117 1508.98 C 679.208 1532.72 711.875 1555.72 777.104 1553.86 C 838.701 1547.23 893.998 1524.21 930.478 1474.27 C 973.778 1414.99 1003.06 1361.22 1078.71 1337.49 C 1116.12 1325.76 1156.61 1315.58 1186.74 1288.53 C 1238.45 1244.22 1241.33 1198.3 1298.96 1155.79 C 1318.67 1141.41 1340.47 1130.15 1363.61 1122.4 C 1385.29 1115.23 1402.03 1111.64 1423.55 1101.84 C 1505.09 1064.73 1557.64 969.644 1547.53 881.002 C 1545.61 864.189 1542.31 847.624 1540.18 830.897 C 1536.33 801.577 1536.78 771.852 1541.52 742.663 C 1517.42 737.807 1493.82 730.768 1471 721.634 C 1419.19 701.404 1375.22 675.576 1316.22 681.578 C 1258.11 685.859 1202.5 711.518 1164.66 756.068 C 1137.21 788.379 1125.28 821.928 1092.14 850.64 C 1066.83 872.574 1042.13 886.514 1010.38 897.594 C 969.204 911.962 940.332 916.353 905.616 945.481 C 873.144 972.727 865.223 994.728 842.475 1026.59 C 829.291 1045.32 813.25 1061.87 794.939 1075.63 C 749.519 1109.26 713.675 1112.73 665.967 1132.65 C 582.992 1167.28 531.87 1266.43 541.83 1354.06 C 544.168 1380.15 548.289 1404.1 551.238 1429.77 C 553.534 1449.93 554.613 1470.22 554.468 1490.52 z M 497.78 1378.17 C 495.545 1362.92 493.795 1342.06 494.247 1326.74 C 495.869 1306.36 497.565 1288.07 502.183 1268.02 C 515.21 1212.99 545.264 1163.49 588.067 1126.54 C 610.215 1107.67 635.486 1092.81 662.743 1082.62 C 699.941 1068.88 734.094 1064.09 766.735 1038.45 C 812.841 1002.22 826.579 951.79 871.424 912.477 C 889.62 896.354 910.348 883.339 932.776 873.955 C 971.18 858.294 1006.29 854.917 1043.24 829.514 C 1076.17 806.869 1090.07 782.35 1111.2 749.656 C 1148.78 691.517 1218.93 647.794 1288.11 638.646 C 1282.89 595.011 1271.49 573.138 1250.73 535.123 C 1235.64 507.488 1220.63 469.301 1214.49 438.476 C 1211.22 437.281 1212.88 437.698 1208.72 438.377 C 1184.33 441.337 1162.59 442.751 1137.93 441.855 C 1117.39 441.109 1096.82 438.919 1076.24 438.992 C 1003.53 439.25 942.308 467.851 896.751 524.827 C 874.673 552.439 861.722 583.068 853.441 617.175 C 845.571 649.591 841.757 674.746 824.056 704.252 C 811.995 724.377 796.854 742.487 779.184 757.921 C 749.88 783.509 729.831 792.378 704.126 826.546 C 688.341 847.688 676.581 871.553 669.432 896.95 C 658.409 935.483 659.041 956.887 637.395 995.434 C 622.269 1022.33 602.168 1046.1 578.162 1065.49 C 564.459 1076.54 550.496 1086.24 537.401 1098.22 C 484.577 1146.99 458.489 1218.22 467.318 1289.57 C 471.305 1321.62 482.682 1349.91 497.78 1378.17 z"/>
<path transform="translate(0,0)" fill="rgb(25,25,25)" d="M 753.071 1182.13 C 834.256 1176.41 904.689 1237.63 910.344 1318.81 C 915.999 1400 854.733 1470.39 773.54 1475.98 C 692.435 1481.57 622.141 1420.39 616.491 1339.28 C 610.842 1258.18 671.974 1187.84 753.071 1182.13 z M 774.418 1428.08 C 828.886 1422.01 868.192 1373.04 862.324 1318.55 C 856.457 1264.06 807.627 1224.57 753.115 1230.24 C 698.323 1235.94 658.59 1285.08 664.488 1339.85 C 670.386 1394.62 719.668 1434.17 774.418 1428.08 z"/>
<path transform="translate(0,0)" fill="rgb(25,25,25)" d="M 1031.31 968.678 C 1111.82 960.226 1183.98 1018.57 1192.57 1099.07 C 1201.17 1179.57 1142.96 1251.83 1062.47 1260.57 C 981.78 1269.33 909.298 1210.94 900.681 1130.23 C 892.064 1049.53 950.585 977.15 1031.31 968.678 z M 1049.49 1213.63 C 1103.77 1212.36 1146.87 1167.55 1146.03 1113.26 C 1145.19 1058.97 1100.73 1015.52 1046.43 1015.93 C 991.524 1016.34 947.473 1061.42 948.323 1116.32 C 949.173 1171.23 994.598 1214.92 1049.49 1213.63 z"/>
<path transform="translate(0,0)" fill="rgb(25,25,25)" d="M 1317.82 757.246 C 1398.09 750.736 1468.42 810.597 1474.82 890.883 C 1481.22 971.169 1421.26 1041.42 1340.97 1047.7 C 1260.83 1053.98 1190.75 994.166 1184.36 914.036 C 1177.98 833.906 1237.7 763.744 1317.82 757.246 z M 1333.51 1000.5 C 1387.51 998.267 1429.54 952.797 1427.53 898.79 C 1425.52 844.782 1380.23 802.56 1326.22 804.341 C 1271.88 806.133 1229.35 851.755 1231.37 906.087 C 1233.39 960.418 1279.19 1002.75 1333.51 1000.5 z"/>
<path transform="translate(0,0)" fill="rgb(25,25,25)" d="M 1061.16 511.345 C 1072.79 510.67 1087.72 509.153 1097.97 515.607 C 1109.73 523.01 1112.77 538.198 1104.43 549.411 C 1095.49 561.428 1083.96 558.315 1071.01 558.225 C 1030.19 559.022 989.947 581.924 976.22 621.787 C 972.637 632.193 970.625 645.066 964.474 653.934 C 960.692 657.214 955.22 661.582 950.1 661.876 C 892.426 665.197 939.448 582.959 955.125 564.417 C 983.685 530.637 1018.51 515.448 1061.16 511.345 z"/>
</svg>